<?xml version="1.0"?>
<svg version="1.1" id="topsvg"
xmlns="http://www.w3.org/2000/svg" xmlns:xlink="http://www.w3.org/1999/xlink"
xmlns:cml="http://www.xml-cml.org/schema" x="0" y="0" width="200px" height="200px" viewBox="0 0 100 100">
<title>32 - Open Babel Depiction</title>
<defs>
<radialGradient id='radialffffff0ccff' cx='50%' cy='50%' r='50%' fx='30%' fy='30%'>
  <stop offset=' 0%' stop-color="rgb(255,255,255)"  stop-opacity='0.8'/>
  <stop offset='100%' stop-color="rgb(12,12,255)"  stop-opacity ='1.0'/>
</radialGradient>
<radialGradient id='radialffffff666666' cx='50%' cy='50%' r='50%' fx='30%' fy='30%'>
  <stop offset=' 0%' stop-color="rgb(255,255,255)"  stop-opacity='0.8'/>
  <stop offset='100%' stop-color="rgb(102,102,102)"  stop-opacity ='1.0'/>
</radialGradient>
<radialGradient id='radialffffffbfbfbf' cx='50%' cy='50%' r='50%' fx='30%' fy='30%'>
  <stop offset=' 0%' stop-color="rgb(255,255,255)"  stop-opacity='0.8'/>
  <stop offset='100%' stop-color="rgb(191,191,191)"  stop-opacity ='1.0'/>
</radialGradient>
<radialGradient id='radialffffffffcc' cx='50%' cy='50%' r='50%' fx='30%' fy='30%'>
  <stop offset=' 0%' stop-color="rgb(255,255,255)"  stop-opacity='0.8'/>
  <stop offset='100%' stop-color="rgb(255,12,12)"  stop-opacity ='1.0'/>
</radialGradient>
</defs>
<g transform="translate(0,0)">
<svg width="100" height="100" x="0" y="0" viewBox="0 0 386.477 262.679"
font-family="sans-serif" stroke="rgb(76,76,76)" stroke-width="2"  stroke-linecap="round">
<line x1="140.7" y1="88.9" x2="150.6" y2="108.7" stroke="rgb(76,76,76)"  stroke-width="2.0"/>
<line x1="70.0" y1="208.0" x2="72.4" y2="198.2" stroke="rgb(76,76,76)"  stroke-width="2.0"/>
<line x1="203.6" y1="38.5" x2="221.7" y2="70.9" stroke="rgb(76,76,76)"  stroke-width="2.0"/>
<line x1="198.4" y1="41.5" x2="216.4" y2="73.8" stroke="rgb(76,76,76)"  stroke-width="2.0"/>
<line x1="149.7" y1="185.2" x2="130.4" y2="155.3" stroke="rgb(76,76,76)"  stroke-width="2.0"/>
<line x1="154.8" y1="181.9" x2="135.5" y2="152.1" stroke="rgb(76,76,76)"  stroke-width="2.0"/>
<line x1="293.7" y1="45.0" x2="270.9" y2="75.3" stroke="rgb(76,76,76)"  stroke-width="2.0"/>
<line x1="288.9" y1="41.4" x2="266.1" y2="71.7" stroke="rgb(76,76,76)"  stroke-width="2.0"/>
<line x1="346.5" y1="108.2" x2="330.0" y2="112.7" stroke="rgb(76,76,76)"  stroke-width="2.0"/>
<line x1="219.0" y1="72.3" x2="268.5" y2="73.5" stroke="rgb(76,76,76)"  stroke-width="2.0"/>
<line x1="219.0" y1="72.3" x2="197.1" y2="107.6" stroke="rgb(76,76,76)"  stroke-width="2.0"/>
<line x1="133.0" y1="153.7" x2="150.6" y2="108.7" stroke="rgb(76,76,76)"  stroke-width="2.0"/>
<line x1="133.0" y1="153.7" x2="93.0" y2="156.4" stroke="rgb(76,76,76)"  stroke-width="2.0"/>
<line x1="268.5" y1="73.5" x2="283.7" y2="110.5" stroke="rgb(76,76,76)"  stroke-width="2.0"/>
<line x1="150.6" y1="108.7" x2="197.1" y2="107.6" stroke="rgb(76,76,76)"  stroke-width="2.0"/>
<line x1="150.6" y1="108.7" x2="136.4" y2="94.3" stroke="rgb(76,76,76)"  stroke-width="2.0"/>
<line x1="197.1" y1="107.6" x2="212.5" y2="134.0" stroke="rgb(76,76,76)"  stroke-width="2.0"/>
<line x1="72.4" y1="198.2" x2="93.0" y2="156.4" stroke="rgb(76,76,76)"  stroke-width="2.0"/>
<line x1="72.4" y1="198.2" x2="40.0" y2="197.3" stroke="rgb(76,76,76)"  stroke-width="2.0"/>
<line x1="72.4" y1="198.2" x2="90.8" y2="222.7" stroke="rgb(76,76,76)"  stroke-width="2.0"/>
<line x1="283.7" y1="110.5" x2="330.0" y2="112.7" stroke="rgb(76,76,76)"  stroke-width="2.0"/>
<line x1="330.0" y1="112.7" x2="339.5" y2="143.9" stroke="rgb(76,76,76)"  stroke-width="2.0"/>
<line x1="330.0" y1="112.7" x2="341.1" y2="87.8" stroke="rgb(76,76,76)"  stroke-width="2.0"/>
<circle cx="140.685826" cy="88.893569" r="2.066667" opacity="1.000000" style="stroke:black;fill:url(#radialffffffbfbfbf)"/>
<circle cx="70.048870" cy="207.998007" r="2.066667" opacity="1.000000" style="stroke:black;fill:url(#radialffffffbfbfbf)"/>
<circle cx="200.993382" cy="40.000000" r="4.400000" opacity="1.000000" style="stroke:black;fill:url(#radialffffffffcc)"/>
<circle cx="152.251526" cy="183.572204" r="4.400000" opacity="1.000000" style="stroke:black;fill:url(#radialffffffffcc)"/>
<circle cx="291.252970" cy="43.224710" r="4.400000" opacity="1.000000" style="stroke:black;fill:url(#radialffffffffcc)"/>
<circle cx="346.476525" cy="108.216003" r="2.066667" opacity="1.000000" style="stroke:black;fill:url(#radialffffffbfbfbf)"/>
<circle cx="219.044009" cy="72.334250" r="5.066667" opacity="1.000000" style="stroke:black;fill:url(#radialffffff666666)"/>
<circle cx="132.961372" cy="153.684730" r="5.066667" opacity="1.000000" style="stroke:black;fill:url(#radialffffff666666)"/>
<circle cx="268.502467" cy="73.505991" r="5.066667" opacity="1.000000" style="stroke:black;fill:url(#radialffffff666666)"/>
<circle cx="150.560087" cy="108.680826" r="5.066667" opacity="1.000000" style="stroke:black;fill:url(#radialffffff666666)"/>
<circle cx="197.106946" cy="107.644658" r="4.733333" opacity="1.000000" style="stroke:black;fill:url(#radialffffff0ccff)"/>
<circle cx="72.427860" cy="198.197988" r="5.066667" opacity="1.000000" style="stroke:black;fill:url(#radialffffff666666)"/>
<circle cx="93.018873" cy="156.431705" r="4.800226" opacity="1.000000" style="stroke:black;fill:url(#radialffffffffcc)"/>
<circle cx="283.702825" cy="110.482015" r="5.255441" opacity="1.000000" style="stroke:black;fill:url(#radialffffffffcc)"/>
<circle cx="212.542943" cy="133.987856" r="2.617998" opacity="1.000000" style="stroke:black;fill:url(#radialffffffbfbfbf)"/>
<circle cx="330.030183" cy="112.725432" r="6.870613" opacity="1.000000" style="stroke:black;fill:url(#radialffffff666666)"/>
<circle cx="40.000000" cy="197.316762" r="2.842880" opacity="1.000000" style="stroke:black;fill:url(#radialffffffbfbfbf)"/>
<circle cx="90.769001" cy="222.678666" r="3.071647" opacity="1.000000" style="stroke:black;fill:url(#radialffffffbfbfbf)"/>
<circle cx="136.392669" cy="94.287453" r="3.413826" opacity="1.000000" style="stroke:black;fill:url(#radialffffffbfbfbf)"/>
<circle cx="339.517092" cy="143.936359" r="3.585304" opacity="1.000000" style="stroke:black;fill:url(#radialffffffbfbfbf)"/>
<circle cx="341.140744" cy="87.815438" r="4.133333" opacity="1.000000" style="stroke:black;fill:url(#radialffffffbfbfbf)"/>
</svg>
</g>
</svg>
