<?xml version="1.0"?>
<svg version="1.1" id="topsvg"
xmlns="http://www.w3.org/2000/svg" xmlns:xlink="http://www.w3.org/1999/xlink"
xmlns:cml="http://www.xml-cml.org/schema" x="0" y="0" width="200px" height="200px" viewBox="0 0 100 100">
<title>35 - Open Babel Depiction</title>
<defs>
<radialGradient id='radialffffff0ccff' cx='50%' cy='50%' r='50%' fx='30%' fy='30%'>
  <stop offset=' 0%' stop-color="rgb(255,255,255)"  stop-opacity='0.8'/>
  <stop offset='100%' stop-color="rgb(12,12,255)"  stop-opacity ='1.0'/>
</radialGradient>
<radialGradient id='radialffffff666666' cx='50%' cy='50%' r='50%' fx='30%' fy='30%'>
  <stop offset=' 0%' stop-color="rgb(255,255,255)"  stop-opacity='0.8'/>
  <stop offset='100%' stop-color="rgb(102,102,102)"  stop-opacity ='1.0'/>
</radialGradient>
<radialGradient id='radialffffffbfbfbf' cx='50%' cy='50%' r='50%' fx='30%' fy='30%'>
  <stop offset=' 0%' stop-color="rgb(255,255,255)"  stop-opacity='0.8'/>
  <stop offset='100%' stop-color="rgb(191,191,191)"  stop-opacity ='1.0'/>
</radialGradient>
<radialGradient id='radialffffffffcc' cx='50%' cy='50%' r='50%' fx='30%' fy='30%'>
  <stop offset=' 0%' stop-color="rgb(255,255,255)"  stop-opacity='0.8'/>
  <stop offset='100%' stop-color="rgb(255,12,12)"  stop-opacity ='1.0'/>
</radialGradient>
</defs>
<g transform="translate(0,0)">
<svg width="100" height="100" x="0" y="0" viewBox="0 0 345.995 215.816"
font-family="sans-serif" stroke="rgb(76,76,76)" stroke-width="2"  stroke-linecap="round">
<line x1="74.3" y1="82.9" x2="85.2" y2="62.6" stroke="rgb(76,76,76)"  stroke-width="2.0"/>
<line x1="109.0" y1="40.0" x2="85.2" y2="62.6" stroke="rgb(76,76,76)"  stroke-width="2.0"/>
<line x1="85.2" y1="62.6" x2="57.7" y2="44.1" stroke="rgb(76,76,76)"  stroke-width="2.0"/>
<line x1="85.2" y1="62.6" x2="103.6" y2="88.4" stroke="rgb(76,76,76)"  stroke-width="2.0"/>
<line x1="103.6" y1="88.4" x2="77.4" y2="117.2" stroke="rgb(76,76,76)"  stroke-width="2.0"/>
<line x1="39.6" y1="119.7" x2="76.9" y2="114.3" stroke="rgb(76,76,76)"  stroke-width="2.0"/>
<line x1="40.4" y1="125.7" x2="77.8" y2="120.2" stroke="rgb(76,76,76)"  stroke-width="2.0"/>
<line x1="77.4" y1="117.2" x2="100.2" y2="141.7" stroke="rgb(76,76,76)"  stroke-width="2.0"/>
<line x1="161.0" y1="138.0" x2="146.7" y2="138.8" stroke="rgb(76,76,76)"  stroke-width="2.0"/>
<line x1="235.2" y1="137.2" x2="220.2" y2="138.5" stroke="rgb(76,76,76)"  stroke-width="2.0"/>
<line x1="234.7" y1="131.2" x2="219.7" y2="132.5" stroke="rgb(76,76,76)"  stroke-width="2.0"/>
<line x1="146.7" y1="138.8" x2="100.2" y2="141.7" stroke="rgb(76,76,76)"  stroke-width="2.0"/>
<line x1="146.7" y1="138.8" x2="171.3" y2="138.1" stroke="rgb(76,76,76)"  stroke-width="2.0"/>
<line x1="90.6" y1="175.8" x2="100.2" y2="141.7" stroke="rgb(76,76,76)"  stroke-width="2.0"/>
<line x1="100.2" y1="141.7" x2="89.7" y2="129.1" stroke="rgb(76,76,76)"  stroke-width="2.0"/>
<line x1="220.0" y1="135.5" x2="171.3" y2="138.1" stroke="rgb(76,76,76)"  stroke-width="2.0"/>
<line x1="220.0" y1="135.5" x2="243.3" y2="134.9" stroke="rgb(76,76,76)"  stroke-width="2.0"/>
<line x1="171.6" y1="141.1" x2="157.1" y2="142.4" stroke="rgb(76,76,76)"  stroke-width="2.0"/>
<line x1="171.0" y1="135.1" x2="156.6" y2="136.4" stroke="rgb(76,76,76)"  stroke-width="2.0"/>
<line x1="301.4" y1="160.0" x2="289.6" y2="132.4" stroke="rgb(76,76,76)"  stroke-width="2.0"/>
<line x1="298.5" y1="103.2" x2="289.6" y2="132.4" stroke="rgb(76,76,76)"  stroke-width="2.0"/>
<line x1="289.6" y1="132.4" x2="243.3" y2="134.9" stroke="rgb(76,76,76)"  stroke-width="2.0"/>
<line x1="289.6" y1="132.4" x2="306.0" y2="132.1" stroke="rgb(76,76,76)"  stroke-width="2.0"/>
<circle cx="74.283407" cy="82.943051" r="2.066667" opacity="1.000000" style="stroke:black;fill:url(#radialffffffbfbfbf)"/>
<circle cx="108.976872" cy="40.000000" r="2.066667" opacity="1.000000" style="stroke:black;fill:url(#radialffffffbfbfbf)"/>
<circle cx="85.212898" cy="62.556402" r="5.066667" opacity="1.000000" style="stroke:black;fill:url(#radialffffff666666)"/>
<circle cx="57.709972" cy="44.071518" r="2.066667" opacity="1.000000" style="stroke:black;fill:url(#radialffffffbfbfbf)"/>
<circle cx="103.562173" cy="88.383580" r="4.400000" opacity="1.000000" style="stroke:black;fill:url(#radialffffffffcc)"/>
<circle cx="40.000000" cy="122.683131" r="4.400000" opacity="1.000000" style="stroke:black;fill:url(#radialffffffffcc)"/>
<circle cx="77.350768" cy="117.242602" r="5.066667" opacity="1.000000" style="stroke:black;fill:url(#radialffffff666666)"/>
<circle cx="160.973480" cy="138.042537" r="2.066667" opacity="1.000000" style="stroke:black;fill:url(#radialffffffbfbfbf)"/>
<circle cx="234.929163" cy="134.222865" r="4.476636" opacity="1.000000" style="stroke:black;fill:url(#radialffffffffcc)"/>
<circle cx="146.686036" cy="138.769017" r="5.296567" opacity="1.000000" style="stroke:black;fill:url(#radialffffff0ccff)"/>
<circle cx="90.627597" cy="175.816277" r="2.342565" opacity="1.000000" style="stroke:black;fill:url(#radialffffffbfbfbf)"/>
<circle cx="100.162246" cy="141.736285" r="5.821340" opacity="1.000000" style="stroke:black;fill:url(#radialffffff666666)"/>
<circle cx="219.966900" cy="135.517614" r="6.994342" opacity="1.000000" style="stroke:black;fill:url(#radialffffff666666)"/>
<circle cx="89.746134" cy="129.079386" r="3.028194" opacity="1.000000" style="stroke:black;fill:url(#radialffffffbfbfbf)"/>
<circle cx="171.286270" cy="138.097426" r="7.471255" opacity="1.000000" style="stroke:black;fill:url(#radialffffff666666)"/>
<circle cx="301.416629" cy="160.017755" r="3.105764" opacity="1.000000" style="stroke:black;fill:url(#radialffffffbfbfbf)"/>
<circle cx="298.501022" cy="103.203776" r="3.124854" opacity="1.000000" style="stroke:black;fill:url(#radialffffffbfbfbf)"/>
<circle cx="289.631506" cy="132.430881" r="8.546864" opacity="1.000000" style="stroke:black;fill:url(#radialffffff666666)"/>
<circle cx="243.320816" cy="134.887998" r="7.674723" opacity="1.000000" style="stroke:black;fill:url(#radialffffffffcc)"/>
<circle cx="156.847073" cy="139.401862" r="8.127667" opacity="1.000000" style="stroke:black;fill:url(#radialffffffffcc)"/>
<circle cx="305.995068" cy="132.091857" r="4.133333" opacity="1.000000" style="stroke:black;fill:url(#radialffffffbfbfbf)"/>
</svg>
</g>
</svg>
