<?xml version="1.0"?>
<svg version="1.1" id="topsvg"
xmlns="http://www.w3.org/2000/svg" xmlns:xlink="http://www.w3.org/1999/xlink"
xmlns:cml="http://www.xml-cml.org/schema" x="0" y="0" width="200px" height="200px" viewBox="0 0 100 100">
<title>12 - Open Babel Depiction</title>
<defs>
<radialGradient id='radialffffff0ccff' cx='50%' cy='50%' r='50%' fx='30%' fy='30%'>
  <stop offset=' 0%' stop-color="rgb(255,255,255)"  stop-opacity='0.8'/>
  <stop offset='100%' stop-color="rgb(12,12,255)"  stop-opacity ='1.0'/>
</radialGradient>
<radialGradient id='radialffffff666666' cx='50%' cy='50%' r='50%' fx='30%' fy='30%'>
  <stop offset=' 0%' stop-color="rgb(255,255,255)"  stop-opacity='0.8'/>
  <stop offset='100%' stop-color="rgb(102,102,102)"  stop-opacity ='1.0'/>
</radialGradient>
<radialGradient id='radialffffffbfbfbf' cx='50%' cy='50%' r='50%' fx='30%' fy='30%'>
  <stop offset=' 0%' stop-color="rgb(255,255,255)"  stop-opacity='0.8'/>
  <stop offset='100%' stop-color="rgb(191,191,191)"  stop-opacity ='1.0'/>
</radialGradient>
<radialGradient id='radialffffffffcc' cx='50%' cy='50%' r='50%' fx='30%' fy='30%'>
  <stop offset=' 0%' stop-color="rgb(255,255,255)"  stop-opacity='0.8'/>
  <stop offset='100%' stop-color="rgb(255,12,12)"  stop-opacity ='1.0'/>
</radialGradient>
</defs>
<g transform="translate(0,0)">
<svg width="100" height="100" x="0" y="0" viewBox="0 0 402.535 208.339"
font-family="sans-serif" stroke="rgb(76,76,76)" stroke-width="2"  stroke-linecap="round">
<line x1="152.8" y1="71.0" x2="163.8" y2="70.9" stroke="rgb(76,76,76)"  stroke-width="2.0"/>
<line x1="226.7" y1="79.4" x2="210.4" y2="74.0" stroke="rgb(76,76,76)"  stroke-width="2.0"/>
<line x1="298.0" y1="83.7" x2="280.4" y2="77.4" stroke="rgb(76,76,76)"  stroke-width="2.0"/>
<line x1="300.0" y1="78.1" x2="282.4" y2="71.8" stroke="rgb(76,76,76)"  stroke-width="2.0"/>
<line x1="163.8" y1="70.9" x2="210.4" y2="74.0" stroke="rgb(76,76,76)"  stroke-width="2.0"/>
<line x1="163.8" y1="70.9" x2="154.0" y2="40.0" stroke="rgb(76,76,76)"  stroke-width="2.0"/>
<line x1="163.8" y1="70.9" x2="141.9" y2="107.2" stroke="rgb(76,76,76)"  stroke-width="2.0"/>
<line x1="210.4" y1="74.0" x2="232.2" y2="70.3" stroke="rgb(76,76,76)"  stroke-width="2.0"/>
<line x1="99.2" y1="103.5" x2="141.9" y2="107.2" stroke="rgb(76,76,76)"  stroke-width="2.0"/>
<line x1="99.2" y1="103.5" x2="74.5" y2="136.6" stroke="rgb(76,76,76)"  stroke-width="2.0"/>
<line x1="144.4" y1="105.5" x2="162.9" y2="134.4" stroke="rgb(76,76,76)"  stroke-width="2.0"/>
<line x1="139.4" y1="108.8" x2="157.9" y2="137.6" stroke="rgb(76,76,76)"  stroke-width="2.0"/>
<line x1="81.8" y1="168.3" x2="74.5" y2="136.6" stroke="rgb(76,76,76)"  stroke-width="2.0"/>
<line x1="281.4" y1="74.6" x2="232.2" y2="70.3" stroke="rgb(76,76,76)"  stroke-width="2.0"/>
<line x1="281.4" y1="74.6" x2="302.0" y2="70.7" stroke="rgb(76,76,76)"  stroke-width="2.0"/>
<line x1="231.2" y1="73.1" x2="214.0" y2="66.7" stroke="rgb(76,76,76)"  stroke-width="2.0"/>
<line x1="233.3" y1="67.4" x2="216.1" y2="61.1" stroke="rgb(76,76,76)"  stroke-width="2.0"/>
<line x1="40.0" y1="130.9" x2="74.5" y2="136.6" stroke="rgb(76,76,76)"  stroke-width="2.0"/>
<line x1="74.5" y1="136.6" x2="81.8" y2="137.0" stroke="rgb(76,76,76)"  stroke-width="2.0"/>
<line x1="362.2" y1="49.4" x2="348.5" y2="74.3" stroke="rgb(76,76,76)"  stroke-width="2.0"/>
<line x1="358.1" y1="105.6" x2="348.5" y2="74.3" stroke="rgb(76,76,76)"  stroke-width="2.0"/>
<line x1="348.5" y1="74.3" x2="302.0" y2="70.7" stroke="rgb(76,76,76)"  stroke-width="2.0"/>
<line x1="348.5" y1="74.3" x2="362.5" y2="70.7" stroke="rgb(76,76,76)"  stroke-width="2.0"/>
<circle cx="152.817750" cy="70.952231" r="2.066667" opacity="1.000000" style="stroke:black;fill:url(#radialffffffbfbfbf)"/>
<circle cx="226.749863" cy="79.392574" r="2.066667" opacity="1.000000" style="stroke:black;fill:url(#radialffffffbfbfbf)"/>
<circle cx="298.977117" cy="80.877868" r="4.400000" opacity="1.000000" style="stroke:black;fill:url(#radialffffffffcc)"/>
<circle cx="163.754033" cy="70.855364" r="5.066667" opacity="1.000000" style="stroke:black;fill:url(#radialffffff666666)"/>
<circle cx="210.353511" cy="73.984168" r="4.733333" opacity="1.000000" style="stroke:black;fill:url(#radialffffff0ccff)"/>
<circle cx="153.957552" cy="40.000000" r="2.066667" opacity="1.000000" style="stroke:black;fill:url(#radialffffffbfbfbf)"/>
<circle cx="99.188958" cy="103.499538" r="4.400000" opacity="1.000000" style="stroke:black;fill:url(#radialffffffffcc)"/>
<circle cx="141.875010" cy="107.154653" r="5.066667" opacity="1.000000" style="stroke:black;fill:url(#radialffffff666666)"/>
<circle cx="81.833623" cy="168.339070" r="2.066667" opacity="1.000000" style="stroke:black;fill:url(#radialffffffbfbfbf)"/>
<circle cx="281.392530" cy="74.607345" r="5.066667" opacity="1.000000" style="stroke:black;fill:url(#radialffffff666666)"/>
<circle cx="232.213161" cy="70.261247" r="5.400623" opacity="1.000000" style="stroke:black;fill:url(#radialffffff666666)"/>
<circle cx="40.000000" cy="130.922582" r="2.254030" opacity="1.000000" style="stroke:black;fill:url(#radialffffffbfbfbf)"/>
<circle cx="160.402435" cy="136.004870" r="5.032354" opacity="1.000000" style="stroke:black;fill:url(#radialffffffffcc)"/>
<circle cx="74.458816" cy="136.595759" r="5.812152" opacity="1.000000" style="stroke:black;fill:url(#radialffffff666666)"/>
<circle cx="362.153765" cy="49.438073" r="2.506667" opacity="1.000000" style="stroke:black;fill:url(#radialffffffbfbfbf)"/>
<circle cx="358.101496" cy="105.611239" r="2.756318" opacity="1.000000" style="stroke:black;fill:url(#radialffffffbfbfbf)"/>
<circle cx="348.524580" cy="74.274769" r="7.714896" opacity="1.000000" style="stroke:black;fill:url(#radialffffff666666)"/>
<circle cx="301.973536" cy="70.655172" r="6.817140" opacity="1.000000" style="stroke:black;fill:url(#radialffffffffcc)"/>
<circle cx="215.058018" cy="63.903543" r="7.003563" opacity="1.000000" style="stroke:black;fill:url(#radialffffffffcc)"/>
<circle cx="81.775502" cy="136.979998" r="3.429453" opacity="1.000000" style="stroke:black;fill:url(#radialffffffbfbfbf)"/>
<circle cx="362.534776" cy="70.668088" r="4.133333" opacity="1.000000" style="stroke:black;fill:url(#radialffffffbfbfbf)"/>
</svg>
</g>
</svg>
