<?xml version="1.0"?>
<svg version="1.1" id="topsvg"
xmlns="http://www.w3.org/2000/svg" xmlns:xlink="http://www.w3.org/1999/xlink"
xmlns:cml="http://www.xml-cml.org/schema" x="0" y="0" width="200px" height="200px" viewBox="0 0 100 100">
<title>37 - Open Babel Depiction</title>
<defs>
<radialGradient id='radialffffff0ccff' cx='50%' cy='50%' r='50%' fx='30%' fy='30%'>
  <stop offset=' 0%' stop-color="rgb(255,255,255)"  stop-opacity='0.8'/>
  <stop offset='100%' stop-color="rgb(12,12,255)"  stop-opacity ='1.0'/>
</radialGradient>
<radialGradient id='radialffffff666666' cx='50%' cy='50%' r='50%' fx='30%' fy='30%'>
  <stop offset=' 0%' stop-color="rgb(255,255,255)"  stop-opacity='0.8'/>
  <stop offset='100%' stop-color="rgb(102,102,102)"  stop-opacity ='1.0'/>
</radialGradient>
<radialGradient id='radialffffffbfbfbf' cx='50%' cy='50%' r='50%' fx='30%' fy='30%'>
  <stop offset=' 0%' stop-color="rgb(255,255,255)"  stop-opacity='0.8'/>
  <stop offset='100%' stop-color="rgb(191,191,191)"  stop-opacity ='1.0'/>
</radialGradient>
<radialGradient id='radialffffffffcc' cx='50%' cy='50%' r='50%' fx='30%' fy='30%'>
  <stop offset=' 0%' stop-color="rgb(255,255,255)"  stop-opacity='0.8'/>
  <stop offset='100%' stop-color="rgb(255,12,12)"  stop-opacity ='1.0'/>
</radialGradient>
</defs>
<g transform="translate(0,0)">
<svg width="100" height="100" x="0" y="0" viewBox="0 0 337.481 221.18"
font-family="sans-serif" stroke="rgb(76,76,76)" stroke-width="2"  stroke-linecap="round">
<line x1="157.3" y1="77.7" x2="172.6" y2="86.4" stroke="rgb(76,76,76)"  stroke-width="2.0"/>
<line x1="154.3" y1="82.9" x2="169.7" y2="91.6" stroke="rgb(76,76,76)"  stroke-width="2.0"/>
<line x1="242.7" y1="107.1" x2="218.7" y2="104.9" stroke="rgb(76,76,76)"  stroke-width="2.0"/>
<line x1="243.3" y1="101.1" x2="219.3" y2="98.9" stroke="rgb(76,76,76)"  stroke-width="2.0"/>
<line x1="171.2" y1="89.0" x2="219.0" y2="101.9" stroke="rgb(76,76,76)"  stroke-width="2.0"/>
<line x1="171.2" y1="89.0" x2="147.6" y2="87.7" stroke="rgb(76,76,76)"  stroke-width="2.0"/>
<line x1="88.9" y1="85.6" x2="102.6" y2="75.3" stroke="rgb(76,76,76)"  stroke-width="2.0"/>
<line x1="219.0" y1="101.9" x2="231.4" y2="110.3" stroke="rgb(76,76,76)"  stroke-width="2.0"/>
<line x1="283.3" y1="151.8" x2="276.1" y2="122.7" stroke="rgb(76,76,76)"  stroke-width="2.0"/>
<line x1="102.6" y1="75.3" x2="147.6" y2="87.7" stroke="rgb(76,76,76)"  stroke-width="2.0"/>
<line x1="102.6" y1="75.3" x2="100.3" y2="40.0" stroke="rgb(76,76,76)"  stroke-width="2.0"/>
<line x1="102.6" y1="75.3" x2="76.4" y2="94.6" stroke="rgb(76,76,76)"  stroke-width="2.0"/>
<line x1="147.6" y1="87.7" x2="161.0" y2="94.5" stroke="rgb(76,76,76)"  stroke-width="2.0"/>
<line x1="297.5" y1="97.2" x2="276.1" y2="122.7" stroke="rgb(76,76,76)"  stroke-width="2.0"/>
<line x1="231.4" y1="110.3" x2="276.1" y2="122.7" stroke="rgb(76,76,76)"  stroke-width="2.0"/>
<line x1="276.1" y1="122.7" x2="283.3" y2="128.9" stroke="rgb(76,76,76)"  stroke-width="2.0"/>
<line x1="75.2" y1="97.3" x2="41.7" y2="82.5" stroke="rgb(76,76,76)"  stroke-width="2.0"/>
<line x1="77.6" y1="91.8" x2="44.1" y2="77.0" stroke="rgb(76,76,76)"  stroke-width="2.0"/>
<line x1="76.4" y1="94.6" x2="94.7" y2="130.5" stroke="rgb(76,76,76)"  stroke-width="2.0"/>
<line x1="94.7" y1="130.5" x2="72.3" y2="152.2" stroke="rgb(76,76,76)"  stroke-width="2.0"/>
<line x1="40.0" y1="161.6" x2="72.3" y2="152.2" stroke="rgb(76,76,76)"  stroke-width="2.0"/>
<line x1="72.3" y1="152.2" x2="89.6" y2="181.2" stroke="rgb(76,76,76)"  stroke-width="2.0"/>
<line x1="72.3" y1="152.2" x2="69.5" y2="131.2" stroke="rgb(76,76,76)"  stroke-width="2.0"/>
<circle cx="155.796544" cy="80.322530" r="4.400000" opacity="1.000000" style="stroke:black;fill:url(#radialffffffffcc)"/>
<circle cx="243.010315" cy="104.111918" r="4.400000" opacity="1.000000" style="stroke:black;fill:url(#radialffffffffcc)"/>
<circle cx="171.164425" cy="88.979672" r="5.066667" opacity="1.000000" style="stroke:black;fill:url(#radialffffff666666)"/>
<circle cx="88.857013" cy="85.571043" r="2.066667" opacity="1.000000" style="stroke:black;fill:url(#radialffffffbfbfbf)"/>
<circle cx="219.011115" cy="101.910512" r="5.066667" opacity="1.000000" style="stroke:black;fill:url(#radialffffff666666)"/>
<circle cx="283.261832" cy="151.813355" r="2.066667" opacity="1.000000" style="stroke:black;fill:url(#radialffffffbfbfbf)"/>
<circle cx="102.607732" cy="75.296739" r="5.066667" opacity="1.000000" style="stroke:black;fill:url(#radialffffff666666)"/>
<circle cx="147.607443" cy="87.688525" r="4.733333" opacity="1.000000" style="stroke:black;fill:url(#radialffffff0ccff)"/>
<circle cx="100.273983" cy="40.000000" r="2.066667" opacity="1.000000" style="stroke:black;fill:url(#radialffffffbfbfbf)"/>
<circle cx="297.480592" cy="97.188141" r="2.066667" opacity="1.000000" style="stroke:black;fill:url(#radialffffffbfbfbf)"/>
<circle cx="231.354483" cy="110.341704" r="4.400000" opacity="1.000000" style="stroke:black;fill:url(#radialffffffffcc)"/>
<circle cx="276.083053" cy="122.668933" r="5.066667" opacity="1.000000" style="stroke:black;fill:url(#radialffffff666666)"/>
<circle cx="161.016007" cy="94.521922" r="2.271928" opacity="1.000000" style="stroke:black;fill:url(#radialffffffbfbfbf)"/>
<circle cx="76.397442" cy="94.592935" r="5.863573" opacity="1.000000" style="stroke:black;fill:url(#radialffffff666666)"/>
<circle cx="283.261832" cy="128.869668" r="2.693492" opacity="1.000000" style="stroke:black;fill:url(#radialffffffbfbfbf)"/>
<circle cx="42.879258" cy="79.747969" r="5.762216" opacity="1.000000" style="stroke:black;fill:url(#radialffffffffcc)"/>
<circle cx="94.702683" cy="130.541703" r="5.791757" opacity="1.000000" style="stroke:black;fill:url(#radialffffffffcc)"/>
<circle cx="40.000000" cy="161.645441" r="3.279671" opacity="1.000000" style="stroke:black;fill:url(#radialffffffbfbfbf)"/>
<circle cx="72.336784" cy="152.229750" r="8.589388" opacity="1.000000" style="stroke:black;fill:url(#radialffffff666666)"/>
<circle cx="89.634929" cy="181.180500" r="3.723974" opacity="1.000000" style="stroke:black;fill:url(#radialffffffbfbfbf)"/>
<circle cx="69.486576" cy="131.200188" r="4.133333" opacity="1.000000" style="stroke:black;fill:url(#radialffffffbfbfbf)"/>
</svg>
</g>
</svg>
