<?xml version="1.0"?>
<svg version="1.1" id="topsvg"
xmlns="http://www.w3.org/2000/svg" xmlns:xlink="http://www.w3.org/1999/xlink"
xmlns:cml="http://www.xml-cml.org/schema" x="0" y="0" width="200px" height="200px" viewBox="0 0 100 100">
<title>20 - Open Babel Depiction</title>
<defs>
<radialGradient id='radialffffff0ccff' cx='50%' cy='50%' r='50%' fx='30%' fy='30%'>
  <stop offset=' 0%' stop-color="rgb(255,255,255)"  stop-opacity='0.8'/>
  <stop offset='100%' stop-color="rgb(12,12,255)"  stop-opacity ='1.0'/>
</radialGradient>
<radialGradient id='radialffffff666666' cx='50%' cy='50%' r='50%' fx='30%' fy='30%'>
  <stop offset=' 0%' stop-color="rgb(255,255,255)"  stop-opacity='0.8'/>
  <stop offset='100%' stop-color="rgb(102,102,102)"  stop-opacity ='1.0'/>
</radialGradient>
<radialGradient id='radialffffffbfbfbf' cx='50%' cy='50%' r='50%' fx='30%' fy='30%'>
  <stop offset=' 0%' stop-color="rgb(255,255,255)"  stop-opacity='0.8'/>
  <stop offset='100%' stop-color="rgb(191,191,191)"  stop-opacity ='1.0'/>
</radialGradient>
<radialGradient id='radialffffffffcc' cx='50%' cy='50%' r='50%' fx='30%' fy='30%'>
  <stop offset=' 0%' stop-color="rgb(255,255,255)"  stop-opacity='0.8'/>
  <stop offset='100%' stop-color="rgb(255,12,12)"  stop-opacity ='1.0'/>
</radialGradient>
</defs>
<g transform="translate(0,0)">
<svg width="100" height="100" x="0" y="0" viewBox="0 0 389.076 186.194"
font-family="sans-serif" stroke="rgb(76,76,76)" stroke-width="2"  stroke-linecap="round">
<line x1="89.2" y1="146.2" x2="73.2" y2="124.5" stroke="rgb(76,76,76)"  stroke-width="2.0"/>
<line x1="72.5" y1="92.4" x2="73.2" y2="124.5" stroke="rgb(76,76,76)"  stroke-width="2.0"/>
<line x1="73.2" y1="124.5" x2="40.0" y2="135.4" stroke="rgb(76,76,76)"  stroke-width="2.0"/>
<line x1="73.2" y1="124.5" x2="95.3" y2="123.7" stroke="rgb(76,76,76)"  stroke-width="2.0"/>
<line x1="156.7" y1="102.8" x2="137.7" y2="113.5" stroke="rgb(76,76,76)"  stroke-width="2.0"/>
<line x1="153.7" y1="97.6" x2="134.8" y2="108.3" stroke="rgb(76,76,76)"  stroke-width="2.0"/>
<line x1="136.3" y1="110.9" x2="95.3" y2="123.7" stroke="rgb(76,76,76)"  stroke-width="2.0"/>
<line x1="136.3" y1="110.9" x2="155.6" y2="111.3" stroke="rgb(76,76,76)"  stroke-width="2.0"/>
<line x1="349.1" y1="105.1" x2="336.0" y2="111.4" stroke="rgb(76,76,76)"  stroke-width="2.0"/>
<line x1="204.5" y1="38.4" x2="224.6" y2="71.0" stroke="rgb(76,76,76)"  stroke-width="2.0"/>
<line x1="199.4" y1="41.6" x2="219.5" y2="74.1" stroke="rgb(76,76,76)"  stroke-width="2.0"/>
<line x1="295.4" y1="43.1" x2="274.3" y2="74.4" stroke="rgb(76,76,76)"  stroke-width="2.0"/>
<line x1="290.4" y1="39.8" x2="269.4" y2="71.0" stroke="rgb(76,76,76)"  stroke-width="2.0"/>
<line x1="222.1" y1="72.5" x2="271.8" y2="72.7" stroke="rgb(76,76,76)"  stroke-width="2.0"/>
<line x1="222.1" y1="72.5" x2="202.2" y2="109.0" stroke="rgb(76,76,76)"  stroke-width="2.0"/>
<line x1="271.8" y1="72.7" x2="289.4" y2="110.0" stroke="rgb(76,76,76)"  stroke-width="2.0"/>
<line x1="202.2" y1="109.0" x2="155.6" y2="111.3" stroke="rgb(76,76,76)"  stroke-width="2.0"/>
<line x1="202.2" y1="109.0" x2="219.4" y2="135.7" stroke="rgb(76,76,76)"  stroke-width="2.0"/>
<line x1="155.6" y1="111.3" x2="145.6" y2="141.0" stroke="rgb(76,76,76)"  stroke-width="2.0"/>
<line x1="155.6" y1="111.3" x2="142.7" y2="83.9" stroke="rgb(76,76,76)"  stroke-width="2.0"/>
<line x1="289.4" y1="110.0" x2="336.0" y2="111.4" stroke="rgb(76,76,76)"  stroke-width="2.0"/>
<line x1="336.0" y1="111.4" x2="347.4" y2="142.9" stroke="rgb(76,76,76)"  stroke-width="2.0"/>
<line x1="336.0" y1="111.4" x2="349.0" y2="87.2" stroke="rgb(76,76,76)"  stroke-width="2.0"/>
<circle cx="89.228364" cy="146.193951" r="2.066667" opacity="1.000000" style="stroke:black;fill:url(#radialffffffbfbfbf)"/>
<circle cx="72.517641" cy="92.423963" r="2.066667" opacity="1.000000" style="stroke:black;fill:url(#radialffffffbfbfbf)"/>
<circle cx="73.156760" cy="124.463877" r="5.066667" opacity="1.000000" style="stroke:black;fill:url(#radialffffff666666)"/>
<circle cx="40.000000" cy="135.357965" r="2.066667" opacity="1.000000" style="stroke:black;fill:url(#radialffffffbfbfbf)"/>
<circle cx="155.170679" cy="100.187009" r="4.400000" opacity="1.000000" style="stroke:black;fill:url(#radialffffffffcc)"/>
<circle cx="136.264999" cy="110.922930" r="5.066667" opacity="1.000000" style="stroke:black;fill:url(#radialffffff666666)"/>
<circle cx="95.329053" cy="123.724693" r="4.400000" opacity="1.000000" style="stroke:black;fill:url(#radialffffffffcc)"/>
<circle cx="349.075752" cy="105.138573" r="2.419260" opacity="1.000000" style="stroke:black;fill:url(#radialffffffbfbfbf)"/>
<circle cx="201.958767" cy="40.000000" r="5.708238" opacity="1.000000" style="stroke:black;fill:url(#radialffffffffcc)"/>
<circle cx="292.865488" cy="41.475140" r="5.746427" opacity="1.000000" style="stroke:black;fill:url(#radialffffffffcc)"/>
<circle cx="222.078129" cy="72.546691" r="7.402364" opacity="1.000000" style="stroke:black;fill:url(#radialffffff666666)"/>
<circle cx="271.842320" cy="72.720997" r="7.416436" opacity="1.000000" style="stroke:black;fill:url(#radialffffff666666)"/>
<circle cx="202.204086" cy="108.960381" r="7.774094" opacity="1.000000" style="stroke:black;fill:url(#radialffffff0ccff)"/>
<circle cx="155.567708" cy="111.349010" r="8.349207" opacity="1.000000" style="stroke:black;fill:url(#radialffffff666666)"/>
<circle cx="289.356785" cy="110.002985" r="7.276596" opacity="1.000000" style="stroke:black;fill:url(#radialffffffffcc)"/>
<circle cx="336.044809" cy="111.381289" r="8.422834" opacity="1.000000" style="stroke:black;fill:url(#radialffffff666666)"/>
<circle cx="219.389307" cy="135.700120" r="3.663175" opacity="1.000000" style="stroke:black;fill:url(#radialffffffbfbfbf)"/>
<circle cx="347.445673" cy="142.898287" r="3.768748" opacity="1.000000" style="stroke:black;fill:url(#radialffffffbfbfbf)"/>
<circle cx="145.638756" cy="141.000295" r="3.933155" opacity="1.000000" style="stroke:black;fill:url(#radialffffffbfbfbf)"/>
<circle cx="142.743349" cy="83.934644" r="3.989324" opacity="1.000000" style="stroke:black;fill:url(#radialffffffbfbfbf)"/>
<circle cx="348.953092" cy="87.217396" r="4.133333" opacity="1.000000" style="stroke:black;fill:url(#radialffffffbfbfbf)"/>
</svg>
</g>
</svg>
