<?xml version="1.0"?>
<svg version="1.1" id="topsvg"
xmlns="http://www.w3.org/2000/svg" xmlns:xlink="http://www.w3.org/1999/xlink"
xmlns:cml="http://www.xml-cml.org/schema" x="0" y="0" width="200px" height="200px" viewBox="0 0 100 100">
<title>22 - Open Babel Depiction</title>
<defs>
<radialGradient id='radialffffff0ccff' cx='50%' cy='50%' r='50%' fx='30%' fy='30%'>
  <stop offset=' 0%' stop-color="rgb(255,255,255)"  stop-opacity='0.8'/>
  <stop offset='100%' stop-color="rgb(12,12,255)"  stop-opacity ='1.0'/>
</radialGradient>
<radialGradient id='radialffffff666666' cx='50%' cy='50%' r='50%' fx='30%' fy='30%'>
  <stop offset=' 0%' stop-color="rgb(255,255,255)"  stop-opacity='0.8'/>
  <stop offset='100%' stop-color="rgb(102,102,102)"  stop-opacity ='1.0'/>
</radialGradient>
<radialGradient id='radialffffffbfbfbf' cx='50%' cy='50%' r='50%' fx='30%' fy='30%'>
  <stop offset=' 0%' stop-color="rgb(255,255,255)"  stop-opacity='0.8'/>
  <stop offset='100%' stop-color="rgb(191,191,191)"  stop-opacity ='1.0'/>
</radialGradient>
<radialGradient id='radialffffffffcc' cx='50%' cy='50%' r='50%' fx='30%' fy='30%'>
  <stop offset=' 0%' stop-color="rgb(255,255,255)"  stop-opacity='0.8'/>
  <stop offset='100%' stop-color="rgb(255,12,12)"  stop-opacity ='1.0'/>
</radialGradient>
</defs>
<g transform="translate(0,0)">
<svg width="100" height="100" x="0" y="0" viewBox="0 0 407.35 183.981"
font-family="sans-serif" stroke="rgb(76,76,76)" stroke-width="2"  stroke-linecap="round">
<line x1="176.0" y1="100.5" x2="177.7" y2="71.7" stroke="rgb(76,76,76)"  stroke-width="2.0"/>
<line x1="170.6" y1="43.5" x2="177.7" y2="71.7" stroke="rgb(76,76,76)"  stroke-width="2.0"/>
<line x1="177.7" y1="71.7" x2="220.9" y2="67.7" stroke="rgb(76,76,76)"  stroke-width="2.0"/>
<line x1="177.7" y1="71.7" x2="143.8" y2="75.2" stroke="rgb(76,76,76)"  stroke-width="2.0"/>
<line x1="237.9" y1="40.0" x2="220.9" y2="67.7" stroke="rgb(76,76,76)"  stroke-width="2.0"/>
<line x1="220.9" y1="67.7" x2="238.9" y2="99.6" stroke="rgb(76,76,76)"  stroke-width="2.0"/>
<line x1="105.4" y1="84.1" x2="143.8" y2="75.2" stroke="rgb(76,76,76)"  stroke-width="2.0"/>
<line x1="105.4" y1="84.1" x2="70.0" y2="88.2" stroke="rgb(76,76,76)"  stroke-width="2.0"/>
<line x1="40.0" y1="95.4" x2="70.0" y2="88.2" stroke="rgb(76,76,76)"  stroke-width="2.0"/>
<line x1="142.0" y1="72.8" x2="148.5" y2="68.1" stroke="rgb(76,76,76)"  stroke-width="2.0"/>
<line x1="145.5" y1="77.7" x2="152.0" y2="73.0" stroke="rgb(76,76,76)"  stroke-width="2.0"/>
<line x1="241.5" y1="101.0" x2="223.3" y2="135.4" stroke="rgb(76,76,76)"  stroke-width="2.0"/>
<line x1="236.2" y1="98.2" x2="218.0" y2="132.6" stroke="rgb(76,76,76)"  stroke-width="2.0"/>
<line x1="238.9" y1="99.6" x2="284.8" y2="89.7" stroke="rgb(76,76,76)"  stroke-width="2.0"/>
<line x1="70.0" y1="88.2" x2="65.5" y2="58.3" stroke="rgb(76,76,76)"  stroke-width="2.0"/>
<line x1="70.0" y1="88.2" x2="76.2" y2="114.0" stroke="rgb(76,76,76)"  stroke-width="2.0"/>
<line x1="306.0" y1="57.5" x2="287.5" y2="91.1" stroke="rgb(76,76,76)"  stroke-width="2.0"/>
<line x1="300.8" y1="54.6" x2="282.2" y2="88.2" stroke="rgb(76,76,76)"  stroke-width="2.0"/>
<line x1="284.8" y1="89.7" x2="301.5" y2="122.3" stroke="rgb(76,76,76)"  stroke-width="2.0"/>
<line x1="367.3" y1="110.2" x2="344.8" y2="115.8" stroke="rgb(76,76,76)"  stroke-width="2.0"/>
<line x1="301.5" y1="122.3" x2="344.8" y2="115.8" stroke="rgb(76,76,76)"  stroke-width="2.0"/>
<line x1="344.8" y1="115.8" x2="355.7" y2="144.0" stroke="rgb(76,76,76)"  stroke-width="2.0"/>
<line x1="344.8" y1="115.8" x2="346.0" y2="88.0" stroke="rgb(76,76,76)"  stroke-width="2.0"/>
<circle cx="176.038310" cy="100.461830" r="2.066667" opacity="1.000000" style="stroke:black;fill:url(#radialffffffbfbfbf)"/>
<circle cx="170.610468" cy="43.535685" r="2.066667" opacity="1.000000" style="stroke:black;fill:url(#radialffffffbfbfbf)"/>
<circle cx="177.659236" cy="71.740443" r="5.066667" opacity="1.000000" style="stroke:black;fill:url(#radialffffff666666)"/>
<circle cx="237.882125" cy="40.000000" r="2.066667" opacity="1.000000" style="stroke:black;fill:url(#radialffffffbfbfbf)"/>
<circle cx="220.910836" cy="67.746249" r="4.733333" opacity="1.000000" style="stroke:black;fill:url(#radialffffff0ccff)"/>
<circle cx="105.356897" cy="84.071750" r="4.400000" opacity="1.000000" style="stroke:black;fill:url(#radialffffffffcc)"/>
<circle cx="40.000000" cy="95.389171" r="2.066667" opacity="1.000000" style="stroke:black;fill:url(#radialffffffbfbfbf)"/>
<circle cx="143.752177" cy="75.240609" r="5.066667" opacity="1.000000" style="stroke:black;fill:url(#radialffffff666666)"/>
<circle cx="238.866950" cy="99.567415" r="5.066667" opacity="1.000000" style="stroke:black;fill:url(#radialffffff666666)"/>
<circle cx="220.691269" cy="134.007248" r="4.405715" opacity="1.000000" style="stroke:black;fill:url(#radialffffffffcc)"/>
<circle cx="69.993588" cy="88.159583" r="5.087845" opacity="1.000000" style="stroke:black;fill:url(#radialffffff666666)"/>
<circle cx="303.377866" cy="56.073644" r="4.447694" opacity="1.000000" style="stroke:black;fill:url(#radialffffffffcc)"/>
<circle cx="284.847002" cy="89.657810" r="5.663850" opacity="1.000000" style="stroke:black;fill:url(#radialffffff666666)"/>
<circle cx="65.527969" cy="58.346815" r="2.620560" opacity="1.000000" style="stroke:black;fill:url(#radialffffffbfbfbf)"/>
<circle cx="367.349550" cy="110.190615" r="2.686252" opacity="1.000000" style="stroke:black;fill:url(#radialffffffbfbfbf)"/>
<circle cx="76.186688" cy="114.016904" r="2.769416" opacity="1.000000" style="stroke:black;fill:url(#radialffffffbfbfbf)"/>
<circle cx="150.232652" cy="70.581255" r="6.038739" opacity="1.000000" style="stroke:black;fill:url(#radialffffffffcc)"/>
<circle cx="301.517999" cy="122.286210" r="6.368128" opacity="1.000000" style="stroke:black;fill:url(#radialffffffffcc)"/>
<circle cx="344.827720" cy="115.799277" r="8.540286" opacity="1.000000" style="stroke:black;fill:url(#radialffffff666666)"/>
<circle cx="355.741524" cy="143.981432" r="4.024985" opacity="1.000000" style="stroke:black;fill:url(#radialffffffbfbfbf)"/>
<circle cx="346.006282" cy="88.036884" r="4.133333" opacity="1.000000" style="stroke:black;fill:url(#radialffffffbfbfbf)"/>
</svg>
</g>
</svg>
