<?xml version="1.0"?>
<svg version="1.1" id="topsvg"
xmlns="http://www.w3.org/2000/svg" xmlns:xlink="http://www.w3.org/1999/xlink"
xmlns:cml="http://www.xml-cml.org/schema" x="0" y="0" width="200px" height="200px" viewBox="0 0 100 100">
<title>21 - Open Babel Depiction</title>
<defs>
<radialGradient id='radialffffff0ccff' cx='50%' cy='50%' r='50%' fx='30%' fy='30%'>
  <stop offset=' 0%' stop-color="rgb(255,255,255)"  stop-opacity='0.8'/>
  <stop offset='100%' stop-color="rgb(12,12,255)"  stop-opacity ='1.0'/>
</radialGradient>
<radialGradient id='radialffffff666666' cx='50%' cy='50%' r='50%' fx='30%' fy='30%'>
  <stop offset=' 0%' stop-color="rgb(255,255,255)"  stop-opacity='0.8'/>
  <stop offset='100%' stop-color="rgb(102,102,102)"  stop-opacity ='1.0'/>
</radialGradient>
<radialGradient id='radialffffffbfbfbf' cx='50%' cy='50%' r='50%' fx='30%' fy='30%'>
  <stop offset=' 0%' stop-color="rgb(255,255,255)"  stop-opacity='0.8'/>
  <stop offset='100%' stop-color="rgb(191,191,191)"  stop-opacity ='1.0'/>
</radialGradient>
<radialGradient id='radialffffffffcc' cx='50%' cy='50%' r='50%' fx='30%' fy='30%'>
  <stop offset=' 0%' stop-color="rgb(255,255,255)"  stop-opacity='0.8'/>
  <stop offset='100%' stop-color="rgb(255,12,12)"  stop-opacity ='1.0'/>
</radialGradient>
</defs>
<g transform="translate(0,0)">
<svg width="100" height="100" x="0" y="0" viewBox="0 0 389.302 210.21"
font-family="sans-serif" stroke="rgb(76,76,76)" stroke-width="2"  stroke-linecap="round">
<line x1="203.7" y1="122.4" x2="223.7" y2="132.7" stroke="rgb(76,76,76)"  stroke-width="2.0"/>
<line x1="200.9" y1="127.8" x2="221.0" y2="138.0" stroke="rgb(76,76,76)"  stroke-width="2.0"/>
<line x1="294.5" y1="128.3" x2="273.4" y2="138.2" stroke="rgb(76,76,76)"  stroke-width="2.0"/>
<line x1="291.9" y1="122.9" x2="270.8" y2="132.8" stroke="rgb(76,76,76)"  stroke-width="2.0"/>
<line x1="222.4" y1="135.4" x2="272.1" y2="135.5" stroke="rgb(76,76,76)"  stroke-width="2.0"/>
<line x1="222.4" y1="135.4" x2="202.4" y2="146.8" stroke="rgb(76,76,76)"  stroke-width="2.0"/>
<line x1="272.1" y1="135.5" x2="289.6" y2="147.4" stroke="rgb(76,76,76)"  stroke-width="2.0"/>
<line x1="143.0" y1="165.5" x2="155.8" y2="147.1" stroke="rgb(76,76,76)"  stroke-width="2.0"/>
<line x1="349.2" y1="170.2" x2="336.3" y2="147.9" stroke="rgb(76,76,76)"  stroke-width="2.0"/>
<line x1="72.7" y1="48.0" x2="73.2" y2="62.4" stroke="rgb(76,76,76)"  stroke-width="2.0"/>
<line x1="158.0" y1="71.3" x2="139.0" y2="104.0" stroke="rgb(76,76,76)"  stroke-width="2.0"/>
<line x1="152.8" y1="68.3" x2="133.9" y2="101.0" stroke="rgb(76,76,76)"  stroke-width="2.0"/>
<line x1="349.3" y1="116.0" x2="336.3" y2="147.9" stroke="rgb(76,76,76)"  stroke-width="2.0"/>
<line x1="202.4" y1="146.8" x2="155.8" y2="147.1" stroke="rgb(76,76,76)"  stroke-width="2.0"/>
<line x1="202.4" y1="146.8" x2="219.6" y2="155.0" stroke="rgb(76,76,76)"  stroke-width="2.0"/>
<line x1="289.6" y1="147.4" x2="336.3" y2="147.9" stroke="rgb(76,76,76)"  stroke-width="2.0"/>
<line x1="136.4" y1="102.5" x2="155.8" y2="147.1" stroke="rgb(76,76,76)"  stroke-width="2.0"/>
<line x1="136.4" y1="102.5" x2="95.4" y2="103.5" stroke="rgb(76,76,76)"  stroke-width="2.0"/>
<line x1="155.8" y1="147.1" x2="145.8" y2="163.8" stroke="rgb(76,76,76)"  stroke-width="2.0"/>
<line x1="336.3" y1="147.9" x2="347.7" y2="157.9" stroke="rgb(76,76,76)"  stroke-width="2.0"/>
<line x1="95.4" y1="103.5" x2="73.2" y2="62.4" stroke="rgb(76,76,76)"  stroke-width="2.0"/>
<line x1="73.2" y1="62.4" x2="40.0" y2="66.4" stroke="rgb(76,76,76)"  stroke-width="2.0"/>
<line x1="73.2" y1="62.4" x2="89.1" y2="40.0" stroke="rgb(76,76,76)"  stroke-width="2.0"/>
<circle cx="202.294670" cy="125.109560" r="4.400000" opacity="1.000000" style="stroke:black;fill:url(#radialffffffffcc)"/>
<circle cx="293.182138" cy="125.629249" r="4.400000" opacity="1.000000" style="stroke:black;fill:url(#radialffffffffcc)"/>
<circle cx="222.359183" cy="135.377452" r="5.066667" opacity="1.000000" style="stroke:black;fill:url(#radialffffff666666)"/>
<circle cx="272.123437" cy="135.513023" r="5.066667" opacity="1.000000" style="stroke:black;fill:url(#radialffffff666666)"/>
<circle cx="143.027532" cy="165.542008" r="2.066667" opacity="1.000000" style="stroke:black;fill:url(#radialffffffbfbfbf)"/>
<circle cx="349.214939" cy="170.209525" r="2.066667" opacity="1.000000" style="stroke:black;fill:url(#radialffffffbfbfbf)"/>
<circle cx="72.701671" cy="48.037426" r="2.066667" opacity="1.000000" style="stroke:black;fill:url(#radialffffffbfbfbf)"/>
<circle cx="155.393547" cy="69.819172" r="5.013614" opacity="1.000000" style="stroke:black;fill:url(#radialffffffffcc)"/>
<circle cx="349.302092" cy="115.977882" r="2.538259" opacity="1.000000" style="stroke:black;fill:url(#radialffffffbfbfbf)"/>
<circle cx="202.427013" cy="146.791242" r="6.176393" opacity="1.000000" style="stroke:black;fill:url(#radialffffff0ccff)"/>
<circle cx="289.599189" cy="147.381944" r="5.842656" opacity="1.000000" style="stroke:black;fill:url(#radialffffffffcc)"/>
<circle cx="136.449109" cy="102.507931" r="6.784335" opacity="1.000000" style="stroke:black;fill:url(#radialffffff666666)"/>
<circle cx="155.784121" cy="147.149537" r="6.829971" opacity="1.000000" style="stroke:black;fill:url(#radialffffff666666)"/>
<circle cx="336.287272" cy="147.901633" r="6.862964" opacity="1.000000" style="stroke:black;fill:url(#radialffffff666666)"/>
<circle cx="95.442098" cy="103.505347" r="6.934388" opacity="1.000000" style="stroke:black;fill:url(#radialffffffffcc)"/>
<circle cx="73.201992" cy="62.433779" r="8.048265" opacity="1.000000" style="stroke:black;fill:url(#radialffffff666666)"/>
<circle cx="40.000000" cy="66.423441" r="3.700668" opacity="1.000000" style="stroke:black;fill:url(#radialffffffbfbfbf)"/>
<circle cx="219.567065" cy="154.951327" r="3.743558" opacity="1.000000" style="stroke:black;fill:url(#radialffffffbfbfbf)"/>
<circle cx="145.790599" cy="163.760217" r="3.940521" opacity="1.000000" style="stroke:black;fill:url(#radialffffffbfbfbf)"/>
<circle cx="347.681695" cy="157.930662" r="4.033217" opacity="1.000000" style="stroke:black;fill:url(#radialffffffbfbfbf)"/>
<circle cx="89.131589" cy="40.000000" r="4.133333" opacity="1.000000" style="stroke:black;fill:url(#radialffffffbfbfbf)"/>
</svg>
</g>
</svg>
