<?xml version="1.0"?>
<svg version="1.1" id="topsvg"
xmlns="http://www.w3.org/2000/svg" xmlns:xlink="http://www.w3.org/1999/xlink"
xmlns:cml="http://www.xml-cml.org/schema" x="0" y="0" width="200px" height="200px" viewBox="0 0 100 100">
<title>29 - Open Babel Depiction</title>
<defs>
<radialGradient id='radialffffff0ccff' cx='50%' cy='50%' r='50%' fx='30%' fy='30%'>
  <stop offset=' 0%' stop-color="rgb(255,255,255)"  stop-opacity='0.8'/>
  <stop offset='100%' stop-color="rgb(12,12,255)"  stop-opacity ='1.0'/>
</radialGradient>
<radialGradient id='radialffffff666666' cx='50%' cy='50%' r='50%' fx='30%' fy='30%'>
  <stop offset=' 0%' stop-color="rgb(255,255,255)"  stop-opacity='0.8'/>
  <stop offset='100%' stop-color="rgb(102,102,102)"  stop-opacity ='1.0'/>
</radialGradient>
<radialGradient id='radialffffffbfbfbf' cx='50%' cy='50%' r='50%' fx='30%' fy='30%'>
  <stop offset=' 0%' stop-color="rgb(255,255,255)"  stop-opacity='0.8'/>
  <stop offset='100%' stop-color="rgb(191,191,191)"  stop-opacity ='1.0'/>
</radialGradient>
<radialGradient id='radialffffffffcc' cx='50%' cy='50%' r='50%' fx='30%' fy='30%'>
  <stop offset=' 0%' stop-color="rgb(255,255,255)"  stop-opacity='0.8'/>
  <stop offset='100%' stop-color="rgb(255,12,12)"  stop-opacity ='1.0'/>
</radialGradient>
</defs>
<g transform="translate(0,0)">
<svg width="100" height="100" x="0" y="0" viewBox="0 0 401.34 218.327"
font-family="sans-serif" stroke="rgb(76,76,76)" stroke-width="2"  stroke-linecap="round">
<line x1="154.2" y1="53.5" x2="162.6" y2="81.5" stroke="rgb(76,76,76)"  stroke-width="2.0"/>
<line x1="154.0" y1="110.6" x2="162.6" y2="81.5" stroke="rgb(76,76,76)"  stroke-width="2.0"/>
<line x1="162.6" y1="81.5" x2="208.7" y2="81.5" stroke="rgb(76,76,76)"  stroke-width="2.0"/>
<line x1="162.6" y1="81.5" x2="136.7" y2="80.2" stroke="rgb(76,76,76)"  stroke-width="2.0"/>
<line x1="208.7" y1="81.5" x2="224.9" y2="52.8" stroke="rgb(76,76,76)"  stroke-width="2.0"/>
<line x1="208.7" y1="81.5" x2="230.1" y2="118.1" stroke="rgb(76,76,76)"  stroke-width="2.0"/>
<line x1="361.3" y1="131.8" x2="344.8" y2="146.4" stroke="rgb(76,76,76)"  stroke-width="2.0"/>
<line x1="232.9" y1="119.4" x2="215.8" y2="155.2" stroke="rgb(76,76,76)"  stroke-width="2.0"/>
<line x1="227.4" y1="116.8" x2="210.4" y2="152.7" stroke="rgb(76,76,76)"  stroke-width="2.0"/>
<line x1="230.1" y1="118.1" x2="278.7" y2="111.8" stroke="rgb(76,76,76)"  stroke-width="2.0"/>
<line x1="276.0" y1="110.5" x2="293.5" y2="75.6" stroke="rgb(76,76,76)"  stroke-width="2.0"/>
<line x1="281.4" y1="113.2" x2="298.9" y2="78.2" stroke="rgb(76,76,76)"  stroke-width="2.0"/>
<line x1="278.7" y1="111.8" x2="298.8" y2="149.2" stroke="rgb(76,76,76)"  stroke-width="2.0"/>
<line x1="298.8" y1="149.2" x2="344.8" y2="146.4" stroke="rgb(76,76,76)"  stroke-width="2.0"/>
<line x1="98.4" y1="61.9" x2="136.7" y2="80.2" stroke="rgb(76,76,76)"  stroke-width="2.0"/>
<line x1="98.4" y1="61.9" x2="70.4" y2="58.9" stroke="rgb(76,76,76)"  stroke-width="2.0"/>
<line x1="344.8" y1="146.4" x2="358.4" y2="178.3" stroke="rgb(76,76,76)"  stroke-width="2.0"/>
<line x1="344.8" y1="146.4" x2="351.2" y2="126.9" stroke="rgb(76,76,76)"  stroke-width="2.0"/>
<line x1="139.0" y1="78.3" x2="150.9" y2="92.3" stroke="rgb(76,76,76)"  stroke-width="2.0"/>
<line x1="134.4" y1="82.2" x2="146.3" y2="96.2" stroke="rgb(76,76,76)"  stroke-width="2.0"/>
<line x1="40.0" y1="43.6" x2="70.4" y2="58.9" stroke="rgb(76,76,76)"  stroke-width="2.0"/>
<line x1="70.4" y1="58.9" x2="63.4" y2="90.9" stroke="rgb(76,76,76)"  stroke-width="2.0"/>
<line x1="70.4" y1="58.9" x2="85.6" y2="40.0" stroke="rgb(76,76,76)"  stroke-width="2.0"/>
<circle cx="154.178199" cy="53.474326" r="2.066667" opacity="1.000000" style="stroke:black;fill:url(#radialffffffbfbfbf)"/>
<circle cx="153.990921" cy="110.632847" r="2.066667" opacity="1.000000" style="stroke:black;fill:url(#radialffffffbfbfbf)"/>
<circle cx="162.641225" cy="81.520813" r="5.066667" opacity="1.000000" style="stroke:black;fill:url(#radialffffff666666)"/>
<circle cx="208.721287" cy="81.453005" r="4.733333" opacity="1.000000" style="stroke:black;fill:url(#radialffffff0ccff)"/>
<circle cx="224.936975" cy="52.799479" r="2.066667" opacity="1.000000" style="stroke:black;fill:url(#radialffffffbfbfbf)"/>
<circle cx="361.339900" cy="131.756508" r="2.066667" opacity="1.000000" style="stroke:black;fill:url(#radialffffffbfbfbf)"/>
<circle cx="230.148468" cy="118.075531" r="5.066667" opacity="1.000000" style="stroke:black;fill:url(#radialffffff666666)"/>
<circle cx="213.070656" cy="153.945716" r="4.400000" opacity="1.000000" style="stroke:black;fill:url(#radialffffffffcc)"/>
<circle cx="278.692204" cy="111.811407" r="5.066667" opacity="1.000000" style="stroke:black;fill:url(#radialffffff666666)"/>
<circle cx="296.186548" cy="76.903443" r="4.400000" opacity="1.000000" style="stroke:black;fill:url(#radialffffffffcc)"/>
<circle cx="298.824584" cy="149.179815" r="4.400000" opacity="1.000000" style="stroke:black;fill:url(#radialffffffffcc)"/>
<circle cx="98.440407" cy="61.905062" r="4.400000" opacity="1.000000" style="stroke:black;fill:url(#radialffffffffcc)"/>
<circle cx="344.759344" cy="146.396478" r="5.066667" opacity="1.000000" style="stroke:black;fill:url(#radialffffff666666)"/>
<circle cx="136.670940" cy="80.229241" r="5.281212" opacity="1.000000" style="stroke:black;fill:url(#radialffffff666666)"/>
<circle cx="358.430634" cy="178.327368" r="2.234511" opacity="1.000000" style="stroke:black;fill:url(#radialffffffbfbfbf)"/>
<circle cx="40.000000" cy="43.597028" r="2.937112" opacity="1.000000" style="stroke:black;fill:url(#radialffffffbfbfbf)"/>
<circle cx="351.230120" cy="126.880824" r="3.053794" opacity="1.000000" style="stroke:black;fill:url(#radialffffffbfbfbf)"/>
<circle cx="70.445582" cy="58.944133" r="7.932852" opacity="1.000000" style="stroke:black;fill:url(#radialffffff666666)"/>
<circle cx="148.614753" cy="94.210508" r="7.191575" opacity="1.000000" style="stroke:black;fill:url(#radialffffffffcc)"/>
<circle cx="63.412973" cy="90.878252" r="3.689166" opacity="1.000000" style="stroke:black;fill:url(#radialffffffbfbfbf)"/>
<circle cx="85.553747" cy="40.000000" r="4.133333" opacity="1.000000" style="stroke:black;fill:url(#radialffffffbfbfbf)"/>
</svg>
</g>
</svg>
