<?xml version="1.0"?>
<svg version="1.1" id="topsvg"
xmlns="http://www.w3.org/2000/svg" xmlns:xlink="http://www.w3.org/1999/xlink"
xmlns:cml="http://www.xml-cml.org/schema" x="0" y="0" width="200px" height="200px" viewBox="0 0 100 100">
<title>8 - Open Babel Depiction</title>
<defs>
<radialGradient id='radialffffff0ccff' cx='50%' cy='50%' r='50%' fx='30%' fy='30%'>
  <stop offset=' 0%' stop-color="rgb(255,255,255)"  stop-opacity='0.8'/>
  <stop offset='100%' stop-color="rgb(12,12,255)"  stop-opacity ='1.0'/>
</radialGradient>
<radialGradient id='radialffffff666666' cx='50%' cy='50%' r='50%' fx='30%' fy='30%'>
  <stop offset=' 0%' stop-color="rgb(255,255,255)"  stop-opacity='0.8'/>
  <stop offset='100%' stop-color="rgb(102,102,102)"  stop-opacity ='1.0'/>
</radialGradient>
<radialGradient id='radialffffffbfbfbf' cx='50%' cy='50%' r='50%' fx='30%' fy='30%'>
  <stop offset=' 0%' stop-color="rgb(255,255,255)"  stop-opacity='0.8'/>
  <stop offset='100%' stop-color="rgb(191,191,191)"  stop-opacity ='1.0'/>
</radialGradient>
<radialGradient id='radialffffffffcc' cx='50%' cy='50%' r='50%' fx='30%' fy='30%'>
  <stop offset=' 0%' stop-color="rgb(255,255,255)"  stop-opacity='0.8'/>
  <stop offset='100%' stop-color="rgb(255,12,12)"  stop-opacity ='1.0'/>
</radialGradient>
</defs>
<g transform="translate(0,0)">
<svg width="100" height="100" x="0" y="0" viewBox="0 0 333.935 263.772"
font-family="sans-serif" stroke="rgb(76,76,76)" stroke-width="2"  stroke-linecap="round">
<line x1="70.7" y1="80.3" x2="90.6" y2="64.1" stroke="rgb(76,76,76)"  stroke-width="2.0"/>
<line x1="116.6" y1="47.4" x2="90.6" y2="64.1" stroke="rgb(76,76,76)"  stroke-width="2.0"/>
<line x1="90.6" y1="64.1" x2="70.7" y2="40.0" stroke="rgb(76,76,76)"  stroke-width="2.0"/>
<line x1="90.6" y1="64.1" x2="107.7" y2="94.7" stroke="rgb(76,76,76)"  stroke-width="2.0"/>
<line x1="107.7" y1="94.7" x2="78.7" y2="117.1" stroke="rgb(76,76,76)"  stroke-width="2.0"/>
<line x1="40.4" y1="109.5" x2="79.0" y2="114.1" stroke="rgb(76,76,76)"  stroke-width="2.0"/>
<line x1="39.6" y1="115.5" x2="78.3" y2="120.0" stroke="rgb(76,76,76)"  stroke-width="2.0"/>
<line x1="78.7" y1="117.1" x2="99.0" y2="148.3" stroke="rgb(76,76,76)"  stroke-width="2.0"/>
<line x1="163.7" y1="130.1" x2="145.8" y2="149.5" stroke="rgb(76,76,76)"  stroke-width="2.0"/>
<line x1="87.3" y1="180.9" x2="99.0" y2="148.3" stroke="rgb(76,76,76)"  stroke-width="2.0"/>
<line x1="99.0" y1="148.3" x2="145.8" y2="149.5" stroke="rgb(76,76,76)"  stroke-width="2.0"/>
<line x1="99.0" y1="148.3" x2="87.2" y2="140.6" stroke="rgb(76,76,76)"  stroke-width="2.0"/>
<line x1="145.8" y1="149.5" x2="166.2" y2="176.2" stroke="rgb(76,76,76)"  stroke-width="2.0"/>
<line x1="237.1" y1="151.4" x2="218.0" y2="175.5" stroke="rgb(76,76,76)"  stroke-width="2.0"/>
<line x1="232.4" y1="147.7" x2="213.3" y2="171.7" stroke="rgb(76,76,76)"  stroke-width="2.0"/>
<line x1="293.8" y1="209.2" x2="281.4" y2="200.7" stroke="rgb(76,76,76)"  stroke-width="2.0"/>
<line x1="215.7" y1="173.6" x2="166.2" y2="176.2" stroke="rgb(76,76,76)"  stroke-width="2.0"/>
<line x1="215.7" y1="173.6" x2="234.7" y2="200.8" stroke="rgb(76,76,76)"  stroke-width="2.0"/>
<line x1="168.6" y1="178.0" x2="149.9" y2="202.7" stroke="rgb(76,76,76)"  stroke-width="2.0"/>
<line x1="163.8" y1="174.4" x2="145.1" y2="199.1" stroke="rgb(76,76,76)"  stroke-width="2.0"/>
<line x1="281.4" y1="200.7" x2="234.7" y2="200.8" stroke="rgb(76,76,76)"  stroke-width="2.0"/>
<line x1="281.4" y1="200.7" x2="293.7" y2="168.9" stroke="rgb(76,76,76)"  stroke-width="2.0"/>
<line x1="281.4" y1="200.7" x2="293.9" y2="223.8" stroke="rgb(76,76,76)"  stroke-width="2.0"/>
<circle cx="70.749729" cy="80.320687" r="2.066667" opacity="1.000000" style="stroke:black;fill:url(#radialffffffbfbfbf)"/>
<circle cx="116.583805" cy="47.430808" r="2.066667" opacity="1.000000" style="stroke:black;fill:url(#radialffffffbfbfbf)"/>
<circle cx="90.585661" cy="64.087180" r="5.066667" opacity="1.000000" style="stroke:black;fill:url(#radialffffff666666)"/>
<circle cx="70.743273" cy="40.000000" r="2.066667" opacity="1.000000" style="stroke:black;fill:url(#radialffffffbfbfbf)"/>
<circle cx="107.687494" cy="94.743298" r="4.400000" opacity="1.000000" style="stroke:black;fill:url(#radialffffffffcc)"/>
<circle cx="40.000000" cy="112.490727" r="4.400000" opacity="1.000000" style="stroke:black;fill:url(#radialffffffffcc)"/>
<circle cx="78.697014" cy="117.051862" r="5.066667" opacity="1.000000" style="stroke:black;fill:url(#radialffffff666666)"/>
<circle cx="163.712300" cy="130.050934" r="2.066667" opacity="1.000000" style="stroke:black;fill:url(#radialffffffbfbfbf)"/>
<circle cx="87.280210" cy="180.872237" r="2.261106" opacity="1.000000" style="stroke:black;fill:url(#radialffffffbfbfbf)"/>
<circle cx="98.984863" cy="148.340664" r="5.963285" opacity="1.000000" style="stroke:black;fill:url(#radialffffff666666)"/>
<circle cx="145.767964" cy="149.502736" r="5.633010" opacity="1.000000" style="stroke:black;fill:url(#radialffffff0ccff)"/>
<circle cx="234.747209" cy="149.583436" r="5.243394" opacity="1.000000" style="stroke:black;fill:url(#radialffffffffcc)"/>
<circle cx="293.767580" cy="209.204210" r="2.902833" opacity="1.000000" style="stroke:black;fill:url(#radialffffffbfbfbf)"/>
<circle cx="215.663397" cy="173.606056" r="7.362452" opacity="1.000000" style="stroke:black;fill:url(#radialffffff666666)"/>
<circle cx="166.172020" cy="176.198124" r="7.503608" opacity="1.000000" style="stroke:black;fill:url(#radialffffff666666)"/>
<circle cx="87.247931" cy="140.551550" r="3.159437" opacity="1.000000" style="stroke:black;fill:url(#radialffffffbfbfbf)"/>
<circle cx="281.362456" cy="200.650066" r="8.857258" opacity="1.000000" style="stroke:black;fill:url(#radialffffff666666)"/>
<circle cx="234.650370" cy="200.805009" r="7.697520" opacity="1.000000" style="stroke:black;fill:url(#radialffffffffcc)"/>
<circle cx="147.527213" cy="200.930900" r="7.700750" opacity="1.000000" style="stroke:black;fill:url(#radialffffffffcc)"/>
<circle cx="293.738528" cy="168.870611" r="3.800514" opacity="1.000000" style="stroke:black;fill:url(#radialffffffbfbfbf)"/>
<circle cx="293.935435" cy="223.772080" r="4.133333" opacity="1.000000" style="stroke:black;fill:url(#radialffffffbfbfbf)"/>
</svg>
</g>
</svg>
