<?xml version="1.0"?>
<svg version="1.1" id="topsvg"
xmlns="http://www.w3.org/2000/svg" xmlns:xlink="http://www.w3.org/1999/xlink"
xmlns:cml="http://www.xml-cml.org/schema" x="0" y="0" width="200px" height="200px" viewBox="0 0 100 100">
<title>0 - Open Babel Depiction</title>
<defs>
<radialGradient id='radialffffff0ccff' cx='50%' cy='50%' r='50%' fx='30%' fy='30%'>
  <stop offset=' 0%' stop-color="rgb(255,255,255)"  stop-opacity='0.8'/>
  <stop offset='100%' stop-color="rgb(12,12,255)"  stop-opacity ='1.0'/>
</radialGradient>
<radialGradient id='radialffffff666666' cx='50%' cy='50%' r='50%' fx='30%' fy='30%'>
  <stop offset=' 0%' stop-color="rgb(255,255,255)"  stop-opacity='0.8'/>
  <stop offset='100%' stop-color="rgb(102,102,102)"  stop-opacity ='1.0'/>
</radialGradient>
<radialGradient id='radialffffffbfbfbf' cx='50%' cy='50%' r='50%' fx='30%' fy='30%'>
  <stop offset=' 0%' stop-color="rgb(255,255,255)"  stop-opacity='0.8'/>
  <stop offset='100%' stop-color="rgb(191,191,191)"  stop-opacity ='1.0'/>
</radialGradient>
<radialGradient id='radialffffffffcc' cx='50%' cy='50%' r='50%' fx='30%' fy='30%'>
  <stop offset=' 0%' stop-color="rgb(255,255,255)"  stop-opacity='0.8'/>
  <stop offset='100%' stop-color="rgb(255,12,12)"  stop-opacity ='1.0'/>
</radialGradient>
</defs>
<g transform="translate(0,0)">
<svg width="100" height="100" x="0" y="0" viewBox="0 0 397.532 200.057"
font-family="sans-serif" stroke="rgb(76,76,76)" stroke-width="2"  stroke-linecap="round">
<line x1="84.7" y1="115.1" x2="74.2" y2="121.1" stroke="rgb(76,76,76)"  stroke-width="2.0"/>
<line x1="74.2" y1="121.1" x2="40.0" y2="113.3" stroke="rgb(76,76,76)"  stroke-width="2.0"/>
<line x1="74.2" y1="121.1" x2="78.0" y2="155.4" stroke="rgb(76,76,76)"  stroke-width="2.0"/>
<line x1="74.2" y1="121.1" x2="99.0" y2="95.5" stroke="rgb(76,76,76)"  stroke-width="2.0"/>
<line x1="157.1" y1="130.0" x2="138.9" y2="104.1" stroke="rgb(76,76,76)"  stroke-width="2.0"/>
<line x1="162.0" y1="126.6" x2="143.8" y2="100.7" stroke="rgb(76,76,76)"  stroke-width="2.0"/>
<line x1="99.0" y1="95.5" x2="141.3" y2="102.4" stroke="rgb(76,76,76)"  stroke-width="2.0"/>
<line x1="141.3" y1="102.4" x2="163.3" y2="73.8" stroke="rgb(76,76,76)"  stroke-width="2.0"/>
<line x1="228.2" y1="63.9" x2="209.7" y2="79.4" stroke="rgb(76,76,76)"  stroke-width="2.0"/>
<line x1="155.9" y1="40.0" x2="163.3" y2="73.8" stroke="rgb(76,76,76)"  stroke-width="2.0"/>
<line x1="300.2" y1="90.4" x2="280.0" y2="110.0" stroke="rgb(76,76,76)"  stroke-width="2.0"/>
<line x1="296.1" y1="86.1" x2="275.8" y2="105.7" stroke="rgb(76,76,76)"  stroke-width="2.0"/>
<line x1="163.3" y1="73.8" x2="209.7" y2="79.4" stroke="rgb(76,76,76)"  stroke-width="2.0"/>
<line x1="163.3" y1="73.8" x2="150.3" y2="80.9" stroke="rgb(76,76,76)"  stroke-width="2.0"/>
<line x1="209.7" y1="79.4" x2="228.6" y2="105.4" stroke="rgb(76,76,76)"  stroke-width="2.0"/>
<line x1="352.2" y1="151.1" x2="341.9" y2="138.3" stroke="rgb(76,76,76)"  stroke-width="2.0"/>
<line x1="277.9" y1="107.9" x2="228.6" y2="105.4" stroke="rgb(76,76,76)"  stroke-width="2.0"/>
<line x1="277.9" y1="107.9" x2="295.4" y2="133.9" stroke="rgb(76,76,76)"  stroke-width="2.0"/>
<line x1="230.7" y1="107.5" x2="210.8" y2="127.9" stroke="rgb(76,76,76)"  stroke-width="2.0"/>
<line x1="226.4" y1="103.3" x2="206.5" y2="123.7" stroke="rgb(76,76,76)"  stroke-width="2.0"/>
<line x1="341.9" y1="138.3" x2="295.4" y2="133.9" stroke="rgb(76,76,76)"  stroke-width="2.0"/>
<line x1="341.9" y1="138.3" x2="357.5" y2="107.2" stroke="rgb(76,76,76)"  stroke-width="2.0"/>
<line x1="341.9" y1="138.3" x2="353.3" y2="160.1" stroke="rgb(76,76,76)"  stroke-width="2.0"/>
<circle cx="84.719128" cy="115.134592" r="2.066667" opacity="1.000000" style="stroke:black;fill:url(#radialffffffbfbfbf)"/>
<circle cx="74.173808" cy="121.120820" r="5.066667" opacity="1.000000" style="stroke:black;fill:url(#radialffffff666666)"/>
<circle cx="40.000000" cy="113.278022" r="2.066667" opacity="1.000000" style="stroke:black;fill:url(#radialffffffbfbfbf)"/>
<circle cx="77.980585" cy="155.404408" r="2.066667" opacity="1.000000" style="stroke:black;fill:url(#radialffffffbfbfbf)"/>
<circle cx="159.521151" cy="128.301711" r="4.400000" opacity="1.000000" style="stroke:black;fill:url(#radialffffffffcc)"/>
<circle cx="98.977587" cy="95.525981" r="4.400000" opacity="1.000000" style="stroke:black;fill:url(#radialffffffffcc)"/>
<circle cx="141.336449" cy="102.393677" r="5.066667" opacity="1.000000" style="stroke:black;fill:url(#radialffffff666666)"/>
<circle cx="228.220709" cy="63.893252" r="2.066667" opacity="1.000000" style="stroke:black;fill:url(#radialffffffbfbfbf)"/>
<circle cx="155.895189" cy="40.000000" r="2.107313" opacity="1.000000" style="stroke:black;fill:url(#radialffffffbfbfbf)"/>
<circle cx="298.153675" cy="88.283742" r="4.757741" opacity="1.000000" style="stroke:black;fill:url(#radialffffffffcc)"/>
<circle cx="163.321470" cy="73.841240" r="5.595369" opacity="1.000000" style="stroke:black;fill:url(#radialffffff666666)"/>
<circle cx="209.693752" cy="79.449697" r="5.268354" opacity="1.000000" style="stroke:black;fill:url(#radialffffff0ccff)"/>
<circle cx="352.152425" cy="151.148826" r="2.798911" opacity="1.000000" style="stroke:black;fill:url(#radialffffffbfbfbf)"/>
<circle cx="277.934818" cy="107.863294" r="7.054564" opacity="1.000000" style="stroke:black;fill:url(#radialffffff666666)"/>
<circle cx="228.553277" cy="105.393248" r="7.309891" opacity="1.000000" style="stroke:black;fill:url(#radialffffff666666)"/>
<circle cx="150.280274" cy="80.938182" r="3.046163" opacity="1.000000" style="stroke:black;fill:url(#radialffffffbfbfbf)"/>
<circle cx="341.933217" cy="138.291674" r="8.670190" opacity="1.000000" style="stroke:black;fill:url(#radialffffff666666)"/>
<circle cx="295.438239" cy="133.939227" r="7.612483" opacity="1.000000" style="stroke:black;fill:url(#radialffffffffcc)"/>
<circle cx="208.696047" cy="125.767089" r="7.750289" opacity="1.000000" style="stroke:black;fill:url(#radialffffffffcc)"/>
<circle cx="357.531636" cy="107.156183" r="3.646423" opacity="1.000000" style="stroke:black;fill:url(#radialffffffbfbfbf)"/>
<circle cx="353.285740" cy="160.057135" r="4.133333" opacity="1.000000" style="stroke:black;fill:url(#radialffffffbfbfbf)"/>
</svg>
</g>
</svg>
