<?xml version="1.0"?>
<svg version="1.1" id="topsvg"
xmlns="http://www.w3.org/2000/svg" xmlns:xlink="http://www.w3.org/1999/xlink"
xmlns:cml="http://www.xml-cml.org/schema" x="0" y="0" width="200px" height="200px" viewBox="0 0 100 100">
<title>3 - Open Babel Depiction</title>
<defs>
<radialGradient id='radialffffff0ccff' cx='50%' cy='50%' r='50%' fx='30%' fy='30%'>
  <stop offset=' 0%' stop-color="rgb(255,255,255)"  stop-opacity='0.8'/>
  <stop offset='100%' stop-color="rgb(12,12,255)"  stop-opacity ='1.0'/>
</radialGradient>
<radialGradient id='radialffffff666666' cx='50%' cy='50%' r='50%' fx='30%' fy='30%'>
  <stop offset=' 0%' stop-color="rgb(255,255,255)"  stop-opacity='0.8'/>
  <stop offset='100%' stop-color="rgb(102,102,102)"  stop-opacity ='1.0'/>
</radialGradient>
<radialGradient id='radialffffffbfbfbf' cx='50%' cy='50%' r='50%' fx='30%' fy='30%'>
  <stop offset=' 0%' stop-color="rgb(255,255,255)"  stop-opacity='0.8'/>
  <stop offset='100%' stop-color="rgb(191,191,191)"  stop-opacity ='1.0'/>
</radialGradient>
<radialGradient id='radialffffffffcc' cx='50%' cy='50%' r='50%' fx='30%' fy='30%'>
  <stop offset=' 0%' stop-color="rgb(255,255,255)"  stop-opacity='0.8'/>
  <stop offset='100%' stop-color="rgb(255,12,12)"  stop-opacity ='1.0'/>
</radialGradient>
</defs>
<g transform="translate(0,0)">
<svg width="100" height="100" x="0" y="0" viewBox="0 0 397.672 198.448"
font-family="sans-serif" stroke="rgb(76,76,76)" stroke-width="2"  stroke-linecap="round">
<line x1="212.5" y1="67.5" x2="231.9" y2="91.8" stroke="rgb(76,76,76)"  stroke-width="2.0"/>
<line x1="207.8" y1="71.2" x2="227.2" y2="95.6" stroke="rgb(76,76,76)"  stroke-width="2.0"/>
<line x1="303.0" y1="69.4" x2="281.5" y2="94.2" stroke="rgb(76,76,76)"  stroke-width="2.0"/>
<line x1="298.5" y1="65.4" x2="276.9" y2="90.3" stroke="rgb(76,76,76)"  stroke-width="2.0"/>
<line x1="150.9" y1="117.1" x2="162.4" y2="125.1" stroke="rgb(76,76,76)"  stroke-width="2.0"/>
<line x1="229.6" y1="93.7" x2="279.2" y2="92.2" stroke="rgb(76,76,76)"  stroke-width="2.0"/>
<line x1="229.6" y1="93.7" x2="209.0" y2="122.2" stroke="rgb(76,76,76)"  stroke-width="2.0"/>
<line x1="279.2" y1="92.2" x2="296.0" y2="120.5" stroke="rgb(76,76,76)"  stroke-width="2.0"/>
<line x1="357.7" y1="127.1" x2="342.5" y2="120.1" stroke="rgb(76,76,76)"  stroke-width="2.0"/>
<line x1="162.4" y1="125.1" x2="209.0" y2="122.2" stroke="rgb(76,76,76)"  stroke-width="2.0"/>
<line x1="162.4" y1="125.1" x2="152.8" y2="158.4" stroke="rgb(76,76,76)"  stroke-width="2.0"/>
<line x1="162.4" y1="125.1" x2="141.1" y2="95.4" stroke="rgb(76,76,76)"  stroke-width="2.0"/>
<line x1="209.0" y1="122.2" x2="225.6" y2="141.8" stroke="rgb(76,76,76)"  stroke-width="2.0"/>
<line x1="296.0" y1="120.5" x2="342.5" y2="120.1" stroke="rgb(76,76,76)"  stroke-width="2.0"/>
<line x1="342.5" y1="120.1" x2="353.8" y2="88.6" stroke="rgb(76,76,76)"  stroke-width="2.0"/>
<line x1="342.5" y1="120.1" x2="353.3" y2="144.1" stroke="rgb(76,76,76)"  stroke-width="2.0"/>
<line x1="98.6" y1="100.9" x2="141.1" y2="95.4" stroke="rgb(76,76,76)"  stroke-width="2.0"/>
<line x1="98.6" y1="100.9" x2="74.4" y2="74.0" stroke="rgb(76,76,76)"  stroke-width="2.0"/>
<line x1="138.7" y1="93.6" x2="157.5" y2="68.0" stroke="rgb(76,76,76)"  stroke-width="2.0"/>
<line x1="143.5" y1="97.2" x2="162.3" y2="71.5" stroke="rgb(76,76,76)"  stroke-width="2.0"/>
<line x1="79.4" y1="40.0" x2="74.4" y2="74.0" stroke="rgb(76,76,76)"  stroke-width="2.0"/>
<line x1="40.0" y1="80.7" x2="74.4" y2="74.0" stroke="rgb(76,76,76)"  stroke-width="2.0"/>
<line x1="74.4" y1="74.0" x2="84.4" y2="79.9" stroke="rgb(76,76,76)"  stroke-width="2.0"/>
<circle cx="210.114220" cy="69.370776" r="4.400000" opacity="1.000000" style="stroke:black;fill:url(#radialffffffffcc)"/>
<circle cx="300.747549" cy="67.401750" r="4.400000" opacity="1.000000" style="stroke:black;fill:url(#radialffffffffcc)"/>
<circle cx="150.920759" cy="117.118059" r="2.066667" opacity="1.000000" style="stroke:black;fill:url(#radialffffffbfbfbf)"/>
<circle cx="229.555937" cy="93.680186" r="5.066667" opacity="1.000000" style="stroke:black;fill:url(#radialffffff666666)"/>
<circle cx="279.201233" cy="92.234081" r="5.066667" opacity="1.000000" style="stroke:black;fill:url(#radialffffff666666)"/>
<circle cx="357.671787" cy="127.060030" r="2.066667" opacity="1.000000" style="stroke:black;fill:url(#radialffffffbfbfbf)"/>
<circle cx="162.431496" cy="125.087775" r="5.066667" opacity="1.000000" style="stroke:black;fill:url(#radialffffff666666)"/>
<circle cx="209.036097" cy="122.221389" r="4.733333" opacity="1.000000" style="stroke:black;fill:url(#radialffffff0ccff)"/>
<circle cx="295.986378" cy="120.517051" r="4.400000" opacity="1.000000" style="stroke:black;fill:url(#radialffffffffcc)"/>
<circle cx="152.792949" cy="158.448252" r="2.066667" opacity="1.000000" style="stroke:black;fill:url(#radialffffffbfbfbf)"/>
<circle cx="342.536105" cy="120.061915" r="5.066667" opacity="1.000000" style="stroke:black;fill:url(#radialffffff666666)"/>
<circle cx="353.814432" cy="88.615591" r="2.066667" opacity="1.000000" style="stroke:black;fill:url(#radialffffffbfbfbf)"/>
<circle cx="225.634024" cy="141.763172" r="2.066667" opacity="1.000000" style="stroke:black;fill:url(#radialffffffbfbfbf)"/>
<circle cx="98.560790" cy="100.875203" r="4.955340" opacity="1.000000" style="stroke:black;fill:url(#radialffffffffcc)"/>
<circle cx="141.111133" cy="95.400663" r="5.711615" opacity="1.000000" style="stroke:black;fill:url(#radialffffff666666)"/>
<circle cx="353.343156" cy="144.138915" r="2.377298" opacity="1.000000" style="stroke:black;fill:url(#radialffffffbfbfbf)"/>
<circle cx="79.406357" cy="40.000000" r="2.974967" opacity="1.000000" style="stroke:black;fill:url(#radialffffffbfbfbf)"/>
<circle cx="159.929863" cy="69.758126" r="6.367620" opacity="1.000000" style="stroke:black;fill:url(#radialffffffffcc)"/>
<circle cx="40.000000" cy="80.742712" r="3.112076" opacity="1.000000" style="stroke:black;fill:url(#radialffffffbfbfbf)"/>
<circle cx="74.393408" cy="74.025426" r="7.795397" opacity="1.000000" style="stroke:black;fill:url(#radialffffff666666)"/>
<circle cx="84.445128" cy="79.864720" r="4.133333" opacity="1.000000" style="stroke:black;fill:url(#radialffffffbfbfbf)"/>
</svg>
</g>
</svg>
