<?xml version="1.0"?>
<svg version="1.1" id="topsvg"
xmlns="http://www.w3.org/2000/svg" xmlns:xlink="http://www.w3.org/1999/xlink"
xmlns:cml="http://www.xml-cml.org/schema" x="0" y="0" width="200px" height="200px" viewBox="0 0 100 100">
<title>7 - Open Babel Depiction</title>
<defs>
<radialGradient id='radialffffff0ccff' cx='50%' cy='50%' r='50%' fx='30%' fy='30%'>
  <stop offset=' 0%' stop-color="rgb(255,255,255)"  stop-opacity='0.8'/>
  <stop offset='100%' stop-color="rgb(12,12,255)"  stop-opacity ='1.0'/>
</radialGradient>
<radialGradient id='radialffffff666666' cx='50%' cy='50%' r='50%' fx='30%' fy='30%'>
  <stop offset=' 0%' stop-color="rgb(255,255,255)"  stop-opacity='0.8'/>
  <stop offset='100%' stop-color="rgb(102,102,102)"  stop-opacity ='1.0'/>
</radialGradient>
<radialGradient id='radialffffffbfbfbf' cx='50%' cy='50%' r='50%' fx='30%' fy='30%'>
  <stop offset=' 0%' stop-color="rgb(255,255,255)"  stop-opacity='0.8'/>
  <stop offset='100%' stop-color="rgb(191,191,191)"  stop-opacity ='1.0'/>
</radialGradient>
<radialGradient id='radialffffffffcc' cx='50%' cy='50%' r='50%' fx='30%' fy='30%'>
  <stop offset=' 0%' stop-color="rgb(255,255,255)"  stop-opacity='0.8'/>
  <stop offset='100%' stop-color="rgb(255,12,12)"  stop-opacity ='1.0'/>
</radialGradient>
</defs>
<g transform="translate(0,0)">
<svg width="100" height="100" x="0" y="0" viewBox="0 0 393.171 223.477"
font-family="sans-serif" stroke="rgb(76,76,76)" stroke-width="2"  stroke-linecap="round">
<line x1="212.2" y1="38.2" x2="230.3" y2="63.2" stroke="rgb(76,76,76)"  stroke-width="2.0"/>
<line x1="207.4" y1="41.8" x2="225.4" y2="66.7" stroke="rgb(76,76,76)"  stroke-width="2.0"/>
<line x1="302.5" y1="46.9" x2="279.6" y2="69.2" stroke="rgb(76,76,76)"  stroke-width="2.0"/>
<line x1="298.3" y1="42.6" x2="275.4" y2="64.9" stroke="rgb(76,76,76)"  stroke-width="2.0"/>
<line x1="147.7" y1="98.8" x2="159.1" y2="90.8" stroke="rgb(76,76,76)"  stroke-width="2.0"/>
<line x1="227.9" y1="64.9" x2="277.5" y2="67.1" stroke="rgb(76,76,76)"  stroke-width="2.0"/>
<line x1="227.9" y1="64.9" x2="205.8" y2="91.1" stroke="rgb(76,76,76)"  stroke-width="2.0"/>
<line x1="277.5" y1="67.1" x2="292.8" y2="95.5" stroke="rgb(76,76,76)"  stroke-width="2.0"/>
<line x1="353.2" y1="107.8" x2="339.3" y2="98.4" stroke="rgb(76,76,76)"  stroke-width="2.0"/>
<line x1="159.1" y1="90.8" x2="205.8" y2="91.1" stroke="rgb(76,76,76)"  stroke-width="2.0"/>
<line x1="159.1" y1="90.8" x2="147.7" y2="58.2" stroke="rgb(76,76,76)"  stroke-width="2.0"/>
<line x1="159.1" y1="90.8" x2="139.9" y2="122.4" stroke="rgb(76,76,76)"  stroke-width="2.0"/>
<line x1="205.8" y1="91.1" x2="221.3" y2="111.5" stroke="rgb(76,76,76)"  stroke-width="2.0"/>
<line x1="292.8" y1="95.5" x2="339.3" y2="98.4" stroke="rgb(76,76,76)"  stroke-width="2.0"/>
<line x1="339.3" y1="98.4" x2="353.1" y2="67.4" stroke="rgb(76,76,76)"  stroke-width="2.0"/>
<line x1="339.3" y1="98.4" x2="348.8" y2="122.2" stroke="rgb(76,76,76)"  stroke-width="2.0"/>
<line x1="97.0" y1="121.1" x2="139.9" y2="122.4" stroke="rgb(76,76,76)"  stroke-width="2.0"/>
<line x1="97.0" y1="121.1" x2="74.8" y2="150.1" stroke="rgb(76,76,76)"  stroke-width="2.0"/>
<line x1="142.1" y1="120.4" x2="162.7" y2="143.9" stroke="rgb(76,76,76)"  stroke-width="2.0"/>
<line x1="137.6" y1="124.3" x2="158.2" y2="147.9" stroke="rgb(76,76,76)"  stroke-width="2.0"/>
<line x1="83.4" y1="183.5" x2="74.8" y2="150.1" stroke="rgb(76,76,76)"  stroke-width="2.0"/>
<line x1="40.0" y1="146.8" x2="74.8" y2="150.1" stroke="rgb(76,76,76)"  stroke-width="2.0"/>
<line x1="74.8" y1="150.1" x2="83.3" y2="143.1" stroke="rgb(76,76,76)"  stroke-width="2.0"/>
<circle cx="209.777782" cy="40.000000" r="4.400000" opacity="1.000000" style="stroke:black;fill:url(#radialffffffffcc)"/>
<circle cx="300.433313" cy="44.786974" r="4.400000" opacity="1.000000" style="stroke:black;fill:url(#radialffffffffcc)"/>
<circle cx="147.692380" cy="98.776805" r="2.066667" opacity="1.000000" style="stroke:black;fill:url(#radialffffffbfbfbf)"/>
<circle cx="227.870153" cy="64.922605" r="5.066667" opacity="1.000000" style="stroke:black;fill:url(#radialffffff666666)"/>
<circle cx="277.541057" cy="67.094981" r="5.066667" opacity="1.000000" style="stroke:black;fill:url(#radialffffff666666)"/>
<circle cx="353.170720" cy="107.766503" r="2.066667" opacity="1.000000" style="stroke:black;fill:url(#radialffffffbfbfbf)"/>
<circle cx="159.103002" cy="90.842631" r="5.066667" opacity="1.000000" style="stroke:black;fill:url(#radialffffff666666)"/>
<circle cx="205.801011" cy="91.065356" r="4.733333" opacity="1.000000" style="stroke:black;fill:url(#radialffffff0ccff)"/>
<circle cx="292.754143" cy="95.452070" r="4.400000" opacity="1.000000" style="stroke:black;fill:url(#radialffffffffcc)"/>
<circle cx="339.281073" cy="98.363634" r="5.066667" opacity="1.000000" style="stroke:black;fill:url(#radialffffff666666)"/>
<circle cx="147.653646" cy="58.240855" r="2.066667" opacity="1.000000" style="stroke:black;fill:url(#radialffffffbfbfbf)"/>
<circle cx="353.125530" cy="67.443594" r="2.066667" opacity="1.000000" style="stroke:black;fill:url(#radialffffffbfbfbf)"/>
<circle cx="221.323975" cy="111.510865" r="2.066667" opacity="1.000000" style="stroke:black;fill:url(#radialffffffbfbfbf)"/>
<circle cx="97.020828" cy="121.104180" r="4.979508" opacity="1.000000" style="stroke:black;fill:url(#radialffffffffcc)"/>
<circle cx="139.880866" cy="122.366288" r="5.826939" opacity="1.000000" style="stroke:black;fill:url(#radialffffff666666)"/>
<circle cx="348.751727" cy="122.208121" r="2.378076" opacity="1.000000" style="stroke:black;fill:url(#radialffffffbfbfbf)"/>
<circle cx="83.366817" cy="183.476864" r="2.981333" opacity="1.000000" style="stroke:black;fill:url(#radialffffffbfbfbf)"/>
<circle cx="160.455491" cy="145.910580" r="6.509600" opacity="1.000000" style="stroke:black;fill:url(#radialffffffffcc)"/>
<circle cx="40.000000" cy="146.827304" r="3.079882" opacity="1.000000" style="stroke:black;fill:url(#radialffffffbfbfbf)"/>
<circle cx="74.809658" cy="150.090709" r="7.784556" opacity="1.000000" style="stroke:black;fill:url(#radialffffff666666)"/>
<circle cx="83.321627" cy="143.147499" r="4.133333" opacity="1.000000" style="stroke:black;fill:url(#radialffffffbfbfbf)"/>
</svg>
</g>
</svg>
