<?xml version="1.0"?>
<svg version="1.1" id="topsvg"
xmlns="http://www.w3.org/2000/svg" xmlns:xlink="http://www.w3.org/1999/xlink"
xmlns:cml="http://www.xml-cml.org/schema" x="0" y="0" width="200px" height="200px" viewBox="0 0 100 100">
<title>25 - Open Babel Depiction</title>
<defs>
<radialGradient id='radialffffff0ccff' cx='50%' cy='50%' r='50%' fx='30%' fy='30%'>
  <stop offset=' 0%' stop-color="rgb(255,255,255)"  stop-opacity='0.8'/>
  <stop offset='100%' stop-color="rgb(12,12,255)"  stop-opacity ='1.0'/>
</radialGradient>
<radialGradient id='radialffffff666666' cx='50%' cy='50%' r='50%' fx='30%' fy='30%'>
  <stop offset=' 0%' stop-color="rgb(255,255,255)"  stop-opacity='0.8'/>
  <stop offset='100%' stop-color="rgb(102,102,102)"  stop-opacity ='1.0'/>
</radialGradient>
<radialGradient id='radialffffffbfbfbf' cx='50%' cy='50%' r='50%' fx='30%' fy='30%'>
  <stop offset=' 0%' stop-color="rgb(255,255,255)"  stop-opacity='0.8'/>
  <stop offset='100%' stop-color="rgb(191,191,191)"  stop-opacity ='1.0'/>
</radialGradient>
<radialGradient id='radialffffffffcc' cx='50%' cy='50%' r='50%' fx='30%' fy='30%'>
  <stop offset=' 0%' stop-color="rgb(255,255,255)"  stop-opacity='0.8'/>
  <stop offset='100%' stop-color="rgb(255,12,12)"  stop-opacity ='1.0'/>
</radialGradient>
</defs>
<g transform="translate(0,0)">
<svg width="100" height="100" x="0" y="0" viewBox="0 0 346.429 199.326"
font-family="sans-serif" stroke="rgb(76,76,76)" stroke-width="2"  stroke-linecap="round">
<line x1="81.1" y1="111.3" x2="74.8" y2="122.3" stroke="rgb(76,76,76)"  stroke-width="2.0"/>
<line x1="74.8" y1="122.3" x2="87.0" y2="155.1" stroke="rgb(76,76,76)"  stroke-width="2.0"/>
<line x1="74.8" y1="122.3" x2="40.0" y2="123.1" stroke="rgb(76,76,76)"  stroke-width="2.0"/>
<line x1="74.8" y1="122.3" x2="95.2" y2="94.1" stroke="rgb(76,76,76)"  stroke-width="2.0"/>
<line x1="95.2" y1="94.1" x2="89.7" y2="104.6" stroke="rgb(76,76,76)"  stroke-width="2.0"/>
<line x1="92.2" y1="106.2" x2="71.5" y2="137.3" stroke="rgb(76,76,76)"  stroke-width="2.0"/>
<line x1="87.2" y1="102.9" x2="66.5" y2="134.0" stroke="rgb(76,76,76)"  stroke-width="2.0"/>
<line x1="89.7" y1="104.6" x2="112.5" y2="72.9" stroke="rgb(76,76,76)"  stroke-width="2.0"/>
<line x1="177.5" y1="64.8" x2="158.8" y2="79.2" stroke="rgb(76,76,76)"  stroke-width="2.0"/>
<line x1="105.5" y1="40.0" x2="112.5" y2="72.9" stroke="rgb(76,76,76)"  stroke-width="2.0"/>
<line x1="249.1" y1="91.7" x2="228.7" y2="110.0" stroke="rgb(76,76,76)"  stroke-width="2.0"/>
<line x1="245.1" y1="87.2" x2="224.7" y2="105.5" stroke="rgb(76,76,76)"  stroke-width="2.0"/>
<line x1="112.5" y1="72.9" x2="158.8" y2="79.2" stroke="rgb(76,76,76)"  stroke-width="2.0"/>
<line x1="112.5" y1="72.9" x2="99.8" y2="76.2" stroke="rgb(76,76,76)"  stroke-width="2.0"/>
<line x1="158.8" y1="79.2" x2="177.4" y2="104.3" stroke="rgb(76,76,76)"  stroke-width="2.0"/>
<line x1="300.2" y1="152.3" x2="290.3" y2="138.2" stroke="rgb(76,76,76)"  stroke-width="2.0"/>
<line x1="226.7" y1="107.8" x2="177.4" y2="104.3" stroke="rgb(76,76,76)"  stroke-width="2.0"/>
<line x1="226.7" y1="107.8" x2="243.9" y2="133.1" stroke="rgb(76,76,76)"  stroke-width="2.0"/>
<line x1="179.4" y1="106.5" x2="159.4" y2="125.5" stroke="rgb(76,76,76)"  stroke-width="2.0"/>
<line x1="175.3" y1="102.2" x2="155.2" y2="121.1" stroke="rgb(76,76,76)"  stroke-width="2.0"/>
<line x1="290.3" y1="138.2" x2="243.9" y2="133.1" stroke="rgb(76,76,76)"  stroke-width="2.0"/>
<line x1="290.3" y1="138.2" x2="306.4" y2="107.2" stroke="rgb(76,76,76)"  stroke-width="2.0"/>
<line x1="290.3" y1="138.2" x2="301.5" y2="159.3" stroke="rgb(76,76,76)"  stroke-width="2.0"/>
<circle cx="81.054919" cy="111.277021" r="2.066667" opacity="1.000000" style="stroke:black;fill:url(#radialffffffbfbfbf)"/>
<circle cx="74.790936" cy="122.335857" r="5.066667" opacity="1.000000" style="stroke:black;fill:url(#radialffffff666666)"/>
<circle cx="87.002473" cy="155.137817" r="2.066667" opacity="1.000000" style="stroke:black;fill:url(#radialffffffbfbfbf)"/>
<circle cx="40.000000" cy="123.130156" r="2.066667" opacity="1.000000" style="stroke:black;fill:url(#radialffffffbfbfbf)"/>
<circle cx="95.194084" cy="94.147934" r="4.400000" opacity="1.000000" style="stroke:black;fill:url(#radialffffffffcc)"/>
<circle cx="89.663052" cy="104.573914" r="5.066667" opacity="1.000000" style="stroke:black;fill:url(#radialffffff666666)"/>
<circle cx="177.487966" cy="64.839598" r="2.160641" opacity="1.000000" style="stroke:black;fill:url(#radialffffffbfbfbf)"/>
<circle cx="69.040341" cy="135.638748" r="4.820761" opacity="1.000000" style="stroke:black;fill:url(#radialffffffffcc)"/>
<circle cx="105.532884" cy="40.000000" r="2.376295" opacity="1.000000" style="stroke:black;fill:url(#radialffffffbfbfbf)"/>
<circle cx="247.095668" cy="89.472549" r="5.434043" opacity="1.000000" style="stroke:black;fill:url(#radialffffffffcc)"/>
<circle cx="112.529818" cy="72.934343" r="6.345753" opacity="1.000000" style="stroke:black;fill:url(#radialffffff666666)"/>
<circle cx="158.812256" cy="79.208012" r="5.964629" opacity="1.000000" style="stroke:black;fill:url(#radialffffff0ccff)"/>
<circle cx="300.155477" cy="152.270592" r="3.045168" opacity="1.000000" style="stroke:black;fill:url(#radialffffffbfbfbf)"/>
<circle cx="226.686062" cy="107.776940" r="7.571802" opacity="1.000000" style="stroke:black;fill:url(#radialffffff666666)"/>
<circle cx="177.371727" cy="104.334979" r="7.783495" opacity="1.000000" style="stroke:black;fill:url(#radialffffff666666)"/>
<circle cx="99.827494" cy="76.192260" r="3.222846" opacity="1.000000" style="stroke:black;fill:url(#radialffffffbfbfbf)"/>
<circle cx="290.330065" cy="138.234750" r="8.915221" opacity="1.000000" style="stroke:black;fill:url(#radialffffff666666)"/>
<circle cx="243.918473" cy="133.113782" r="7.814535" opacity="1.000000" style="stroke:black;fill:url(#radialffffffffcc)"/>
<circle cx="306.429147" cy="107.208661" r="3.703770" opacity="1.000000" style="stroke:black;fill:url(#radialffffffbfbfbf)"/>
<circle cx="157.291464" cy="123.301285" r="7.931704" opacity="1.000000" style="stroke:black;fill:url(#radialffffffffcc)"/>
<circle cx="301.521284" cy="159.325644" r="4.133333" opacity="1.000000" style="stroke:black;fill:url(#radialffffffbfbfbf)"/>
</svg>
</g>
</svg>
