<?xml version="1.0"?>
<svg version="1.1" id="topsvg"
xmlns="http://www.w3.org/2000/svg" xmlns:xlink="http://www.w3.org/1999/xlink"
xmlns:cml="http://www.xml-cml.org/schema" x="0" y="0" width="200px" height="200px" viewBox="0 0 100 100">
<title>15 - Open Babel Depiction</title>
<defs>
<radialGradient id='radialffffff0ccff' cx='50%' cy='50%' r='50%' fx='30%' fy='30%'>
  <stop offset=' 0%' stop-color="rgb(255,255,255)"  stop-opacity='0.8'/>
  <stop offset='100%' stop-color="rgb(12,12,255)"  stop-opacity ='1.0'/>
</radialGradient>
<radialGradient id='radialffffff666666' cx='50%' cy='50%' r='50%' fx='30%' fy='30%'>
  <stop offset=' 0%' stop-color="rgb(255,255,255)"  stop-opacity='0.8'/>
  <stop offset='100%' stop-color="rgb(102,102,102)"  stop-opacity ='1.0'/>
</radialGradient>
<radialGradient id='radialffffffbfbfbf' cx='50%' cy='50%' r='50%' fx='30%' fy='30%'>
  <stop offset=' 0%' stop-color="rgb(255,255,255)"  stop-opacity='0.8'/>
  <stop offset='100%' stop-color="rgb(191,191,191)"  stop-opacity ='1.0'/>
</radialGradient>
<radialGradient id='radialffffffffcc' cx='50%' cy='50%' r='50%' fx='30%' fy='30%'>
  <stop offset=' 0%' stop-color="rgb(255,255,255)"  stop-opacity='0.8'/>
  <stop offset='100%' stop-color="rgb(255,12,12)"  stop-opacity ='1.0'/>
</radialGradient>
</defs>
<g transform="translate(0,0)">
<svg width="100" height="100" x="0" y="0" viewBox="0 0 401.837 215.026"
font-family="sans-serif" stroke="rgb(76,76,76)" stroke-width="2"  stroke-linecap="round">
<line x1="153.5" y1="89.3" x2="163.5" y2="73.7" stroke="rgb(76,76,76)"  stroke-width="2.0"/>
<line x1="361.8" y1="122.2" x2="347.9" y2="143.0" stroke="rgb(76,76,76)"  stroke-width="2.0"/>
<line x1="211.8" y1="145.6" x2="229.1" y2="110.4" stroke="rgb(76,76,76)"  stroke-width="2.0"/>
<line x1="217.2" y1="148.2" x2="234.5" y2="113.1" stroke="rgb(76,76,76)"  stroke-width="2.0"/>
<line x1="152.8" y1="40.0" x2="163.5" y2="73.7" stroke="rgb(76,76,76)"  stroke-width="2.0"/>
<line x1="231.8" y1="111.8" x2="210.1" y2="74.8" stroke="rgb(76,76,76)"  stroke-width="2.0"/>
<line x1="231.8" y1="111.8" x2="281.0" y2="106.9" stroke="rgb(76,76,76)"  stroke-width="2.0"/>
<line x1="301.4" y1="144.5" x2="347.9" y2="143.0" stroke="rgb(76,76,76)"  stroke-width="2.0"/>
<line x1="301.4" y1="144.5" x2="281.0" y2="106.9" stroke="rgb(76,76,76)"  stroke-width="2.0"/>
<line x1="361.8" y1="175.0" x2="347.9" y2="143.0" stroke="rgb(76,76,76)"  stroke-width="2.0"/>
<line x1="163.5" y1="73.7" x2="210.1" y2="74.8" stroke="rgb(76,76,76)"  stroke-width="2.0"/>
<line x1="163.5" y1="73.7" x2="141.6" y2="96.0" stroke="rgb(76,76,76)"  stroke-width="2.0"/>
<line x1="210.1" y1="74.8" x2="226.6" y2="46.9" stroke="rgb(76,76,76)"  stroke-width="2.0"/>
<line x1="347.9" y1="143.0" x2="357.4" y2="130.5" stroke="rgb(76,76,76)"  stroke-width="2.0"/>
<line x1="278.3" y1="105.5" x2="296.1" y2="71.3" stroke="rgb(76,76,76)"  stroke-width="2.0"/>
<line x1="283.7" y1="108.3" x2="301.4" y2="74.1" stroke="rgb(76,76,76)"  stroke-width="2.0"/>
<line x1="99.1" y1="96.8" x2="141.6" y2="96.0" stroke="rgb(76,76,76)"  stroke-width="2.0"/>
<line x1="99.1" y1="96.8" x2="74.3" y2="117.4" stroke="rgb(76,76,76)"  stroke-width="2.0"/>
<line x1="143.5" y1="93.7" x2="161.9" y2="108.9" stroke="rgb(76,76,76)"  stroke-width="2.0"/>
<line x1="139.7" y1="98.3" x2="158.1" y2="113.5" stroke="rgb(76,76,76)"  stroke-width="2.0"/>
<line x1="40.0" y1="116.5" x2="74.3" y2="117.4" stroke="rgb(76,76,76)"  stroke-width="2.0"/>
<line x1="74.3" y1="117.4" x2="83.9" y2="151.0" stroke="rgb(76,76,76)"  stroke-width="2.0"/>
<line x1="74.3" y1="117.4" x2="79.4" y2="101.2" stroke="rgb(76,76,76)"  stroke-width="2.0"/>
<circle cx="153.505460" cy="89.324650" r="2.066667" opacity="1.000000" style="stroke:black;fill:url(#radialffffffbfbfbf)"/>
<circle cx="361.775855" cy="122.165774" r="2.066667" opacity="1.000000" style="stroke:black;fill:url(#radialffffffbfbfbf)"/>
<circle cx="214.499348" cy="146.905592" r="4.400000" opacity="1.000000" style="stroke:black;fill:url(#radialffffffffcc)"/>
<circle cx="152.769271" cy="40.000000" r="2.066667" opacity="1.000000" style="stroke:black;fill:url(#radialffffffbfbfbf)"/>
<circle cx="231.806243" cy="111.771950" r="5.066667" opacity="1.000000" style="stroke:black;fill:url(#radialffffff666666)"/>
<circle cx="301.401916" cy="144.542039" r="4.400000" opacity="1.000000" style="stroke:black;fill:url(#radialffffffffcc)"/>
<circle cx="361.837204" cy="175.026067" r="2.066667" opacity="1.000000" style="stroke:black;fill:url(#radialffffffbfbfbf)"/>
<circle cx="163.495671" cy="73.732300" r="5.066667" opacity="1.000000" style="stroke:black;fill:url(#radialffffff666666)"/>
<circle cx="210.095131" cy="74.836583" r="4.733333" opacity="1.000000" style="stroke:black;fill:url(#radialffffff0ccff)"/>
<circle cx="347.943255" cy="142.969565" r="5.066667" opacity="1.000000" style="stroke:black;fill:url(#radialffffff666666)"/>
<circle cx="280.998508" cy="106.893085" r="5.066667" opacity="1.000000" style="stroke:black;fill:url(#radialffffff666666)"/>
<circle cx="226.594801" cy="46.916300" r="2.066667" opacity="1.000000" style="stroke:black;fill:url(#radialffffffbfbfbf)"/>
<circle cx="298.744532" cy="72.705510" r="4.400000" opacity="1.000000" style="stroke:black;fill:url(#radialffffffffcc)"/>
<circle cx="99.050091" cy="96.776947" r="4.400000" opacity="1.000000" style="stroke:black;fill:url(#radialffffffffcc)"/>
<circle cx="357.423300" cy="130.451127" r="2.120950" opacity="1.000000" style="stroke:black;fill:url(#radialffffffbfbfbf)"/>
<circle cx="141.600512" cy="95.976180" r="5.404410" opacity="1.000000" style="stroke:black;fill:url(#radialffffff666666)"/>
<circle cx="40.000000" cy="116.479684" r="2.890825" opacity="1.000000" style="stroke:black;fill:url(#radialffffffbfbfbf)"/>
<circle cx="74.345791" cy="117.387004" r="7.673001" opacity="1.000000" style="stroke:black;fill:url(#radialffffff666666)"/>
<circle cx="160.008461" cy="111.190749" r="6.857959" opacity="1.000000" style="stroke:black;fill:url(#radialffffffffcc)"/>
<circle cx="83.874269" cy="151.003064" r="3.249727" opacity="1.000000" style="stroke:black;fill:url(#radialffffffbfbfbf)"/>
<circle cx="79.418390" cy="101.158562" r="4.133333" opacity="1.000000" style="stroke:black;fill:url(#radialffffffbfbfbf)"/>
</svg>
</g>
</svg>
