<?xml version="1.0"?>
<svg version="1.1" id="topsvg"
xmlns="http://www.w3.org/2000/svg" xmlns:xlink="http://www.w3.org/1999/xlink"
xmlns:cml="http://www.xml-cml.org/schema" x="0" y="0" width="200px" height="200px" viewBox="0 0 100 100">
<title>49 - Open Babel Depiction</title>
<defs>
<radialGradient id='radialffffff0ccff' cx='50%' cy='50%' r='50%' fx='30%' fy='30%'>
  <stop offset=' 0%' stop-color="rgb(255,255,255)"  stop-opacity='0.8'/>
  <stop offset='100%' stop-color="rgb(12,12,255)"  stop-opacity ='1.0'/>
</radialGradient>
<radialGradient id='radialffffff666666' cx='50%' cy='50%' r='50%' fx='30%' fy='30%'>
  <stop offset=' 0%' stop-color="rgb(255,255,255)"  stop-opacity='0.8'/>
  <stop offset='100%' stop-color="rgb(102,102,102)"  stop-opacity ='1.0'/>
</radialGradient>
<radialGradient id='radialffffffbfbfbf' cx='50%' cy='50%' r='50%' fx='30%' fy='30%'>
  <stop offset=' 0%' stop-color="rgb(255,255,255)"  stop-opacity='0.8'/>
  <stop offset='100%' stop-color="rgb(191,191,191)"  stop-opacity ='1.0'/>
</radialGradient>
<radialGradient id='radialffffffffcc' cx='50%' cy='50%' r='50%' fx='30%' fy='30%'>
  <stop offset=' 0%' stop-color="rgb(255,255,255)"  stop-opacity='0.8'/>
  <stop offset='100%' stop-color="rgb(255,12,12)"  stop-opacity ='1.0'/>
</radialGradient>
</defs>
<g transform="translate(0,0)">
<svg width="100" height="100" x="0" y="0" viewBox="0 0 346.445 263.718"
font-family="sans-serif" stroke="rgb(76,76,76)" stroke-width="2"  stroke-linecap="round">
<line x1="88.7" y1="188.3" x2="74.6" y2="190.9" stroke="rgb(76,76,76)"  stroke-width="2.0"/>
<line x1="73.2" y1="103.8" x2="91.6" y2="116.2" stroke="rgb(76,76,76)"  stroke-width="2.0"/>
<line x1="69.8" y1="108.7" x2="88.2" y2="121.2" stroke="rgb(76,76,76)"  stroke-width="2.0"/>
<line x1="251.2" y1="48.0" x2="230.0" y2="69.6" stroke="rgb(76,76,76)"  stroke-width="2.0"/>
<line x1="246.9" y1="43.8" x2="225.7" y2="65.4" stroke="rgb(76,76,76)"  stroke-width="2.0"/>
<line x1="160.7" y1="38.1" x2="180.5" y2="62.9" stroke="rgb(76,76,76)"  stroke-width="2.0"/>
<line x1="156.0" y1="41.9" x2="175.8" y2="66.7" stroke="rgb(76,76,76)"  stroke-width="2.0"/>
<line x1="40.0" y1="185.4" x2="74.6" y2="190.9" stroke="rgb(76,76,76)"  stroke-width="2.0"/>
<line x1="74.6" y1="190.9" x2="79.5" y2="223.7" stroke="rgb(76,76,76)"  stroke-width="2.0"/>
<line x1="74.6" y1="190.9" x2="93.9" y2="160.0" stroke="rgb(76,76,76)"  stroke-width="2.0"/>
<line x1="302.8" y1="109.2" x2="291.6" y2="99.0" stroke="rgb(76,76,76)"  stroke-width="2.0"/>
<line x1="227.8" y1="67.5" x2="178.2" y2="64.8" stroke="rgb(76,76,76)"  stroke-width="2.0"/>
<line x1="227.8" y1="67.5" x2="245.0" y2="95.5" stroke="rgb(76,76,76)"  stroke-width="2.0"/>
<line x1="89.9" y1="118.7" x2="93.9" y2="160.0" stroke="rgb(76,76,76)"  stroke-width="2.0"/>
<line x1="89.9" y1="118.7" x2="111.4" y2="90.0" stroke="rgb(76,76,76)"  stroke-width="2.0"/>
<line x1="178.2" y1="64.8" x2="158.0" y2="90.4" stroke="rgb(76,76,76)"  stroke-width="2.0"/>
<line x1="291.6" y1="99.0" x2="245.0" y2="95.5" stroke="rgb(76,76,76)"  stroke-width="2.0"/>
<line x1="291.6" y1="99.0" x2="306.4" y2="68.0" stroke="rgb(76,76,76)"  stroke-width="2.0"/>
<line x1="291.6" y1="99.0" x2="302.7" y2="122.4" stroke="rgb(76,76,76)"  stroke-width="2.0"/>
<line x1="99.8" y1="56.8" x2="111.4" y2="90.0" stroke="rgb(76,76,76)"  stroke-width="2.0"/>
<line x1="158.0" y1="90.4" x2="111.4" y2="90.0" stroke="rgb(76,76,76)"  stroke-width="2.0"/>
<line x1="158.0" y1="90.4" x2="174.9" y2="111.1" stroke="rgb(76,76,76)"  stroke-width="2.0"/>
<line x1="111.4" y1="90.0" x2="101.9" y2="100.4" stroke="rgb(76,76,76)"  stroke-width="2.0"/>
<circle cx="88.702213" cy="188.279002" r="2.066667" opacity="1.000000" style="stroke:black;fill:url(#radialffffffbfbfbf)"/>
<circle cx="71.487944" cy="106.236043" r="4.400000" opacity="1.000000" style="stroke:black;fill:url(#radialffffffffcc)"/>
<circle cx="249.082527" cy="45.926383" r="4.400000" opacity="1.000000" style="stroke:black;fill:url(#radialffffffffcc)"/>
<circle cx="158.392085" cy="40.000000" r="4.400000" opacity="1.000000" style="stroke:black;fill:url(#radialffffffffcc)"/>
<circle cx="40.000000" cy="185.415875" r="2.066667" opacity="1.000000" style="stroke:black;fill:url(#radialffffffbfbfbf)"/>
<circle cx="74.573794" cy="190.906494" r="5.066667" opacity="1.000000" style="stroke:black;fill:url(#radialffffff666666)"/>
<circle cx="79.547953" cy="223.717867" r="2.066667" opacity="1.000000" style="stroke:black;fill:url(#radialffffffbfbfbf)"/>
<circle cx="302.823457" cy="109.225058" r="2.066667" opacity="1.000000" style="stroke:black;fill:url(#radialffffffbfbfbf)"/>
<circle cx="227.830183" cy="67.540250" r="5.066667" opacity="1.000000" style="stroke:black;fill:url(#radialffffff666666)"/>
<circle cx="89.919123" cy="118.727929" r="5.066667" opacity="1.000000" style="stroke:black;fill:url(#radialffffff666666)"/>
<circle cx="178.166062" cy="64.819149" r="5.066667" opacity="1.000000" style="stroke:black;fill:url(#radialffffff666666)"/>
<circle cx="93.934603" cy="160.022163" r="4.661482" opacity="1.000000" style="stroke:black;fill:url(#radialffffffffcc)"/>
<circle cx="291.571077" cy="98.973319" r="6.754047" opacity="1.000000" style="stroke:black;fill:url(#radialffffff666666)"/>
<circle cx="244.989579" cy="95.538858" r="5.918169" opacity="1.000000" style="stroke:black;fill:url(#radialffffffffcc)"/>
<circle cx="99.819023" cy="56.794646" r="2.816666" opacity="1.000000" style="stroke:black;fill:url(#radialffffffbfbfbf)"/>
<circle cx="158.001512" cy="90.367798" r="6.550696" opacity="1.000000" style="stroke:black;fill:url(#radialffffff0ccff)"/>
<circle cx="111.407103" cy="89.970769" r="7.287797" opacity="1.000000" style="stroke:black;fill:url(#radialffffff666666)"/>
<circle cx="306.445136" cy="68.034115" r="3.019612" opacity="1.000000" style="stroke:black;fill:url(#radialffffffbfbfbf)"/>
<circle cx="174.883311" cy="111.071403" r="3.546302" opacity="1.000000" style="stroke:black;fill:url(#radialffffffbfbfbf)"/>
<circle cx="302.681431" cy="122.404481" r="3.601452" opacity="1.000000" style="stroke:black;fill:url(#radialffffffbfbfbf)"/>
<circle cx="101.946194" cy="100.448459" r="4.133333" opacity="1.000000" style="stroke:black;fill:url(#radialffffffbfbfbf)"/>
</svg>
</g>
</svg>
