<?xml version="1.0"?>
<svg version="1.1" id="topsvg"
xmlns="http://www.w3.org/2000/svg" xmlns:xlink="http://www.w3.org/1999/xlink"
xmlns:cml="http://www.xml-cml.org/schema" x="0" y="0" width="200px" height="200px" viewBox="0 0 100 100">
<title>47 - Open Babel Depiction</title>
<defs>
<radialGradient id='radialffffff0ccff' cx='50%' cy='50%' r='50%' fx='30%' fy='30%'>
  <stop offset=' 0%' stop-color="rgb(255,255,255)"  stop-opacity='0.8'/>
  <stop offset='100%' stop-color="rgb(12,12,255)"  stop-opacity ='1.0'/>
</radialGradient>
<radialGradient id='radialffffff666666' cx='50%' cy='50%' r='50%' fx='30%' fy='30%'>
  <stop offset=' 0%' stop-color="rgb(255,255,255)"  stop-opacity='0.8'/>
  <stop offset='100%' stop-color="rgb(102,102,102)"  stop-opacity ='1.0'/>
</radialGradient>
<radialGradient id='radialffffffbfbfbf' cx='50%' cy='50%' r='50%' fx='30%' fy='30%'>
  <stop offset=' 0%' stop-color="rgb(255,255,255)"  stop-opacity='0.8'/>
  <stop offset='100%' stop-color="rgb(191,191,191)"  stop-opacity ='1.0'/>
</radialGradient>
<radialGradient id='radialffffffffcc' cx='50%' cy='50%' r='50%' fx='30%' fy='30%'>
  <stop offset=' 0%' stop-color="rgb(255,255,255)"  stop-opacity='0.8'/>
  <stop offset='100%' stop-color="rgb(255,12,12)"  stop-opacity ='1.0'/>
</radialGradient>
</defs>
<g transform="translate(0,0)">
<svg width="100" height="100" x="0" y="0" viewBox="0 0 342.837 279.696"
font-family="sans-serif" stroke="rgb(76,76,76)" stroke-width="2"  stroke-linecap="round">
<line x1="88.7" y1="146.1" x2="98.9" y2="150.3" stroke="rgb(76,76,76)"  stroke-width="2.0"/>
<line x1="298.8" y1="187.7" x2="287.2" y2="208.4" stroke="rgb(76,76,76)"  stroke-width="2.0"/>
<line x1="151.2" y1="219.5" x2="166.6" y2="183.1" stroke="rgb(76,76,76)"  stroke-width="2.0"/>
<line x1="156.7" y1="221.8" x2="172.1" y2="185.5" stroke="rgb(76,76,76)"  stroke-width="2.0"/>
<line x1="302.8" y1="239.7" x2="287.2" y2="208.4" stroke="rgb(76,76,76)"  stroke-width="2.0"/>
<line x1="240.7" y1="212.8" x2="287.2" y2="208.4" stroke="rgb(76,76,76)"  stroke-width="2.0"/>
<line x1="240.7" y1="212.8" x2="218.3" y2="176.3" stroke="rgb(76,76,76)"  stroke-width="2.0"/>
<line x1="169.3" y1="184.3" x2="218.3" y2="176.3" stroke="rgb(76,76,76)"  stroke-width="2.0"/>
<line x1="169.3" y1="184.3" x2="145.5" y2="148.6" stroke="rgb(76,76,76)"  stroke-width="2.0"/>
<line x1="287.2" y1="208.4" x2="297.3" y2="194.3" stroke="rgb(76,76,76)"  stroke-width="2.0"/>
<line x1="98.9" y1="150.3" x2="145.5" y2="148.6" stroke="rgb(76,76,76)"  stroke-width="2.0"/>
<line x1="98.9" y1="150.3" x2="88.0" y2="182.4" stroke="rgb(76,76,76)"  stroke-width="2.0"/>
<line x1="98.9" y1="150.3" x2="77.4" y2="116.5" stroke="rgb(76,76,76)"  stroke-width="2.0"/>
<line x1="215.5" y1="175.1" x2="231.4" y2="139.7" stroke="rgb(76,76,76)"  stroke-width="2.0"/>
<line x1="221.0" y1="177.5" x2="236.9" y2="142.2" stroke="rgb(76,76,76)"  stroke-width="2.0"/>
<line x1="145.5" y1="148.6" x2="160.5" y2="119.5" stroke="rgb(76,76,76)"  stroke-width="2.0"/>
<line x1="40.9" y1="102.2" x2="78.3" y2="113.6" stroke="rgb(76,76,76)"  stroke-width="2.0"/>
<line x1="39.1" y1="107.9" x2="76.5" y2="119.3" stroke="rgb(76,76,76)"  stroke-width="2.0"/>
<line x1="77.4" y1="116.5" x2="104.8" y2="100.7" stroke="rgb(76,76,76)"  stroke-width="2.0"/>
<line x1="104.8" y1="100.7" x2="87.9" y2="67.8" stroke="rgb(76,76,76)"  stroke-width="2.0"/>
<line x1="76.6" y1="40.0" x2="87.9" y2="67.8" stroke="rgb(76,76,76)"  stroke-width="2.0"/>
<line x1="87.9" y1="67.8" x2="60.9" y2="80.3" stroke="rgb(76,76,76)"  stroke-width="2.0"/>
<line x1="87.9" y1="67.8" x2="112.6" y2="56.9" stroke="rgb(76,76,76)"  stroke-width="2.0"/>
<circle cx="88.684916" cy="146.074869" r="2.066667" opacity="1.000000" style="stroke:black;fill:url(#radialffffffbfbfbf)"/>
<circle cx="298.771405" cy="187.688557" r="2.066667" opacity="1.000000" style="stroke:black;fill:url(#radialffffffbfbfbf)"/>
<circle cx="153.969458" cy="220.623041" r="4.400000" opacity="1.000000" style="stroke:black;fill:url(#radialffffffffcc)"/>
<circle cx="302.836553" cy="239.695982" r="2.066667" opacity="1.000000" style="stroke:black;fill:url(#radialffffffbfbfbf)"/>
<circle cx="240.745365" cy="212.796258" r="4.400000" opacity="1.000000" style="stroke:black;fill:url(#radialffffffffcc)"/>
<circle cx="169.322739" cy="184.288556" r="5.066667" opacity="1.000000" style="stroke:black;fill:url(#radialffffff666666)"/>
<circle cx="287.228191" cy="208.388849" r="5.066667" opacity="1.000000" style="stroke:black;fill:url(#radialffffff666666)"/>
<circle cx="98.897835" cy="150.343436" r="5.066667" opacity="1.000000" style="stroke:black;fill:url(#radialffffff666666)"/>
<circle cx="218.262736" cy="176.313245" r="5.066667" opacity="1.000000" style="stroke:black;fill:url(#radialffffff666666)"/>
<circle cx="145.532418" cy="148.615990" r="4.733333" opacity="1.000000" style="stroke:black;fill:url(#radialffffff0ccff)"/>
<circle cx="234.119722" cy="140.928048" r="4.400000" opacity="1.000000" style="stroke:black;fill:url(#radialffffffffcc)"/>
<circle cx="160.507922" cy="119.485116" r="2.066667" opacity="1.000000" style="stroke:black;fill:url(#radialffffffbfbfbf)"/>
<circle cx="88.039142" cy="182.370607" r="2.066667" opacity="1.000000" style="stroke:black;fill:url(#radialffffffbfbfbf)"/>
<circle cx="40.000000" cy="105.042376" r="4.400000" opacity="1.000000" style="stroke:black;fill:url(#radialffffffffcc)"/>
<circle cx="77.396783" cy="116.459664" r="5.066667" opacity="1.000000" style="stroke:black;fill:url(#radialffffff666666)"/>
<circle cx="297.250607" cy="194.262539" r="2.066667" opacity="1.000000" style="stroke:black;fill:url(#radialffffffbfbfbf)"/>
<circle cx="104.848644" cy="100.654341" r="5.619840" opacity="1.000000" style="stroke:black;fill:url(#radialffffffffcc)"/>
<circle cx="76.628312" cy="40.000000" r="2.940709" opacity="1.000000" style="stroke:black;fill:url(#radialffffffbfbfbf)"/>
<circle cx="87.893843" cy="67.797350" r="8.522571" opacity="1.000000" style="stroke:black;fill:url(#radialffffff666666)"/>
<circle cx="60.894024" cy="80.270479" r="4.023830" opacity="1.000000" style="stroke:black;fill:url(#radialffffffbfbfbf)"/>
<circle cx="112.610850" cy="56.854706" r="4.133333" opacity="1.000000" style="stroke:black;fill:url(#radialffffffbfbfbf)"/>
</svg>
</g>
</svg>
