<?xml version="1.0"?>
<svg version="1.1" id="topsvg"
xmlns="http://www.w3.org/2000/svg" xmlns:xlink="http://www.w3.org/1999/xlink"
xmlns:cml="http://www.xml-cml.org/schema" x="0" y="0" width="200px" height="200px" viewBox="0 0 100 100">
<title>9 - Open Babel Depiction</title>
<defs>
<radialGradient id='radialffffff0ccff' cx='50%' cy='50%' r='50%' fx='30%' fy='30%'>
  <stop offset=' 0%' stop-color="rgb(255,255,255)"  stop-opacity='0.8'/>
  <stop offset='100%' stop-color="rgb(12,12,255)"  stop-opacity ='1.0'/>
</radialGradient>
<radialGradient id='radialffffff666666' cx='50%' cy='50%' r='50%' fx='30%' fy='30%'>
  <stop offset=' 0%' stop-color="rgb(255,255,255)"  stop-opacity='0.8'/>
  <stop offset='100%' stop-color="rgb(102,102,102)"  stop-opacity ='1.0'/>
</radialGradient>
<radialGradient id='radialffffffbfbfbf' cx='50%' cy='50%' r='50%' fx='30%' fy='30%'>
  <stop offset=' 0%' stop-color="rgb(255,255,255)"  stop-opacity='0.8'/>
  <stop offset='100%' stop-color="rgb(191,191,191)"  stop-opacity ='1.0'/>
</radialGradient>
<radialGradient id='radialffffffffcc' cx='50%' cy='50%' r='50%' fx='30%' fy='30%'>
  <stop offset=' 0%' stop-color="rgb(255,255,255)"  stop-opacity='0.8'/>
  <stop offset='100%' stop-color="rgb(255,12,12)"  stop-opacity ='1.0'/>
</radialGradient>
</defs>
<g transform="translate(0,0)">
<svg width="100" height="100" x="0" y="0" viewBox="0 0 337.131 219.038"
font-family="sans-serif" stroke="rgb(76,76,76)" stroke-width="2"  stroke-linecap="round">
<line x1="151.3" y1="86.0" x2="170.7" y2="110.2" stroke="rgb(76,76,76)"  stroke-width="2.0"/>
<line x1="146.6" y1="89.8" x2="166.1" y2="114.0" stroke="rgb(76,76,76)"  stroke-width="2.0"/>
<line x1="241.7" y1="85.9" x2="220.2" y2="111.4" stroke="rgb(76,76,76)"  stroke-width="2.0"/>
<line x1="237.1" y1="82.0" x2="215.6" y2="107.5" stroke="rgb(76,76,76)"  stroke-width="2.0"/>
<line x1="90.6" y1="137.5" x2="101.5" y2="145.4" stroke="rgb(76,76,76)"  stroke-width="2.0"/>
<line x1="168.4" y1="112.1" x2="217.9" y2="109.4" stroke="rgb(76,76,76)"  stroke-width="2.0"/>
<line x1="168.4" y1="112.1" x2="148.0" y2="141.5" stroke="rgb(76,76,76)"  stroke-width="2.0"/>
<line x1="217.9" y1="109.4" x2="234.6" y2="137.5" stroke="rgb(76,76,76)"  stroke-width="2.0"/>
<line x1="297.1" y1="142.5" x2="281.0" y2="136.0" stroke="rgb(76,76,76)"  stroke-width="2.0"/>
<line x1="101.5" y1="145.4" x2="148.0" y2="141.5" stroke="rgb(76,76,76)"  stroke-width="2.0"/>
<line x1="101.5" y1="145.4" x2="92.4" y2="179.0" stroke="rgb(76,76,76)"  stroke-width="2.0"/>
<line x1="101.5" y1="145.4" x2="78.8" y2="116.4" stroke="rgb(76,76,76)"  stroke-width="2.0"/>
<line x1="148.0" y1="141.5" x2="164.5" y2="161.0" stroke="rgb(76,76,76)"  stroke-width="2.0"/>
<line x1="234.6" y1="137.5" x2="281.0" y2="136.0" stroke="rgb(76,76,76)"  stroke-width="2.0"/>
<line x1="281.0" y1="136.0" x2="291.3" y2="104.4" stroke="rgb(76,76,76)"  stroke-width="2.0"/>
<line x1="281.0" y1="136.0" x2="291.7" y2="159.9" stroke="rgb(76,76,76)"  stroke-width="2.0"/>
<line x1="78.7" y1="119.4" x2="39.9" y2="118.2" stroke="rgb(76,76,76)"  stroke-width="2.0"/>
<line x1="78.9" y1="113.4" x2="40.1" y2="112.2" stroke="rgb(76,76,76)"  stroke-width="2.0"/>
<line x1="78.8" y1="116.4" x2="107.0" y2="92.0" stroke="rgb(76,76,76)"  stroke-width="2.0"/>
<line x1="107.0" y1="92.0" x2="89.2" y2="62.6" stroke="rgb(76,76,76)"  stroke-width="2.0"/>
<line x1="67.0" y1="40.0" x2="89.2" y2="62.6" stroke="rgb(76,76,76)"  stroke-width="2.0"/>
<line x1="89.2" y1="62.6" x2="114.7" y2="44.1" stroke="rgb(76,76,76)"  stroke-width="2.0"/>
<line x1="89.2" y1="62.6" x2="71.6" y2="80.1" stroke="rgb(76,76,76)"  stroke-width="2.0"/>
<circle cx="148.983522" cy="87.898779" r="4.400000" opacity="1.000000" style="stroke:black;fill:url(#radialffffffffcc)"/>
<circle cx="239.380808" cy="83.941376" r="4.400000" opacity="1.000000" style="stroke:black;fill:url(#radialffffffffcc)"/>
<circle cx="90.555340" cy="137.505117" r="2.066667" opacity="1.000000" style="stroke:black;fill:url(#radialffffffbfbfbf)"/>
<circle cx="168.396101" cy="112.075736" r="5.066667" opacity="1.000000" style="stroke:black;fill:url(#radialffffff666666)"/>
<circle cx="217.889462" cy="109.438543" r="5.066667" opacity="1.000000" style="stroke:black;fill:url(#radialffffff666666)"/>
<circle cx="297.131132" cy="142.530954" r="2.066667" opacity="1.000000" style="stroke:black;fill:url(#radialffffffbfbfbf)"/>
<circle cx="101.485002" cy="145.429607" r="5.066667" opacity="1.000000" style="stroke:black;fill:url(#radialffffff666666)"/>
<circle cx="147.973190" cy="141.494799" r="4.733333" opacity="1.000000" style="stroke:black;fill:url(#radialffffff0ccff)"/>
<circle cx="92.440432" cy="179.038481" r="2.066667" opacity="1.000000" style="stroke:black;fill:url(#radialffffffbfbfbf)"/>
<circle cx="234.606747" cy="137.492205" r="4.400000" opacity="1.000000" style="stroke:black;fill:url(#radialffffffffcc)"/>
<circle cx="281.011009" cy="135.997688" r="5.066667" opacity="1.000000" style="stroke:black;fill:url(#radialffffff666666)"/>
<circle cx="164.538763" cy="160.955796" r="2.066667" opacity="1.000000" style="stroke:black;fill:url(#radialffffffbfbfbf)"/>
<circle cx="291.285409" cy="104.354604" r="2.066667" opacity="1.000000" style="stroke:black;fill:url(#radialffffffbfbfbf)"/>
<circle cx="78.792879" cy="116.426943" r="5.102874" opacity="1.000000" style="stroke:black;fill:url(#radialffffff666666)"/>
<circle cx="40.000000" cy="115.200341" r="4.755504" opacity="1.000000" style="stroke:black;fill:url(#radialffffffffcc)"/>
<circle cx="291.714719" cy="159.926097" r="2.269927" opacity="1.000000" style="stroke:black;fill:url(#radialffffffbfbfbf)"/>
<circle cx="107.033759" cy="92.020805" r="5.622636" opacity="1.000000" style="stroke:black;fill:url(#radialffffffffcc)"/>
<circle cx="66.994912" cy="40.000000" r="3.074347" opacity="1.000000" style="stroke:black;fill:url(#radialffffffbfbfbf)"/>
<circle cx="89.180255" cy="62.592059" r="8.522021" opacity="1.000000" style="stroke:black;fill:url(#radialffffff666666)"/>
<circle cx="114.658054" cy="44.102658" r="3.887987" opacity="1.000000" style="stroke:black;fill:url(#radialffffffbfbfbf)"/>
<circle cx="71.633401" cy="80.132457" r="4.133333" opacity="1.000000" style="stroke:black;fill:url(#radialffffffbfbfbf)"/>
</svg>
</g>
</svg>
