<?xml version="1.0"?>
<svg version="1.1" id="topsvg"
xmlns="http://www.w3.org/2000/svg" xmlns:xlink="http://www.w3.org/1999/xlink"
xmlns:cml="http://www.xml-cml.org/schema" x="0" y="0" width="200px" height="200px" viewBox="0 0 100 100">
<title>27 - Open Babel Depiction</title>
<defs>
<radialGradient id='radialffffff0ccff' cx='50%' cy='50%' r='50%' fx='30%' fy='30%'>
  <stop offset=' 0%' stop-color="rgb(255,255,255)"  stop-opacity='0.8'/>
  <stop offset='100%' stop-color="rgb(12,12,255)"  stop-opacity ='1.0'/>
</radialGradient>
<radialGradient id='radialffffff666666' cx='50%' cy='50%' r='50%' fx='30%' fy='30%'>
  <stop offset=' 0%' stop-color="rgb(255,255,255)"  stop-opacity='0.8'/>
  <stop offset='100%' stop-color="rgb(102,102,102)"  stop-opacity ='1.0'/>
</radialGradient>
<radialGradient id='radialffffffbfbfbf' cx='50%' cy='50%' r='50%' fx='30%' fy='30%'>
  <stop offset=' 0%' stop-color="rgb(255,255,255)"  stop-opacity='0.8'/>
  <stop offset='100%' stop-color="rgb(191,191,191)"  stop-opacity ='1.0'/>
</radialGradient>
<radialGradient id='radialffffffffcc' cx='50%' cy='50%' r='50%' fx='30%' fy='30%'>
  <stop offset=' 0%' stop-color="rgb(255,255,255)"  stop-opacity='0.8'/>
  <stop offset='100%' stop-color="rgb(255,12,12)"  stop-opacity ='1.0'/>
</radialGradient>
</defs>
<g transform="translate(0,0)">
<svg width="100" height="100" x="0" y="0" viewBox="0 0 349.285 238.654"
font-family="sans-serif" stroke="rgb(76,76,76)" stroke-width="2"  stroke-linecap="round">
<line x1="108.2" y1="119.9" x2="116.1" y2="124.9" stroke="rgb(76,76,76)"  stroke-width="2.0"/>
<line x1="181.3" y1="106.1" x2="162.5" y2="126.3" stroke="rgb(76,76,76)"  stroke-width="2.0"/>
<line x1="116.1" y1="124.9" x2="162.5" y2="126.3" stroke="rgb(76,76,76)"  stroke-width="2.0"/>
<line x1="116.1" y1="124.9" x2="102.4" y2="156.1" stroke="rgb(76,76,76)"  stroke-width="2.0"/>
<line x1="116.1" y1="124.9" x2="95.3" y2="89.6" stroke="rgb(76,76,76)"  stroke-width="2.0"/>
<line x1="162.5" y1="126.3" x2="181.1" y2="152.8" stroke="rgb(76,76,76)"  stroke-width="2.0"/>
<line x1="253.4" y1="127.2" x2="232.9" y2="151.5" stroke="rgb(76,76,76)"  stroke-width="2.0"/>
<line x1="248.9" y1="123.3" x2="228.3" y2="147.6" stroke="rgb(76,76,76)"  stroke-width="2.0"/>
<line x1="86.0" y1="54.1" x2="98.2" y2="88.6" stroke="rgb(76,76,76)"  stroke-width="2.0"/>
<line x1="80.4" y1="56.1" x2="92.5" y2="90.6" stroke="rgb(76,76,76)"  stroke-width="2.0"/>
<line x1="95.3" y1="89.6" x2="92.2" y2="101.2" stroke="rgb(76,76,76)"  stroke-width="2.0"/>
<line x1="181.1" y1="152.8" x2="230.6" y2="149.6" stroke="rgb(76,76,76)"  stroke-width="2.0"/>
<line x1="183.4" y1="154.7" x2="163.2" y2="179.7" stroke="rgb(76,76,76)"  stroke-width="2.0"/>
<line x1="178.8" y1="150.9" x2="158.6" y2="176.0" stroke="rgb(76,76,76)"  stroke-width="2.0"/>
<line x1="230.6" y1="149.6" x2="247.9" y2="176.5" stroke="rgb(76,76,76)"  stroke-width="2.0"/>
<line x1="309.3" y1="183.9" x2="294.5" y2="175.7" stroke="rgb(76,76,76)"  stroke-width="2.0"/>
<line x1="247.9" y1="176.5" x2="294.5" y2="175.7" stroke="rgb(76,76,76)"  stroke-width="2.0"/>
<line x1="294.5" y1="175.7" x2="305.7" y2="143.7" stroke="rgb(76,76,76)"  stroke-width="2.0"/>
<line x1="294.5" y1="175.7" x2="305.7" y2="198.7" stroke="rgb(76,76,76)"  stroke-width="2.0"/>
<line x1="92.2" y1="101.2" x2="72.9" y2="69.9" stroke="rgb(76,76,76)"  stroke-width="2.0"/>
<line x1="40.0" y1="62.5" x2="72.9" y2="69.9" stroke="rgb(76,76,76)"  stroke-width="2.0"/>
<line x1="72.9" y1="69.9" x2="91.3" y2="40.0" stroke="rgb(76,76,76)"  stroke-width="2.0"/>
<line x1="72.9" y1="69.9" x2="71.8" y2="82.2" stroke="rgb(76,76,76)"  stroke-width="2.0"/>
<circle cx="108.171291" cy="119.901803" r="2.066667" opacity="1.000000" style="stroke:black;fill:url(#radialffffffbfbfbf)"/>
<circle cx="181.276308" cy="106.137099" r="2.066667" opacity="1.000000" style="stroke:black;fill:url(#radialffffffbfbfbf)"/>
<circle cx="116.056210" cy="124.890419" r="5.066667" opacity="1.000000" style="stroke:black;fill:url(#radialffffff666666)"/>
<circle cx="162.487469" cy="126.343414" r="4.733333" opacity="1.000000" style="stroke:black;fill:url(#radialffffff0ccff)"/>
<circle cx="102.430347" cy="156.110436" r="2.066667" opacity="1.000000" style="stroke:black;fill:url(#radialffffffbfbfbf)"/>
<circle cx="251.142760" cy="125.255282" r="4.400000" opacity="1.000000" style="stroke:black;fill:url(#radialffffffffcc)"/>
<circle cx="83.195924" cy="55.075629" r="4.400000" opacity="1.000000" style="stroke:black;fill:url(#radialffffffffcc)"/>
<circle cx="95.336503" cy="89.640763" r="5.066667" opacity="1.000000" style="stroke:black;fill:url(#radialffffff666666)"/>
<circle cx="181.089033" cy="152.829897" r="5.066667" opacity="1.000000" style="stroke:black;fill:url(#radialffffff666666)"/>
<circle cx="230.603870" cy="149.565501" r="5.066667" opacity="1.000000" style="stroke:black;fill:url(#radialffffff666666)"/>
<circle cx="309.285158" cy="183.943360" r="2.066667" opacity="1.000000" style="stroke:black;fill:url(#radialffffffbfbfbf)"/>
<circle cx="160.892404" cy="177.850469" r="4.887285" opacity="1.000000" style="stroke:black;fill:url(#radialffffffffcc)"/>
<circle cx="247.862220" cy="176.533087" r="5.243619" opacity="1.000000" style="stroke:black;fill:url(#radialffffffffcc)"/>
<circle cx="294.461381" cy="175.664518" r="6.243969" opacity="1.000000" style="stroke:black;fill:url(#radialffffff666666)"/>
<circle cx="92.240010" cy="101.242120" r="5.480479" opacity="1.000000" style="stroke:black;fill:url(#radialffffffffcc)"/>
<circle cx="305.691417" cy="143.708318" r="2.782375" opacity="1.000000" style="stroke:black;fill:url(#radialffffffbfbfbf)"/>
<circle cx="40.000000" cy="62.498819" r="3.047927" opacity="1.000000" style="stroke:black;fill:url(#radialffffffbfbfbf)"/>
<circle cx="305.665586" cy="198.654127" r="3.156239" opacity="1.000000" style="stroke:black;fill:url(#radialffffffbfbfbf)"/>
<circle cx="72.850600" cy="69.905864" r="8.092729" opacity="1.000000" style="stroke:black;fill:url(#radialffffff666666)"/>
<circle cx="91.281033" cy="40.000000" r="3.302779" opacity="1.000000" style="stroke:black;fill:url(#radialffffffbfbfbf)"/>
<circle cx="71.765697" cy="82.172369" r="4.133333" opacity="1.000000" style="stroke:black;fill:url(#radialffffffbfbfbf)"/>
</svg>
</g>
</svg>
