<?xml version="1.0"?>
<svg version="1.1" id="topsvg"
xmlns="http://www.w3.org/2000/svg" xmlns:xlink="http://www.w3.org/1999/xlink"
xmlns:cml="http://www.xml-cml.org/schema" x="0" y="0" width="200px" height="200px" viewBox="0 0 100 100">
<title>30 - Open Babel Depiction</title>
<defs>
<radialGradient id='radialffffff0ccff' cx='50%' cy='50%' r='50%' fx='30%' fy='30%'>
  <stop offset=' 0%' stop-color="rgb(255,255,255)"  stop-opacity='0.8'/>
  <stop offset='100%' stop-color="rgb(12,12,255)"  stop-opacity ='1.0'/>
</radialGradient>
<radialGradient id='radialffffff666666' cx='50%' cy='50%' r='50%' fx='30%' fy='30%'>
  <stop offset=' 0%' stop-color="rgb(255,255,255)"  stop-opacity='0.8'/>
  <stop offset='100%' stop-color="rgb(102,102,102)"  stop-opacity ='1.0'/>
</radialGradient>
<radialGradient id='radialffffffbfbfbf' cx='50%' cy='50%' r='50%' fx='30%' fy='30%'>
  <stop offset=' 0%' stop-color="rgb(255,255,255)"  stop-opacity='0.8'/>
  <stop offset='100%' stop-color="rgb(191,191,191)"  stop-opacity ='1.0'/>
</radialGradient>
<radialGradient id='radialffffffffcc' cx='50%' cy='50%' r='50%' fx='30%' fy='30%'>
  <stop offset=' 0%' stop-color="rgb(255,255,255)"  stop-opacity='0.8'/>
  <stop offset='100%' stop-color="rgb(255,12,12)"  stop-opacity ='1.0'/>
</radialGradient>
</defs>
<g transform="translate(0,0)">
<svg width="100" height="100" x="0" y="0" viewBox="0 0 394.812 189.692"
font-family="sans-serif" stroke="rgb(76,76,76)" stroke-width="2"  stroke-linecap="round">
<line x1="213.7" y1="38.4" x2="230.8" y2="64.3" stroke="rgb(76,76,76)"  stroke-width="2.0"/>
<line x1="208.7" y1="41.6" x2="225.8" y2="67.6" stroke="rgb(76,76,76)"  stroke-width="2.0"/>
<line x1="303.4" y1="43.4" x2="279.8" y2="68.3" stroke="rgb(76,76,76)"  stroke-width="2.0"/>
<line x1="299.1" y1="39.3" x2="275.4" y2="64.2" stroke="rgb(76,76,76)"  stroke-width="2.0"/>
<line x1="151.1" y1="117.2" x2="158.9" y2="97.0" stroke="rgb(76,76,76)"  stroke-width="2.0"/>
<line x1="228.3" y1="66.0" x2="277.6" y2="66.2" stroke="rgb(76,76,76)"  stroke-width="2.0"/>
<line x1="228.3" y1="66.0" x2="205.3" y2="95.0" stroke="rgb(76,76,76)"  stroke-width="2.0"/>
<line x1="277.6" y1="66.2" x2="291.7" y2="96.0" stroke="rgb(76,76,76)"  stroke-width="2.0"/>
<line x1="146.5" y1="64.5" x2="158.9" y2="97.0" stroke="rgb(76,76,76)"  stroke-width="2.0"/>
<line x1="354.8" y1="103.6" x2="337.8" y2="97.2" stroke="rgb(76,76,76)"  stroke-width="2.0"/>
<line x1="158.9" y1="97.0" x2="205.3" y2="95.0" stroke="rgb(76,76,76)"  stroke-width="2.0"/>
<line x1="158.9" y1="97.0" x2="136.7" y2="115.1" stroke="rgb(76,76,76)"  stroke-width="2.0"/>
<line x1="205.3" y1="95.0" x2="220.1" y2="116.5" stroke="rgb(76,76,76)"  stroke-width="2.0"/>
<line x1="291.7" y1="96.0" x2="337.8" y2="97.2" stroke="rgb(76,76,76)"  stroke-width="2.0"/>
<line x1="337.8" y1="97.2" x2="349.3" y2="66.6" stroke="rgb(76,76,76)"  stroke-width="2.0"/>
<line x1="337.8" y1="97.2" x2="346.3" y2="122.5" stroke="rgb(76,76,76)"  stroke-width="2.0"/>
<line x1="136.7" y1="115.1" x2="96.8" y2="99.6" stroke="rgb(76,76,76)"  stroke-width="2.0"/>
<line x1="139.2" y1="113.5" x2="155.1" y2="139.1" stroke="rgb(76,76,76)"  stroke-width="2.0"/>
<line x1="134.1" y1="116.7" x2="150.0" y2="142.2" stroke="rgb(76,76,76)"  stroke-width="2.0"/>
<line x1="96.8" y1="99.6" x2="72.0" y2="114.8" stroke="rgb(76,76,76)"  stroke-width="2.0"/>
<line x1="68.4" y1="149.7" x2="72.0" y2="114.8" stroke="rgb(76,76,76)"  stroke-width="2.0"/>
<line x1="72.0" y1="114.8" x2="40.0" y2="100.4" stroke="rgb(76,76,76)"  stroke-width="2.0"/>
<line x1="72.0" y1="114.8" x2="87.9" y2="106.4" stroke="rgb(76,76,76)"  stroke-width="2.0"/>
<circle cx="211.214871" cy="40.000000" r="4.400000" opacity="1.000000" style="stroke:black;fill:url(#radialffffffffcc)"/>
<circle cx="301.252531" cy="41.320191" r="4.400000" opacity="1.000000" style="stroke:black;fill:url(#radialffffffffcc)"/>
<circle cx="151.112296" cy="117.229550" r="2.066667" opacity="1.000000" style="stroke:black;fill:url(#radialffffffbfbfbf)"/>
<circle cx="228.280516" cy="65.980968" r="5.066667" opacity="1.000000" style="stroke:black;fill:url(#radialffffff666666)"/>
<circle cx="277.621438" cy="66.223057" r="5.066667" opacity="1.000000" style="stroke:black;fill:url(#radialffffff666666)"/>
<circle cx="146.509381" cy="64.509068" r="2.066667" opacity="1.000000" style="stroke:black;fill:url(#radialffffffbfbfbf)"/>
<circle cx="354.812253" cy="103.562831" r="2.066667" opacity="1.000000" style="stroke:black;fill:url(#radialffffffbfbfbf)"/>
<circle cx="158.939833" cy="97.042573" r="5.066667" opacity="1.000000" style="stroke:black;fill:url(#radialffffff666666)"/>
<circle cx="205.343411" cy="94.954154" r="4.733333" opacity="1.000000" style="stroke:black;fill:url(#radialffffff0ccff)"/>
<circle cx="291.656132" cy="96.032256" r="4.400000" opacity="1.000000" style="stroke:black;fill:url(#radialffffffffcc)"/>
<circle cx="337.820849" cy="97.226560" r="5.066667" opacity="1.000000" style="stroke:black;fill:url(#radialffffff666666)"/>
<circle cx="220.065637" cy="116.535562" r="2.066667" opacity="1.000000" style="stroke:black;fill:url(#radialffffffbfbfbf)"/>
<circle cx="349.273262" cy="66.591032" r="2.143448" opacity="1.000000" style="stroke:black;fill:url(#radialffffffbfbfbf)"/>
<circle cx="136.683804" cy="115.108852" r="5.442926" opacity="1.000000" style="stroke:black;fill:url(#radialffffff666666)"/>
<circle cx="96.835991" cy="99.589347" r="4.928794" opacity="1.000000" style="stroke:black;fill:url(#radialffffffffcc)"/>
<circle cx="346.287500" cy="122.487718" r="2.418206" opacity="1.000000" style="stroke:black;fill:url(#radialffffffbfbfbf)"/>
<circle cx="152.590651" cy="140.650832" r="6.187488" opacity="1.000000" style="stroke:black;fill:url(#radialffffffffcc)"/>
<circle cx="68.369578" cy="149.692042" r="3.281266" opacity="1.000000" style="stroke:black;fill:url(#radialffffffbfbfbf)"/>
<circle cx="72.042871" cy="114.782839" r="8.117706" opacity="1.000000" style="stroke:black;fill:url(#radialffffff666666)"/>
<circle cx="40.000000" cy="100.409221" r="3.315303" opacity="1.000000" style="stroke:black;fill:url(#radialffffffbfbfbf)"/>
<circle cx="87.933579" cy="106.400111" r="4.133333" opacity="1.000000" style="stroke:black;fill:url(#radialffffffbfbfbf)"/>
</svg>
</g>
</svg>
