<?xml version="1.0"?>
<svg version="1.1" id="topsvg"
xmlns="http://www.w3.org/2000/svg" xmlns:xlink="http://www.w3.org/1999/xlink"
xmlns:cml="http://www.xml-cml.org/schema" x="0" y="0" width="200px" height="200px" viewBox="0 0 100 100">
<title>4 - Open Babel Depiction</title>
<defs>
<radialGradient id='radialffffff0ccff' cx='50%' cy='50%' r='50%' fx='30%' fy='30%'>
  <stop offset=' 0%' stop-color="rgb(255,255,255)"  stop-opacity='0.8'/>
  <stop offset='100%' stop-color="rgb(12,12,255)"  stop-opacity ='1.0'/>
</radialGradient>
<radialGradient id='radialffffff666666' cx='50%' cy='50%' r='50%' fx='30%' fy='30%'>
  <stop offset=' 0%' stop-color="rgb(255,255,255)"  stop-opacity='0.8'/>
  <stop offset='100%' stop-color="rgb(102,102,102)"  stop-opacity ='1.0'/>
</radialGradient>
<radialGradient id='radialffffffbfbfbf' cx='50%' cy='50%' r='50%' fx='30%' fy='30%'>
  <stop offset=' 0%' stop-color="rgb(255,255,255)"  stop-opacity='0.8'/>
  <stop offset='100%' stop-color="rgb(191,191,191)"  stop-opacity ='1.0'/>
</radialGradient>
<radialGradient id='radialffffffffcc' cx='50%' cy='50%' r='50%' fx='30%' fy='30%'>
  <stop offset=' 0%' stop-color="rgb(255,255,255)"  stop-opacity='0.8'/>
  <stop offset='100%' stop-color="rgb(255,12,12)"  stop-opacity ='1.0'/>
</radialGradient>
</defs>
<g transform="translate(0,0)">
<svg width="100" height="100" x="0" y="0" viewBox="0 0 397.558 223.62"
font-family="sans-serif" stroke="rgb(76,76,76)" stroke-width="2"  stroke-linecap="round">
<line x1="79.4" y1="143.6" x2="74.4" y2="150.5" stroke="rgb(76,76,76)"  stroke-width="2.0"/>
<line x1="302.8" y1="48.8" x2="281.2" y2="69.8" stroke="rgb(76,76,76)"  stroke-width="2.0"/>
<line x1="298.6" y1="44.5" x2="277.1" y2="65.5" stroke="rgb(76,76,76)"  stroke-width="2.0"/>
<line x1="212.4" y1="38.1" x2="231.8" y2="62.6" stroke="rgb(76,76,76)"  stroke-width="2.0"/>
<line x1="207.7" y1="41.9" x2="227.1" y2="66.3" stroke="rgb(76,76,76)"  stroke-width="2.0"/>
<line x1="157.6" y1="145.8" x2="138.8" y2="122.7" stroke="rgb(76,76,76)"  stroke-width="2.0"/>
<line x1="162.3" y1="142.0" x2="143.4" y2="118.9" stroke="rgb(76,76,76)"  stroke-width="2.0"/>
<line x1="74.4" y1="150.5" x2="84.5" y2="183.6" stroke="rgb(76,76,76)"  stroke-width="2.0"/>
<line x1="74.4" y1="150.5" x2="40.0" y2="148.2" stroke="rgb(76,76,76)"  stroke-width="2.0"/>
<line x1="74.4" y1="150.5" x2="98.5" y2="120.7" stroke="rgb(76,76,76)"  stroke-width="2.0"/>
<line x1="353.8" y1="109.9" x2="342.5" y2="98.9" stroke="rgb(76,76,76)"  stroke-width="2.0"/>
<line x1="279.1" y1="67.6" x2="229.5" y2="64.5" stroke="rgb(76,76,76)"  stroke-width="2.0"/>
<line x1="279.1" y1="67.6" x2="295.9" y2="95.2" stroke="rgb(76,76,76)"  stroke-width="2.0"/>
<line x1="229.5" y1="64.5" x2="209.0" y2="89.3" stroke="rgb(76,76,76)"  stroke-width="2.0"/>
<line x1="141.1" y1="120.8" x2="98.5" y2="120.7" stroke="rgb(76,76,76)"  stroke-width="2.0"/>
<line x1="141.1" y1="120.8" x2="162.3" y2="88.5" stroke="rgb(76,76,76)"  stroke-width="2.0"/>
<line x1="150.8" y1="56.1" x2="162.3" y2="88.5" stroke="rgb(76,76,76)"  stroke-width="2.0"/>
<line x1="342.5" y1="98.9" x2="295.9" y2="95.2" stroke="rgb(76,76,76)"  stroke-width="2.0"/>
<line x1="342.5" y1="98.9" x2="357.6" y2="68.0" stroke="rgb(76,76,76)"  stroke-width="2.0"/>
<line x1="342.5" y1="98.9" x2="353.3" y2="122.0" stroke="rgb(76,76,76)"  stroke-width="2.0"/>
<line x1="209.0" y1="89.3" x2="162.3" y2="88.5" stroke="rgb(76,76,76)"  stroke-width="2.0"/>
<line x1="209.0" y1="89.3" x2="225.6" y2="109.7" stroke="rgb(76,76,76)"  stroke-width="2.0"/>
<line x1="162.3" y1="88.5" x2="152.7" y2="95.3" stroke="rgb(76,76,76)"  stroke-width="2.0"/>
<circle cx="79.408708" cy="143.574953" r="2.066667" opacity="1.000000" style="stroke:black;fill:url(#radialffffffbfbfbf)"/>
<circle cx="300.703013" cy="46.642896" r="4.400000" opacity="1.000000" style="stroke:black;fill:url(#radialffffffffcc)"/>
<circle cx="210.058789" cy="40.000000" r="4.400000" opacity="1.000000" style="stroke:black;fill:url(#radialffffffffcc)"/>
<circle cx="159.962701" cy="143.936472" r="4.400000" opacity="1.000000" style="stroke:black;fill:url(#radialffffffffcc)"/>
<circle cx="74.392643" cy="150.518039" r="5.066667" opacity="1.000000" style="stroke:black;fill:url(#radialffffff666666)"/>
<circle cx="84.463506" cy="183.619546" r="2.066667" opacity="1.000000" style="stroke:black;fill:url(#radialffffffbfbfbf)"/>
<circle cx="40.000000" cy="148.155259" r="2.066667" opacity="1.000000" style="stroke:black;fill:url(#radialffffffbfbfbf)"/>
<circle cx="353.833271" cy="109.853701" r="2.066667" opacity="1.000000" style="stroke:black;fill:url(#radialffffffbfbfbf)"/>
<circle cx="279.147492" cy="67.604494" r="5.066667" opacity="1.000000" style="stroke:black;fill:url(#radialffffff666666)"/>
<circle cx="229.493618" cy="64.476716" r="5.066667" opacity="1.000000" style="stroke:black;fill:url(#radialffffff666666)"/>
<circle cx="141.095972" cy="120.825132" r="5.066667" opacity="1.000000" style="stroke:black;fill:url(#radialffffff666666)"/>
<circle cx="98.536892" cy="120.744436" r="4.521438" opacity="1.000000" style="stroke:black;fill:url(#radialffffffffcc)"/>
<circle cx="150.818228" cy="56.064963" r="2.680444" opacity="1.000000" style="stroke:black;fill:url(#radialffffffbfbfbf)"/>
<circle cx="342.493867" cy="98.940372" r="6.862981" opacity="1.000000" style="stroke:black;fill:url(#radialffffff666666)"/>
<circle cx="295.935492" cy="95.167026" r="5.988785" opacity="1.000000" style="stroke:black;fill:url(#radialffffffffcc)"/>
<circle cx="208.961323" cy="89.295584" r="6.570923" opacity="1.000000" style="stroke:black;fill:url(#radialffffff0ccff)"/>
<circle cx="162.348075" cy="88.530585" r="7.272121" opacity="1.000000" style="stroke:black;fill:url(#radialffffff666666)"/>
<circle cx="357.558199" cy="67.978923" r="3.040845" opacity="1.000000" style="stroke:black;fill:url(#radialffffffbfbfbf)"/>
<circle cx="225.562108" cy="109.737499" r="3.558203" opacity="1.000000" style="stroke:black;fill:url(#radialffffffbfbfbf)"/>
<circle cx="353.326500" cy="122.006522" r="3.644072" opacity="1.000000" style="stroke:black;fill:url(#radialffffffbfbfbf)"/>
<circle cx="152.651642" cy="95.267089" r="4.133333" opacity="1.000000" style="stroke:black;fill:url(#radialffffffbfbfbf)"/>
</svg>
</g>
</svg>
