<?xml version="1.0"?>
<svg version="1.1" id="topsvg"
xmlns="http://www.w3.org/2000/svg" xmlns:xlink="http://www.w3.org/1999/xlink"
xmlns:cml="http://www.xml-cml.org/schema" x="0" y="0" width="200px" height="200px" viewBox="0 0 100 100">
<title>41 - Open Babel Depiction</title>
<defs>
<radialGradient id='radialffffff0ccff' cx='50%' cy='50%' r='50%' fx='30%' fy='30%'>
  <stop offset=' 0%' stop-color="rgb(255,255,255)"  stop-opacity='0.8'/>
  <stop offset='100%' stop-color="rgb(12,12,255)"  stop-opacity ='1.0'/>
</radialGradient>
<radialGradient id='radialffffff666666' cx='50%' cy='50%' r='50%' fx='30%' fy='30%'>
  <stop offset=' 0%' stop-color="rgb(255,255,255)"  stop-opacity='0.8'/>
  <stop offset='100%' stop-color="rgb(102,102,102)"  stop-opacity ='1.0'/>
</radialGradient>
<radialGradient id='radialffffffbfbfbf' cx='50%' cy='50%' r='50%' fx='30%' fy='30%'>
  <stop offset=' 0%' stop-color="rgb(255,255,255)"  stop-opacity='0.8'/>
  <stop offset='100%' stop-color="rgb(191,191,191)"  stop-opacity ='1.0'/>
</radialGradient>
<radialGradient id='radialffffffffcc' cx='50%' cy='50%' r='50%' fx='30%' fy='30%'>
  <stop offset=' 0%' stop-color="rgb(255,255,255)"  stop-opacity='0.8'/>
  <stop offset='100%' stop-color="rgb(255,12,12)"  stop-opacity ='1.0'/>
</radialGradient>
</defs>
<g transform="translate(0,0)">
<svg width="100" height="100" x="0" y="0" viewBox="0 0 337.2 291.189"
font-family="sans-serif" stroke="rgb(76,76,76)" stroke-width="2"  stroke-linecap="round">
<line x1="91.9" y1="76.7" x2="74.1" y2="73.0" stroke="rgb(76,76,76)"  stroke-width="2.0"/>
<line x1="68.6" y1="155.7" x2="83.5" y2="142.8" stroke="rgb(76,76,76)"  stroke-width="2.0"/>
<line x1="72.6" y1="160.2" x2="87.4" y2="147.3" stroke="rgb(76,76,76)"  stroke-width="2.0"/>
<line x1="40.0" y1="77.8" x2="74.1" y2="73.0" stroke="rgb(76,76,76)"  stroke-width="2.0"/>
<line x1="74.1" y1="73.0" x2="78.5" y2="40.0" stroke="rgb(76,76,76)"  stroke-width="2.0"/>
<line x1="74.1" y1="73.0" x2="89.2" y2="103.5" stroke="rgb(76,76,76)"  stroke-width="2.0"/>
<line x1="85.4" y1="145.0" x2="89.2" y2="103.5" stroke="rgb(76,76,76)"  stroke-width="2.0"/>
<line x1="85.4" y1="145.0" x2="102.2" y2="173.3" stroke="rgb(76,76,76)"  stroke-width="2.0"/>
<line x1="166.5" y1="155.9" x2="148.9" y2="175.6" stroke="rgb(76,76,76)"  stroke-width="2.0"/>
<line x1="89.2" y1="206.0" x2="102.2" y2="173.3" stroke="rgb(76,76,76)"  stroke-width="2.0"/>
<line x1="102.2" y1="173.3" x2="148.9" y2="175.6" stroke="rgb(76,76,76)"  stroke-width="2.0"/>
<line x1="102.2" y1="173.3" x2="90.5" y2="160.9" stroke="rgb(76,76,76)"  stroke-width="2.0"/>
<line x1="240.2" y1="178.4" x2="221.1" y2="202.3" stroke="rgb(76,76,76)"  stroke-width="2.0"/>
<line x1="235.5" y1="174.6" x2="216.4" y2="198.5" stroke="rgb(76,76,76)"  stroke-width="2.0"/>
<line x1="148.9" y1="175.6" x2="169.3" y2="202.6" stroke="rgb(76,76,76)"  stroke-width="2.0"/>
<line x1="296.5" y1="236.6" x2="284.5" y2="228.0" stroke="rgb(76,76,76)"  stroke-width="2.0"/>
<line x1="218.8" y1="200.4" x2="169.3" y2="202.6" stroke="rgb(76,76,76)"  stroke-width="2.0"/>
<line x1="218.8" y1="200.4" x2="237.8" y2="227.8" stroke="rgb(76,76,76)"  stroke-width="2.0"/>
<line x1="171.6" y1="204.4" x2="153.0" y2="229.1" stroke="rgb(76,76,76)"  stroke-width="2.0"/>
<line x1="166.9" y1="200.8" x2="148.2" y2="225.5" stroke="rgb(76,76,76)"  stroke-width="2.0"/>
<line x1="284.5" y1="228.0" x2="237.8" y2="227.8" stroke="rgb(76,76,76)"  stroke-width="2.0"/>
<line x1="284.5" y1="228.0" x2="297.2" y2="196.3" stroke="rgb(76,76,76)"  stroke-width="2.0"/>
<line x1="284.5" y1="228.0" x2="297.2" y2="251.2" stroke="rgb(76,76,76)"  stroke-width="2.0"/>
<circle cx="91.875324" cy="76.693090" r="2.066667" opacity="1.000000" style="stroke:black;fill:url(#radialffffffbfbfbf)"/>
<circle cx="70.603406" cy="157.990048" r="4.400000" opacity="1.000000" style="stroke:black;fill:url(#radialffffffffcc)"/>
<circle cx="40.000000" cy="77.839346" r="2.066667" opacity="1.000000" style="stroke:black;fill:url(#radialffffffbfbfbf)"/>
<circle cx="74.132582" cy="72.986326" r="5.066667" opacity="1.000000" style="stroke:black;fill:url(#radialffffff666666)"/>
<circle cx="78.475437" cy="40.000000" r="2.066667" opacity="1.000000" style="stroke:black;fill:url(#radialffffffbfbfbf)"/>
<circle cx="85.433692" cy="145.026060" r="5.066667" opacity="1.000000" style="stroke:black;fill:url(#radialffffff666666)"/>
<circle cx="89.188889" cy="103.538070" r="4.400000" opacity="1.000000" style="stroke:black;fill:url(#radialffffffffcc)"/>
<circle cx="166.478796" cy="155.865439" r="2.066667" opacity="1.000000" style="stroke:black;fill:url(#radialffffffbfbfbf)"/>
<circle cx="89.179202" cy="206.026224" r="2.133176" opacity="1.000000" style="stroke:black;fill:url(#radialffffffbfbfbf)"/>
<circle cx="102.227141" cy="173.343413" r="5.481682" opacity="1.000000" style="stroke:black;fill:url(#radialffffff666666)"/>
<circle cx="237.834005" cy="176.485122" r="4.784096" opacity="1.000000" style="stroke:black;fill:url(#radialffffffffcc)"/>
<circle cx="148.874895" cy="175.568117" r="5.184846" opacity="1.000000" style="stroke:black;fill:url(#radialffffff0ccff)"/>
<circle cx="296.464165" cy="236.642545" r="2.729540" opacity="1.000000" style="stroke:black;fill:url(#radialffffffbfbfbf)"/>
<circle cx="218.754502" cy="200.398271" r="7.027585" opacity="1.000000" style="stroke:black;fill:url(#radialffffff666666)"/>
<circle cx="169.255640" cy="202.580999" r="7.213272" opacity="1.000000" style="stroke:black;fill:url(#radialffffff666666)"/>
<circle cx="90.541793" cy="160.863759" r="3.027721" opacity="1.000000" style="stroke:black;fill:url(#radialffffffbfbfbf)"/>
<circle cx="284.497903" cy="227.982666" r="8.686436" opacity="1.000000" style="stroke:black;fill:url(#radialffffff666666)"/>
<circle cx="237.779114" cy="227.795391" r="7.578753" opacity="1.000000" style="stroke:black;fill:url(#radialffffffffcc)"/>
<circle cx="150.579748" cy="227.272311" r="7.617004" opacity="1.000000" style="stroke:black;fill:url(#radialffffffffcc)"/>
<circle cx="297.200351" cy="196.278209" r="3.752901" opacity="1.000000" style="stroke:black;fill:url(#radialffffffbfbfbf)"/>
<circle cx="297.184207" cy="251.188689" r="4.133333" opacity="1.000000" style="stroke:black;fill:url(#radialffffffbfbfbf)"/>
</svg>
</g>
</svg>
