<?xml version="1.0"?>
<svg version="1.1" id="topsvg"
xmlns="http://www.w3.org/2000/svg" xmlns:xlink="http://www.w3.org/1999/xlink"
xmlns:cml="http://www.xml-cml.org/schema" x="0" y="0" width="200px" height="200px" viewBox="0 0 100 100">
<title>42 - Open Babel Depiction</title>
<defs>
<radialGradient id='radialffffff0ccff' cx='50%' cy='50%' r='50%' fx='30%' fy='30%'>
  <stop offset=' 0%' stop-color="rgb(255,255,255)"  stop-opacity='0.8'/>
  <stop offset='100%' stop-color="rgb(12,12,255)"  stop-opacity ='1.0'/>
</radialGradient>
<radialGradient id='radialffffff666666' cx='50%' cy='50%' r='50%' fx='30%' fy='30%'>
  <stop offset=' 0%' stop-color="rgb(255,255,255)"  stop-opacity='0.8'/>
  <stop offset='100%' stop-color="rgb(102,102,102)"  stop-opacity ='1.0'/>
</radialGradient>
<radialGradient id='radialffffffbfbfbf' cx='50%' cy='50%' r='50%' fx='30%' fy='30%'>
  <stop offset=' 0%' stop-color="rgb(255,255,255)"  stop-opacity='0.8'/>
  <stop offset='100%' stop-color="rgb(191,191,191)"  stop-opacity ='1.0'/>
</radialGradient>
<radialGradient id='radialffffffffcc' cx='50%' cy='50%' r='50%' fx='30%' fy='30%'>
  <stop offset=' 0%' stop-color="rgb(255,255,255)"  stop-opacity='0.8'/>
  <stop offset='100%' stop-color="rgb(255,12,12)"  stop-opacity ='1.0'/>
</radialGradient>
</defs>
<g transform="translate(0,0)">
<svg width="100" height="100" x="0" y="0" viewBox="0 0 385.372 171.369"
font-family="sans-serif" stroke="rgb(76,76,76)" stroke-width="2"  stroke-linecap="round">
<line x1="90.6" y1="55.3" x2="71.3" y2="68.8" stroke="rgb(76,76,76)"  stroke-width="2.0"/>
<line x1="66.3" y1="102.9" x2="71.3" y2="68.8" stroke="rgb(76,76,76)"  stroke-width="2.0"/>
<line x1="40.0" y1="52.9" x2="71.3" y2="68.8" stroke="rgb(76,76,76)"  stroke-width="2.0"/>
<line x1="71.3" y1="68.8" x2="92.6" y2="62.9" stroke="rgb(76,76,76)"  stroke-width="2.0"/>
<line x1="146.7" y1="103.6" x2="129.1" y2="82.9" stroke="rgb(76,76,76)"  stroke-width="2.0"/>
<line x1="151.2" y1="99.7" x2="133.6" y2="79.0" stroke="rgb(76,76,76)"  stroke-width="2.0"/>
<line x1="92.6" y1="62.9" x2="131.3" y2="81.0" stroke="rgb(76,76,76)"  stroke-width="2.0"/>
<line x1="131.3" y1="81.0" x2="149.9" y2="72.6" stroke="rgb(76,76,76)"  stroke-width="2.0"/>
<line x1="214.2" y1="67.4" x2="196.4" y2="76.7" stroke="rgb(76,76,76)"  stroke-width="2.0"/>
<line x1="149.9" y1="72.6" x2="196.4" y2="76.7" stroke="rgb(76,76,76)"  stroke-width="2.0"/>
<line x1="149.9" y1="72.6" x2="140.9" y2="40.0" stroke="rgb(76,76,76)"  stroke-width="2.0"/>
<line x1="149.9" y1="72.6" x2="135.7" y2="95.5" stroke="rgb(76,76,76)"  stroke-width="2.0"/>
<line x1="286.8" y1="84.4" x2="267.5" y2="95.4" stroke="rgb(76,76,76)"  stroke-width="2.0"/>
<line x1="283.8" y1="79.2" x2="264.5" y2="90.2" stroke="rgb(76,76,76)"  stroke-width="2.0"/>
<line x1="196.4" y1="76.7" x2="216.5" y2="91.4" stroke="rgb(76,76,76)"  stroke-width="2.0"/>
<line x1="266.0" y1="92.8" x2="216.5" y2="91.4" stroke="rgb(76,76,76)"  stroke-width="2.0"/>
<line x1="266.0" y1="92.8" x2="284.7" y2="107.7" stroke="rgb(76,76,76)"  stroke-width="2.0"/>
<line x1="218.1" y1="93.9" x2="199.2" y2="105.4" stroke="rgb(76,76,76)"  stroke-width="2.0"/>
<line x1="215.0" y1="88.8" x2="196.1" y2="100.2" stroke="rgb(76,76,76)"  stroke-width="2.0"/>
<line x1="342.2" y1="131.4" x2="331.3" y2="110.1" stroke="rgb(76,76,76)"  stroke-width="2.0"/>
<line x1="345.4" y1="78.3" x2="331.3" y2="110.1" stroke="rgb(76,76,76)"  stroke-width="2.0"/>
<line x1="331.3" y1="110.1" x2="284.7" y2="107.7" stroke="rgb(76,76,76)"  stroke-width="2.0"/>
<line x1="331.3" y1="110.1" x2="343.8" y2="122.5" stroke="rgb(76,76,76)"  stroke-width="2.0"/>
<circle cx="90.631177" cy="55.288478" r="2.066667" opacity="1.000000" style="stroke:black;fill:url(#radialffffffbfbfbf)"/>
<circle cx="66.331053" cy="102.936222" r="2.066667" opacity="1.000000" style="stroke:black;fill:url(#radialffffffbfbfbf)"/>
<circle cx="40.000000" cy="52.915293" r="2.066667" opacity="1.000000" style="stroke:black;fill:url(#radialffffffbfbfbf)"/>
<circle cx="71.329272" cy="68.807561" r="5.066667" opacity="1.000000" style="stroke:black;fill:url(#radialffffff666666)"/>
<circle cx="148.959869" cy="101.605947" r="4.400000" opacity="1.000000" style="stroke:black;fill:url(#radialffffffffcc)"/>
<circle cx="92.623361" cy="62.898814" r="4.400000" opacity="1.000000" style="stroke:black;fill:url(#radialffffffffcc)"/>
<circle cx="131.343409" cy="80.980224" r="5.066667" opacity="1.000000" style="stroke:black;fill:url(#radialffffff666666)"/>
<circle cx="214.207929" cy="67.383650" r="2.066667" opacity="1.000000" style="stroke:black;fill:url(#radialffffffbfbfbf)"/>
<circle cx="149.905914" cy="72.646632" r="5.489548" opacity="1.000000" style="stroke:black;fill:url(#radialffffff666666)"/>
<circle cx="285.258184" cy="81.761600" r="4.774978" opacity="1.000000" style="stroke:black;fill:url(#radialffffffffcc)"/>
<circle cx="196.426799" cy="76.721407" r="5.185518" opacity="1.000000" style="stroke:black;fill:url(#radialffffff0ccff)"/>
<circle cx="140.878124" cy="40.000000" r="2.440131" opacity="1.000000" style="stroke:black;fill:url(#radialffffffbfbfbf)"/>
<circle cx="135.676490" cy="95.516387" r="2.685598" opacity="1.000000" style="stroke:black;fill:url(#radialffffffbfbfbf)"/>
<circle cx="265.975652" cy="92.836463" r="7.025749" opacity="1.000000" style="stroke:black;fill:url(#radialffffff666666)"/>
<circle cx="216.529453" cy="91.360891" r="7.221634" opacity="1.000000" style="stroke:black;fill:url(#radialffffff666666)"/>
<circle cx="342.214626" cy="131.369240" r="3.042926" opacity="1.000000" style="stroke:black;fill:url(#radialffffffbfbfbf)"/>
<circle cx="345.372415" cy="78.335818" r="3.438230" opacity="1.000000" style="stroke:black;fill:url(#radialffffffbfbfbf)"/>
<circle cx="331.349636" cy="110.091295" r="8.685473" opacity="1.000000" style="stroke:black;fill:url(#radialffffff666666)"/>
<circle cx="284.696369" cy="107.650304" r="7.579738" opacity="1.000000" style="stroke:black;fill:url(#radialffffffffcc)"/>
<circle cx="197.669896" cy="102.800612" r="7.636709" opacity="1.000000" style="stroke:black;fill:url(#radialffffffffcc)"/>
<circle cx="343.758003" cy="122.509349" r="4.133333" opacity="1.000000" style="stroke:black;fill:url(#radialffffffbfbfbf)"/>
</svg>
</g>
</svg>
