<?xml version="1.0"?>
<svg version="1.1" id="topsvg"
xmlns="http://www.w3.org/2000/svg" xmlns:xlink="http://www.w3.org/1999/xlink"
xmlns:cml="http://www.xml-cml.org/schema" x="0" y="0" width="200px" height="200px" viewBox="0 0 100 100">
<title>45 - Open Babel Depiction</title>
<defs>
<radialGradient id='radialffffff0ccff' cx='50%' cy='50%' r='50%' fx='30%' fy='30%'>
  <stop offset=' 0%' stop-color="rgb(255,255,255)"  stop-opacity='0.8'/>
  <stop offset='100%' stop-color="rgb(12,12,255)"  stop-opacity ='1.0'/>
</radialGradient>
<radialGradient id='radialffffff666666' cx='50%' cy='50%' r='50%' fx='30%' fy='30%'>
  <stop offset=' 0%' stop-color="rgb(255,255,255)"  stop-opacity='0.8'/>
  <stop offset='100%' stop-color="rgb(102,102,102)"  stop-opacity ='1.0'/>
</radialGradient>
<radialGradient id='radialffffffbfbfbf' cx='50%' cy='50%' r='50%' fx='30%' fy='30%'>
  <stop offset=' 0%' stop-color="rgb(255,255,255)"  stop-opacity='0.8'/>
  <stop offset='100%' stop-color="rgb(191,191,191)"  stop-opacity ='1.0'/>
</radialGradient>
<radialGradient id='radialffffffffcc' cx='50%' cy='50%' r='50%' fx='30%' fy='30%'>
  <stop offset=' 0%' stop-color="rgb(255,255,255)"  stop-opacity='0.8'/>
  <stop offset='100%' stop-color="rgb(255,12,12)"  stop-opacity ='1.0'/>
</radialGradient>
</defs>
<g transform="translate(0,0)">
<svg width="100" height="100" x="0" y="0" viewBox="0 0 373.657 270.395"
font-family="sans-serif" stroke="rgb(76,76,76)" stroke-width="2"  stroke-linecap="round">
<line x1="130.2" y1="114.1" x2="140.4" y2="128.2" stroke="rgb(76,76,76)"  stroke-width="2.0"/>
<line x1="204.7" y1="123.7" x2="185.9" y2="138.3" stroke="rgb(76,76,76)"  stroke-width="2.0"/>
<line x1="275.2" y1="156.3" x2="254.8" y2="174.3" stroke="rgb(76,76,76)"  stroke-width="2.0"/>
<line x1="271.2" y1="151.8" x2="250.8" y2="169.8" stroke="rgb(76,76,76)"  stroke-width="2.0"/>
<line x1="185.9" y1="138.3" x2="140.4" y2="128.2" stroke="rgb(76,76,76)"  stroke-width="2.0"/>
<line x1="185.9" y1="138.3" x2="204.0" y2="165.6" stroke="rgb(76,76,76)"  stroke-width="2.0"/>
<line x1="140.4" y1="128.2" x2="122.1" y2="158.3" stroke="rgb(76,76,76)"  stroke-width="2.0"/>
<line x1="140.4" y1="128.2" x2="129.4" y2="97.4" stroke="rgb(76,76,76)"  stroke-width="2.0"/>
<line x1="323.0" y1="221.2" x2="315.4" y2="207.7" stroke="rgb(76,76,76)"  stroke-width="2.0"/>
<line x1="252.8" y1="172.1" x2="204.0" y2="165.6" stroke="rgb(76,76,76)"  stroke-width="2.0"/>
<line x1="252.8" y1="172.1" x2="269.5" y2="199.6" stroke="rgb(76,76,76)"  stroke-width="2.0"/>
<line x1="206.1" y1="167.8" x2="186.0" y2="186.5" stroke="rgb(76,76,76)"  stroke-width="2.0"/>
<line x1="202.0" y1="163.4" x2="181.9" y2="182.1" stroke="rgb(76,76,76)"  stroke-width="2.0"/>
<line x1="129.4" y1="97.4" x2="88.4" y2="101.8" stroke="rgb(76,76,76)"  stroke-width="2.0"/>
<line x1="127.2" y1="95.3" x2="152.1" y2="69.5" stroke="rgb(76,76,76)"  stroke-width="2.0"/>
<line x1="131.5" y1="99.4" x2="156.4" y2="73.6" stroke="rgb(76,76,76)"  stroke-width="2.0"/>
<line x1="315.4" y1="207.7" x2="333.7" y2="177.9" stroke="rgb(76,76,76)"  stroke-width="2.0"/>
<line x1="315.4" y1="207.7" x2="269.5" y2="199.6" stroke="rgb(76,76,76)"  stroke-width="2.0"/>
<line x1="315.4" y1="207.7" x2="326.2" y2="230.4" stroke="rgb(76,76,76)"  stroke-width="2.0"/>
<line x1="88.4" y1="101.8" x2="73.8" y2="73.7" stroke="rgb(76,76,76)"  stroke-width="2.0"/>
<line x1="77.2" y1="40.0" x2="73.8" y2="73.7" stroke="rgb(76,76,76)"  stroke-width="2.0"/>
<line x1="73.8" y1="73.7" x2="40.0" y2="79.7" stroke="rgb(76,76,76)"  stroke-width="2.0"/>
<line x1="73.8" y1="73.7" x2="92.6" y2="79.0" stroke="rgb(76,76,76)"  stroke-width="2.0"/>
<circle cx="130.204312" cy="114.121423" r="2.066667" opacity="1.000000" style="stroke:black;fill:url(#radialffffffbfbfbf)"/>
<circle cx="204.687366" cy="123.665896" r="2.066667" opacity="1.000000" style="stroke:black;fill:url(#radialffffffbfbfbf)"/>
<circle cx="273.200281" cy="154.055808" r="4.400000" opacity="1.000000" style="stroke:black;fill:url(#radialffffffffcc)"/>
<circle cx="185.937449" cy="138.279660" r="4.733333" opacity="1.000000" style="stroke:black;fill:url(#radialffffff0ccff)"/>
<circle cx="140.362266" cy="128.237944" r="5.066667" opacity="1.000000" style="stroke:black;fill:url(#radialffffff666666)"/>
<circle cx="122.125736" cy="158.256539" r="2.066667" opacity="1.000000" style="stroke:black;fill:url(#radialffffffbfbfbf)"/>
<circle cx="322.963278" cy="221.183548" r="2.066667" opacity="1.000000" style="stroke:black;fill:url(#radialffffffbfbfbf)"/>
<circle cx="252.787507" cy="172.050176" r="5.066667" opacity="1.000000" style="stroke:black;fill:url(#radialffffff666666)"/>
<circle cx="204.035139" cy="165.605396" r="5.066667" opacity="1.000000" style="stroke:black;fill:url(#radialffffff666666)"/>
<circle cx="129.361583" cy="97.363704" r="5.066667" opacity="1.000000" style="stroke:black;fill:url(#radialffffff666666)"/>
<circle cx="315.381944" cy="207.677279" r="5.295972" opacity="1.000000" style="stroke:black;fill:url(#radialffffff666666)"/>
<circle cx="333.657221" cy="177.920220" r="2.271688" opacity="1.000000" style="stroke:black;fill:url(#radialffffffbfbfbf)"/>
<circle cx="269.535539" cy="199.589016" r="4.844881" opacity="1.000000" style="stroke:black;fill:url(#radialffffffffcc)"/>
<circle cx="88.377822" cy="101.842116" r="4.868837" opacity="1.000000" style="stroke:black;fill:url(#radialffffffffcc)"/>
<circle cx="154.217251" cy="71.542611" r="5.120573" opacity="1.000000" style="stroke:black;fill:url(#radialffffffffcc)"/>
<circle cx="183.961394" cy="184.274592" r="5.279481" opacity="1.000000" style="stroke:black;fill:url(#radialffffffffcc)"/>
<circle cx="326.188897" cy="230.395450" r="2.872170" opacity="1.000000" style="stroke:black;fill:url(#radialffffffbfbfbf)"/>
<circle cx="77.183408" cy="40.000000" r="3.016665" opacity="1.000000" style="stroke:black;fill:url(#radialffffffbfbfbf)"/>
<circle cx="73.806033" cy="73.725312" r="8.052691" opacity="1.000000" style="stroke:black;fill:url(#radialffffff666666)"/>
<circle cx="40.000000" cy="79.692222" r="3.501720" opacity="1.000000" style="stroke:black;fill:url(#radialffffffbfbfbf)"/>
<circle cx="92.568866" cy="79.010935" r="4.133333" opacity="1.000000" style="stroke:black;fill:url(#radialffffffbfbfbf)"/>
</svg>
</g>
</svg>
