<?xml version="1.0"?>
<svg version="1.1" id="topsvg"
xmlns="http://www.w3.org/2000/svg" xmlns:xlink="http://www.w3.org/1999/xlink"
xmlns:cml="http://www.xml-cml.org/schema" x="0" y="0" width="200px" height="200px" viewBox="0 0 100 100">
<title>48 - Open Babel Depiction</title>
<defs>
<radialGradient id='radialffffff0ccff' cx='50%' cy='50%' r='50%' fx='30%' fy='30%'>
  <stop offset=' 0%' stop-color="rgb(255,255,255)"  stop-opacity='0.8'/>
  <stop offset='100%' stop-color="rgb(12,12,255)"  stop-opacity ='1.0'/>
</radialGradient>
<radialGradient id='radialffffff666666' cx='50%' cy='50%' r='50%' fx='30%' fy='30%'>
  <stop offset=' 0%' stop-color="rgb(255,255,255)"  stop-opacity='0.8'/>
  <stop offset='100%' stop-color="rgb(102,102,102)"  stop-opacity ='1.0'/>
</radialGradient>
<radialGradient id='radialffffffbfbfbf' cx='50%' cy='50%' r='50%' fx='30%' fy='30%'>
  <stop offset=' 0%' stop-color="rgb(255,255,255)"  stop-opacity='0.8'/>
  <stop offset='100%' stop-color="rgb(191,191,191)"  stop-opacity ='1.0'/>
</radialGradient>
<radialGradient id='radialffffffffcc' cx='50%' cy='50%' r='50%' fx='30%' fy='30%'>
  <stop offset=' 0%' stop-color="rgb(255,255,255)"  stop-opacity='0.8'/>
  <stop offset='100%' stop-color="rgb(255,12,12)"  stop-opacity ='1.0'/>
</radialGradient>
</defs>
<g transform="translate(0,0)">
<svg width="100" height="100" x="0" y="0" viewBox="0 0 346.519 196.055"
font-family="sans-serif" stroke="rgb(76,76,76)" stroke-width="2"  stroke-linecap="round">
<line x1="160.8" y1="66.5" x2="180.6" y2="90.3" stroke="rgb(76,76,76)"  stroke-width="2.0"/>
<line x1="156.2" y1="70.4" x2="176.0" y2="94.1" stroke="rgb(76,76,76)"  stroke-width="2.0"/>
<line x1="251.4" y1="67.9" x2="230.2" y2="92.4" stroke="rgb(76,76,76)"  stroke-width="2.0"/>
<line x1="246.9" y1="64.0" x2="225.6" y2="88.4" stroke="rgb(76,76,76)"  stroke-width="2.0"/>
<line x1="100.0" y1="119.4" x2="111.5" y2="123.6" stroke="rgb(76,76,76)"  stroke-width="2.0"/>
<line x1="178.3" y1="92.2" x2="227.9" y2="90.4" stroke="rgb(76,76,76)"  stroke-width="2.0"/>
<line x1="178.3" y1="92.2" x2="158.1" y2="120.4" stroke="rgb(76,76,76)"  stroke-width="2.0"/>
<line x1="227.9" y1="90.4" x2="245.1" y2="117.9" stroke="rgb(76,76,76)"  stroke-width="2.0"/>
<line x1="306.5" y1="125.1" x2="291.6" y2="117.3" stroke="rgb(76,76,76)"  stroke-width="2.0"/>
<line x1="111.5" y1="123.6" x2="158.1" y2="120.4" stroke="rgb(76,76,76)"  stroke-width="2.0"/>
<line x1="111.5" y1="123.6" x2="102.1" y2="156.1" stroke="rgb(76,76,76)"  stroke-width="2.0"/>
<line x1="111.5" y1="123.6" x2="90.0" y2="90.7" stroke="rgb(76,76,76)"  stroke-width="2.0"/>
<line x1="158.1" y1="120.4" x2="175.0" y2="139.5" stroke="rgb(76,76,76)"  stroke-width="2.0"/>
<line x1="245.1" y1="117.9" x2="291.6" y2="117.3" stroke="rgb(76,76,76)"  stroke-width="2.0"/>
<line x1="291.6" y1="117.3" x2="302.9" y2="85.5" stroke="rgb(76,76,76)"  stroke-width="2.0"/>
<line x1="291.6" y1="117.3" x2="302.7" y2="140.7" stroke="rgb(76,76,76)"  stroke-width="2.0"/>
<line x1="74.2" y1="56.9" x2="92.6" y2="89.2" stroke="rgb(76,76,76)"  stroke-width="2.0"/>
<line x1="69.0" y1="59.9" x2="87.4" y2="92.1" stroke="rgb(76,76,76)"  stroke-width="2.0"/>
<line x1="90.0" y1="90.7" x2="94.0" y2="101.4" stroke="rgb(76,76,76)"  stroke-width="2.0"/>
<line x1="94.0" y1="101.4" x2="74.6" y2="72.0" stroke="rgb(76,76,76)"  stroke-width="2.0"/>
<line x1="40.0" y1="69.2" x2="74.6" y2="72.0" stroke="rgb(76,76,76)"  stroke-width="2.0"/>
<line x1="88.7" y1="40.0" x2="74.6" y2="72.0" stroke="rgb(76,76,76)"  stroke-width="2.0"/>
<line x1="74.6" y1="72.0" x2="79.4" y2="83.4" stroke="rgb(76,76,76)"  stroke-width="2.0"/>
<circle cx="158.466032" cy="68.437529" r="4.400000" opacity="1.000000" style="stroke:black;fill:url(#radialffffffffcc)"/>
<circle cx="249.169160" cy="65.932702" r="4.400000" opacity="1.000000" style="stroke:black;fill:url(#radialffffffffcc)"/>
<circle cx="99.960901" cy="119.424953" r="2.066667" opacity="1.000000" style="stroke:black;fill:url(#radialffffffbfbfbf)"/>
<circle cx="178.256099" cy="92.184963" r="5.066667" opacity="1.000000" style="stroke:black;fill:url(#radialffffff666666)"/>
<circle cx="227.913641" cy="90.390268" r="5.066667" opacity="1.000000" style="stroke:black;fill:url(#radialffffff666666)"/>
<circle cx="306.518714" cy="125.083408" r="2.066667" opacity="1.000000" style="stroke:black;fill:url(#radialffffffbfbfbf)"/>
<circle cx="111.526356" cy="123.621183" r="5.066667" opacity="1.000000" style="stroke:black;fill:url(#radialffffff666666)"/>
<circle cx="158.110966" cy="120.402997" r="4.733333" opacity="1.000000" style="stroke:black;fill:url(#radialffffff0ccff)"/>
<circle cx="245.063310" cy="117.946588" r="4.400000" opacity="1.000000" style="stroke:black;fill:url(#radialffffffffcc)"/>
<circle cx="291.644693" cy="117.259052" r="5.066667" opacity="1.000000" style="stroke:black;fill:url(#radialffffff666666)"/>
<circle cx="102.091294" cy="156.054814" r="2.066667" opacity="1.000000" style="stroke:black;fill:url(#radialffffffbfbfbf)"/>
<circle cx="71.587929" cy="58.408539" r="4.400000" opacity="1.000000" style="stroke:black;fill:url(#radialffffffffcc)"/>
<circle cx="302.932552" cy="85.496818" r="2.066667" opacity="1.000000" style="stroke:black;fill:url(#radialffffffbfbfbf)"/>
<circle cx="174.999179" cy="139.482933" r="2.066667" opacity="1.000000" style="stroke:black;fill:url(#radialffffffbfbfbf)"/>
<circle cx="89.996468" cy="90.658181" r="5.066667" opacity="1.000000" style="stroke:black;fill:url(#radialffffff666666)"/>
<circle cx="302.719512" cy="140.651421" r="2.066667" opacity="1.000000" style="stroke:black;fill:url(#radialffffffbfbfbf)"/>
<circle cx="93.957064" cy="101.381163" r="5.753370" opacity="1.000000" style="stroke:black;fill:url(#radialffffffffcc)"/>
<circle cx="40.000000" cy="69.208990" r="3.267707" opacity="1.000000" style="stroke:black;fill:url(#radialffffffbfbfbf)"/>
<circle cx="88.721460" cy="40.000000" r="3.332277" opacity="1.000000" style="stroke:black;fill:url(#radialffffffbfbfbf)"/>
<circle cx="74.557569" cy="72.020464" r="8.319739" opacity="1.000000" style="stroke:black;fill:url(#radialffffff666666)"/>
<circle cx="79.431652" cy="83.379336" r="4.133333" opacity="1.000000" style="stroke:black;fill:url(#radialffffffbfbfbf)"/>
</svg>
</g>
</svg>
