<?xml version="1.0"?>
<svg version="1.1" id="topsvg"
xmlns="http://www.w3.org/2000/svg" xmlns:xlink="http://www.w3.org/1999/xlink"
xmlns:cml="http://www.xml-cml.org/schema" x="0" y="0" width="200px" height="200px" viewBox="0 0 100 100">
<title>18 - Open Babel Depiction</title>
<defs>
<radialGradient id='radialffffff0ccff' cx='50%' cy='50%' r='50%' fx='30%' fy='30%'>
  <stop offset=' 0%' stop-color="rgb(255,255,255)"  stop-opacity='0.8'/>
  <stop offset='100%' stop-color="rgb(12,12,255)"  stop-opacity ='1.0'/>
</radialGradient>
<radialGradient id='radialffffff666666' cx='50%' cy='50%' r='50%' fx='30%' fy='30%'>
  <stop offset=' 0%' stop-color="rgb(255,255,255)"  stop-opacity='0.8'/>
  <stop offset='100%' stop-color="rgb(102,102,102)"  stop-opacity ='1.0'/>
</radialGradient>
<radialGradient id='radialffffffbfbfbf' cx='50%' cy='50%' r='50%' fx='30%' fy='30%'>
  <stop offset=' 0%' stop-color="rgb(255,255,255)"  stop-opacity='0.8'/>
  <stop offset='100%' stop-color="rgb(191,191,191)"  stop-opacity ='1.0'/>
</radialGradient>
<radialGradient id='radialffffffffcc' cx='50%' cy='50%' r='50%' fx='30%' fy='30%'>
  <stop offset=' 0%' stop-color="rgb(255,255,255)"  stop-opacity='0.8'/>
  <stop offset='100%' stop-color="rgb(255,12,12)"  stop-opacity ='1.0'/>
</radialGradient>
</defs>
<g transform="translate(0,0)">
<svg width="100" height="100" x="0" y="0" viewBox="0 0 402.741 202.255"
font-family="sans-serif" stroke="rgb(76,76,76)" stroke-width="2"  stroke-linecap="round">
<line x1="80.1" y1="117.2" x2="74.5" y2="128.7" stroke="rgb(76,76,76)"  stroke-width="2.0"/>
<line x1="158.0" y1="123.2" x2="138.4" y2="103.8" stroke="rgb(76,76,76)"  stroke-width="2.0"/>
<line x1="162.2" y1="118.9" x2="142.7" y2="99.6" stroke="rgb(76,76,76)"  stroke-width="2.0"/>
<line x1="74.5" y1="128.7" x2="84.8" y2="162.3" stroke="rgb(76,76,76)"  stroke-width="2.0"/>
<line x1="74.5" y1="128.7" x2="40.0" y2="127.5" stroke="rgb(76,76,76)"  stroke-width="2.0"/>
<line x1="74.5" y1="128.7" x2="97.9" y2="102.7" stroke="rgb(76,76,76)"  stroke-width="2.0"/>
<line x1="140.6" y1="101.7" x2="97.9" y2="102.7" stroke="rgb(76,76,76)"  stroke-width="2.0"/>
<line x1="140.6" y1="101.7" x2="161.0" y2="73.5" stroke="rgb(76,76,76)"  stroke-width="2.0"/>
<line x1="223.3" y1="81.9" x2="207.6" y2="75.5" stroke="rgb(76,76,76)"  stroke-width="2.0"/>
<line x1="295.0" y1="81.8" x2="278.3" y2="73.5" stroke="rgb(76,76,76)"  stroke-width="2.0"/>
<line x1="297.7" y1="76.4" x2="281.0" y2="68.2" stroke="rgb(76,76,76)"  stroke-width="2.0"/>
<line x1="150.8" y1="40.0" x2="161.0" y2="73.5" stroke="rgb(76,76,76)"  stroke-width="2.0"/>
<line x1="207.6" y1="75.5" x2="161.0" y2="73.5" stroke="rgb(76,76,76)"  stroke-width="2.0"/>
<line x1="207.6" y1="75.5" x2="230.6" y2="68.0" stroke="rgb(76,76,76)"  stroke-width="2.0"/>
<line x1="161.0" y1="73.5" x2="149.2" y2="83.6" stroke="rgb(76,76,76)"  stroke-width="2.0"/>
<line x1="279.7" y1="70.9" x2="230.6" y2="68.0" stroke="rgb(76,76,76)"  stroke-width="2.0"/>
<line x1="279.7" y1="70.9" x2="301.3" y2="63.3" stroke="rgb(76,76,76)"  stroke-width="2.0"/>
<line x1="229.2" y1="70.6" x2="213.0" y2="62.1" stroke="rgb(76,76,76)"  stroke-width="2.0"/>
<line x1="232.0" y1="65.3" x2="215.8" y2="56.8" stroke="rgb(76,76,76)"  stroke-width="2.0"/>
<line x1="359.9" y1="41.7" x2="347.9" y2="65.3" stroke="rgb(76,76,76)"  stroke-width="2.0"/>
<line x1="358.2" y1="97.2" x2="347.9" y2="65.3" stroke="rgb(76,76,76)"  stroke-width="2.0"/>
<line x1="347.9" y1="65.3" x2="301.3" y2="63.3" stroke="rgb(76,76,76)"  stroke-width="2.0"/>
<line x1="347.9" y1="65.3" x2="362.7" y2="58.8" stroke="rgb(76,76,76)"  stroke-width="2.0"/>
<circle cx="80.146919" cy="117.165129" r="2.066667" opacity="1.000000" style="stroke:black;fill:url(#radialffffffbfbfbf)"/>
<circle cx="160.117877" cy="121.039691" r="4.400000" opacity="1.000000" style="stroke:black;fill:url(#radialffffffffcc)"/>
<circle cx="74.548177" cy="128.704866" r="5.066667" opacity="1.000000" style="stroke:black;fill:url(#radialffffff666666)"/>
<circle cx="84.831910" cy="162.255344" r="2.066667" opacity="1.000000" style="stroke:black;fill:url(#radialffffffbfbfbf)"/>
<circle cx="40.000000" cy="127.529583" r="2.066667" opacity="1.000000" style="stroke:black;fill:url(#radialffffffbfbfbf)"/>
<circle cx="140.554568" cy="101.715314" r="5.066667" opacity="1.000000" style="stroke:black;fill:url(#radialffffff666666)"/>
<circle cx="97.889184" cy="102.654895" r="4.400000" opacity="1.000000" style="stroke:black;fill:url(#radialffffffffcc)"/>
<circle cx="223.318440" cy="81.938904" r="2.066667" opacity="1.000000" style="stroke:black;fill:url(#radialffffffbfbfbf)"/>
<circle cx="296.353932" cy="79.084643" r="4.400000" opacity="1.000000" style="stroke:black;fill:url(#radialffffffffcc)"/>
<circle cx="150.776954" cy="40.000000" r="2.066667" opacity="1.000000" style="stroke:black;fill:url(#radialffffffbfbfbf)"/>
<circle cx="207.636150" cy="75.513589" r="4.733333" opacity="1.000000" style="stroke:black;fill:url(#radialffffff0ccff)"/>
<circle cx="160.963823" cy="73.534333" r="5.069301" opacity="1.000000" style="stroke:black;fill:url(#radialffffff666666)"/>
<circle cx="279.673943" cy="70.851199" r="6.629384" opacity="1.000000" style="stroke:black;fill:url(#radialffffff666666)"/>
<circle cx="149.223900" cy="83.556534" r="2.775091" opacity="1.000000" style="stroke:black;fill:url(#radialffffffbfbfbf)"/>
<circle cx="230.560642" cy="67.974337" r="6.987173" opacity="1.000000" style="stroke:black;fill:url(#radialffffff666666)"/>
<circle cx="359.877374" cy="41.711265" r="2.930488" opacity="1.000000" style="stroke:black;fill:url(#radialffffffbfbfbf)"/>
<circle cx="358.227457" cy="97.194992" r="3.207754" opacity="1.000000" style="stroke:black;fill:url(#radialffffffbfbfbf)"/>
<circle cx="347.872690" cy="65.333177" r="8.439058" opacity="1.000000" style="stroke:black;fill:url(#radialffffff666666)"/>
<circle cx="301.300456" cy="63.250600" r="7.476461" opacity="1.000000" style="stroke:black;fill:url(#radialffffffffcc)"/>
<circle cx="214.364973" cy="59.440614" r="7.733481" opacity="1.000000" style="stroke:black;fill:url(#radialffffffffcc)"/>
<circle cx="362.741321" cy="58.762566" r="4.133333" opacity="1.000000" style="stroke:black;fill:url(#radialffffffbfbfbf)"/>
</svg>
</g>
</svg>
