<?xml version="1.0"?>
<svg version="1.1" id="topsvg"
xmlns="http://www.w3.org/2000/svg" xmlns:xlink="http://www.w3.org/1999/xlink"
xmlns:cml="http://www.xml-cml.org/schema" x="0" y="0" width="200px" height="200px" viewBox="0 0 100 100">
<title>46 - Open Babel Depiction</title>
<defs>
<radialGradient id='radialffffff0ccff' cx='50%' cy='50%' r='50%' fx='30%' fy='30%'>
  <stop offset=' 0%' stop-color="rgb(255,255,255)"  stop-opacity='0.8'/>
  <stop offset='100%' stop-color="rgb(12,12,255)"  stop-opacity ='1.0'/>
</radialGradient>
<radialGradient id='radialffffff666666' cx='50%' cy='50%' r='50%' fx='30%' fy='30%'>
  <stop offset=' 0%' stop-color="rgb(255,255,255)"  stop-opacity='0.8'/>
  <stop offset='100%' stop-color="rgb(102,102,102)"  stop-opacity ='1.0'/>
</radialGradient>
<radialGradient id='radialffffffbfbfbf' cx='50%' cy='50%' r='50%' fx='30%' fy='30%'>
  <stop offset=' 0%' stop-color="rgb(255,255,255)"  stop-opacity='0.8'/>
  <stop offset='100%' stop-color="rgb(191,191,191)"  stop-opacity ='1.0'/>
</radialGradient>
<radialGradient id='radialffffffffcc' cx='50%' cy='50%' r='50%' fx='30%' fy='30%'>
  <stop offset=' 0%' stop-color="rgb(255,255,255)"  stop-opacity='0.8'/>
  <stop offset='100%' stop-color="rgb(255,12,12)"  stop-opacity ='1.0'/>
</radialGradient>
</defs>
<g transform="translate(0,0)">
<svg width="100" height="100" x="0" y="0" viewBox="0 0 342.424 222.082"
font-family="sans-serif" stroke="rgb(76,76,76)" stroke-width="2"  stroke-linecap="round">
<line x1="77.3" y1="140.5" x2="87.2" y2="158.9" stroke="rgb(76,76,76)"  stroke-width="2.0"/>
<line x1="111.6" y1="182.1" x2="87.2" y2="158.9" stroke="rgb(76,76,76)"  stroke-width="2.0"/>
<line x1="87.2" y1="158.9" x2="59.4" y2="176.8" stroke="rgb(76,76,76)"  stroke-width="2.0"/>
<line x1="87.2" y1="158.9" x2="104.0" y2="130.6" stroke="rgb(76,76,76)"  stroke-width="2.0"/>
<line x1="104.0" y1="130.6" x2="76.9" y2="100.8" stroke="rgb(76,76,76)"  stroke-width="2.0"/>
<line x1="40.4" y1="93.4" x2="77.3" y2="97.8" stroke="rgb(76,76,76)"  stroke-width="2.0"/>
<line x1="39.6" y1="99.4" x2="76.6" y2="103.8" stroke="rgb(76,76,76)"  stroke-width="2.0"/>
<line x1="76.9" y1="100.8" x2="98.3" y2="73.7" stroke="rgb(76,76,76)"  stroke-width="2.0"/>
<line x1="159.9" y1="79.6" x2="144.9" y2="75.8" stroke="rgb(76,76,76)"  stroke-width="2.0"/>
<line x1="232.5" y1="81.9" x2="216.7" y2="76.8" stroke="rgb(76,76,76)"  stroke-width="2.0"/>
<line x1="234.3" y1="76.2" x2="218.6" y2="71.1" stroke="rgb(76,76,76)"  stroke-width="2.0"/>
<line x1="88.1" y1="40.0" x2="98.3" y2="73.7" stroke="rgb(76,76,76)"  stroke-width="2.0"/>
<line x1="144.9" y1="75.8" x2="98.3" y2="73.7" stroke="rgb(76,76,76)"  stroke-width="2.0"/>
<line x1="144.9" y1="75.8" x2="168.7" y2="71.6" stroke="rgb(76,76,76)"  stroke-width="2.0"/>
<line x1="98.3" y1="73.7" x2="87.4" y2="84.7" stroke="rgb(76,76,76)"  stroke-width="2.0"/>
<line x1="217.6" y1="73.9" x2="168.7" y2="71.6" stroke="rgb(76,76,76)"  stroke-width="2.0"/>
<line x1="217.6" y1="73.9" x2="240.2" y2="69.6" stroke="rgb(76,76,76)"  stroke-width="2.0"/>
<line x1="167.7" y1="74.4" x2="152.4" y2="69.1" stroke="rgb(76,76,76)"  stroke-width="2.0"/>
<line x1="169.7" y1="68.7" x2="154.4" y2="63.4" stroke="rgb(76,76,76)"  stroke-width="2.0"/>
<line x1="298.2" y1="46.0" x2="286.7" y2="71.6" stroke="rgb(76,76,76)"  stroke-width="2.0"/>
<line x1="296.6" y1="102.4" x2="286.7" y2="71.6" stroke="rgb(76,76,76)"  stroke-width="2.0"/>
<line x1="286.7" y1="71.6" x2="240.2" y2="69.6" stroke="rgb(76,76,76)"  stroke-width="2.0"/>
<line x1="286.7" y1="71.6" x2="302.4" y2="67.8" stroke="rgb(76,76,76)"  stroke-width="2.0"/>
<circle cx="77.332774" cy="140.477535" r="2.066667" opacity="1.000000" style="stroke:black;fill:url(#radialffffffbfbfbf)"/>
<circle cx="111.627134" cy="182.082170" r="2.066667" opacity="1.000000" style="stroke:black;fill:url(#radialffffffbfbfbf)"/>
<circle cx="87.232643" cy="158.898524" r="5.066667" opacity="1.000000" style="stroke:black;fill:url(#radialffffff666666)"/>
<circle cx="59.354147" cy="176.760910" r="2.066667" opacity="1.000000" style="stroke:black;fill:url(#radialffffffbfbfbf)"/>
<circle cx="103.990738" cy="130.609955" r="4.400000" opacity="1.000000" style="stroke:black;fill:url(#radialffffffffcc)"/>
<circle cx="40.000000" cy="96.393089" r="4.400000" opacity="1.000000" style="stroke:black;fill:url(#radialffffffffcc)"/>
<circle cx="76.942075" cy="100.777962" r="5.066667" opacity="1.000000" style="stroke:black;fill:url(#radialffffff666666)"/>
<circle cx="159.886573" cy="79.647910" r="2.066667" opacity="1.000000" style="stroke:black;fill:url(#radialffffffbfbfbf)"/>
<circle cx="233.405854" cy="79.079620" r="4.462389" opacity="1.000000" style="stroke:black;fill:url(#radialffffffffcc)"/>
<circle cx="88.059246" cy="40.000000" r="2.213053" opacity="1.000000" style="stroke:black;fill:url(#radialffffffbfbfbf)"/>
<circle cx="144.917300" cy="75.769977" r="5.169891" opacity="1.000000" style="stroke:black;fill:url(#radialffffff0ccff)"/>
<circle cx="98.282007" cy="73.700239" r="5.619096" opacity="1.000000" style="stroke:black;fill:url(#radialffffff666666)"/>
<circle cx="217.639038" cy="73.919805" r="6.934067" opacity="1.000000" style="stroke:black;fill:url(#radialffffff666666)"/>
<circle cx="87.358571" cy="84.694712" r="2.951941" opacity="1.000000" style="stroke:black;fill:url(#radialffffffbfbfbf)"/>
<circle cx="168.714441" cy="71.553007" r="7.342484" opacity="1.000000" style="stroke:black;fill:url(#radialffffff666666)"/>
<circle cx="298.184449" cy="46.041309" r="3.047346" opacity="1.000000" style="stroke:black;fill:url(#radialffffffbfbfbf)"/>
<circle cx="296.602278" cy="102.398880" r="3.205708" opacity="1.000000" style="stroke:black;fill:url(#radialffffffbfbfbf)"/>
<circle cx="286.686265" cy="71.556236" r="8.549528" opacity="1.000000" style="stroke:black;fill:url(#radialffffff666666)"/>
<circle cx="240.222105" cy="69.641486" r="7.625432" opacity="1.000000" style="stroke:black;fill:url(#radialffffffffcc)"/>
<circle cx="153.399673" cy="66.228518" r="7.976264" opacity="1.000000" style="stroke:black;fill:url(#radialffffffffcc)"/>
<circle cx="302.424021" cy="67.771942" r="4.133333" opacity="1.000000" style="stroke:black;fill:url(#radialffffffbfbfbf)"/>
</svg>
</g>
</svg>
