<?xml version="1.0"?>
<svg version="1.1" id="topsvg"
xmlns="http://www.w3.org/2000/svg" xmlns:xlink="http://www.w3.org/1999/xlink"
xmlns:cml="http://www.xml-cml.org/schema" x="0" y="0" width="200px" height="200px" viewBox="0 0 100 100">
<title>14 - Open Babel Depiction</title>
<defs>
<radialGradient id='radialffffff0ccff' cx='50%' cy='50%' r='50%' fx='30%' fy='30%'>
  <stop offset=' 0%' stop-color="rgb(255,255,255)"  stop-opacity='0.8'/>
  <stop offset='100%' stop-color="rgb(12,12,255)"  stop-opacity ='1.0'/>
</radialGradient>
<radialGradient id='radialffffff666666' cx='50%' cy='50%' r='50%' fx='30%' fy='30%'>
  <stop offset=' 0%' stop-color="rgb(255,255,255)"  stop-opacity='0.8'/>
  <stop offset='100%' stop-color="rgb(102,102,102)"  stop-opacity ='1.0'/>
</radialGradient>
<radialGradient id='radialffffffbfbfbf' cx='50%' cy='50%' r='50%' fx='30%' fy='30%'>
  <stop offset=' 0%' stop-color="rgb(255,255,255)"  stop-opacity='0.8'/>
  <stop offset='100%' stop-color="rgb(191,191,191)"  stop-opacity ='1.0'/>
</radialGradient>
<radialGradient id='radialffffffffcc' cx='50%' cy='50%' r='50%' fx='30%' fy='30%'>
  <stop offset=' 0%' stop-color="rgb(255,255,255)"  stop-opacity='0.8'/>
  <stop offset='100%' stop-color="rgb(255,12,12)"  stop-opacity ='1.0'/>
</radialGradient>
</defs>
<g transform="translate(0,0)">
<svg width="100" height="100" x="0" y="0" viewBox="0 0 407.719 267.074"
font-family="sans-serif" stroke="rgb(76,76,76)" stroke-width="2"  stroke-linecap="round">
<line x1="78.2" y1="76.9" x2="74.2" y2="72.6" stroke="rgb(76,76,76)"  stroke-width="2.0"/>
<line x1="162.0" y1="80.4" x2="143.9" y2="105.4" stroke="rgb(76,76,76)"  stroke-width="2.0"/>
<line x1="157.2" y1="76.9" x2="139.1" y2="101.9" stroke="rgb(76,76,76)"  stroke-width="2.0"/>
<line x1="74.2" y1="72.6" x2="40.0" y2="75.5" stroke="rgb(76,76,76)"  stroke-width="2.0"/>
<line x1="74.2" y1="72.6" x2="84.5" y2="40.0" stroke="rgb(76,76,76)"  stroke-width="2.0"/>
<line x1="74.2" y1="72.6" x2="99.1" y2="104.3" stroke="rgb(76,76,76)"  stroke-width="2.0"/>
<line x1="361.4" y1="180.6" x2="352.0" y2="195.7" stroke="rgb(76,76,76)"  stroke-width="2.0"/>
<line x1="141.5" y1="103.7" x2="99.1" y2="104.3" stroke="rgb(76,76,76)"  stroke-width="2.0"/>
<line x1="141.5" y1="103.7" x2="163.6" y2="138.1" stroke="rgb(76,76,76)"  stroke-width="2.0"/>
<line x1="152.6" y1="170.0" x2="163.6" y2="138.1" stroke="rgb(76,76,76)"  stroke-width="2.0"/>
<line x1="301.4" y1="129.4" x2="285.7" y2="165.0" stroke="rgb(76,76,76)"  stroke-width="2.0"/>
<line x1="295.9" y1="127.0" x2="280.2" y2="162.5" stroke="rgb(76,76,76)"  stroke-width="2.0"/>
<line x1="225.0" y1="107.0" x2="210.2" y2="136.2" stroke="rgb(76,76,76)"  stroke-width="2.0"/>
<line x1="352.0" y1="195.7" x2="367.7" y2="227.1" stroke="rgb(76,76,76)"  stroke-width="2.0"/>
<line x1="352.0" y1="195.7" x2="305.6" y2="200.3" stroke="rgb(76,76,76)"  stroke-width="2.0"/>
<line x1="352.0" y1="195.7" x2="364.0" y2="175.8" stroke="rgb(76,76,76)"  stroke-width="2.0"/>
<line x1="283.0" y1="163.7" x2="305.6" y2="200.3" stroke="rgb(76,76,76)"  stroke-width="2.0"/>
<line x1="283.0" y1="163.7" x2="234.1" y2="171.9" stroke="rgb(76,76,76)"  stroke-width="2.0"/>
<line x1="210.2" y1="136.2" x2="234.1" y2="171.9" stroke="rgb(76,76,76)"  stroke-width="2.0"/>
<line x1="210.2" y1="136.2" x2="163.6" y2="138.1" stroke="rgb(76,76,76)"  stroke-width="2.0"/>
<line x1="236.9" y1="173.1" x2="221.7" y2="209.6" stroke="rgb(76,76,76)"  stroke-width="2.0"/>
<line x1="231.3" y1="170.8" x2="216.2" y2="207.3" stroke="rgb(76,76,76)"  stroke-width="2.0"/>
<line x1="163.6" y1="138.1" x2="154.1" y2="134.6" stroke="rgb(76,76,76)"  stroke-width="2.0"/>
<circle cx="78.185219" cy="76.861362" r="2.066667" opacity="1.000000" style="stroke:black;fill:url(#radialffffffbfbfbf)"/>
<circle cx="159.605691" cy="78.650184" r="4.400000" opacity="1.000000" style="stroke:black;fill:url(#radialffffffffcc)"/>
<circle cx="74.191044" cy="72.566897" r="5.066667" opacity="1.000000" style="stroke:black;fill:url(#radialffffff666666)"/>
<circle cx="40.000000" cy="75.485842" r="2.066667" opacity="1.000000" style="stroke:black;fill:url(#radialffffffbfbfbf)"/>
<circle cx="84.468700" cy="40.000000" r="2.066667" opacity="1.000000" style="stroke:black;fill:url(#radialffffffbfbfbf)"/>
<circle cx="361.355131" cy="180.596906" r="2.066667" opacity="1.000000" style="stroke:black;fill:url(#radialffffffbfbfbf)"/>
<circle cx="141.501131" cy="103.687237" r="5.066667" opacity="1.000000" style="stroke:black;fill:url(#radialffffff666666)"/>
<circle cx="99.108627" cy="104.265214" r="4.583317" opacity="1.000000" style="stroke:black;fill:url(#radialffffffffcc)"/>
<circle cx="152.615077" cy="169.951154" r="2.471646" opacity="1.000000" style="stroke:black;fill:url(#radialffffffbfbfbf)"/>
<circle cx="298.643028" cy="128.178603" r="5.518579" opacity="1.000000" style="stroke:black;fill:url(#radialffffffffcc)"/>
<circle cx="225.033316" cy="106.951676" r="2.667244" opacity="1.000000" style="stroke:black;fill:url(#radialffffffbfbfbf)"/>
<circle cx="352.004176" cy="195.711485" r="6.636478" opacity="1.000000" style="stroke:black;fill:url(#radialffffff666666)"/>
<circle cx="282.963388" cy="163.745167" r="6.691774" opacity="1.000000" style="stroke:black;fill:url(#radialffffff666666)"/>
<circle cx="210.183509" cy="136.218616" r="6.341450" opacity="1.000000" style="stroke:black;fill:url(#radialffffff0ccff)"/>
<circle cx="367.719334" cy="227.073994" r="2.777037" opacity="1.000000" style="stroke:black;fill:url(#radialffffffbfbfbf)"/>
<circle cx="305.575521" cy="200.277179" r="5.967536" opacity="1.000000" style="stroke:black;fill:url(#radialffffffffcc)"/>
<circle cx="234.100127" cy="171.936940" r="6.963284" opacity="1.000000" style="stroke:black;fill:url(#radialffffff666666)"/>
<circle cx="163.606324" cy="138.133366" r="7.058663" opacity="1.000000" style="stroke:black;fill:url(#radialffffff666666)"/>
<circle cx="218.930656" cy="208.456036" r="6.348907" opacity="1.000000" style="stroke:black;fill:url(#radialffffffffcc)"/>
<circle cx="364.048051" cy="175.821332" r="3.680320" opacity="1.000000" style="stroke:black;fill:url(#radialffffffbfbfbf)"/>
<circle cx="154.068091" cy="134.649361" r="4.133333" opacity="1.000000" style="stroke:black;fill:url(#radialffffffbfbfbf)"/>
</svg>
</g>
</svg>
