<?xml version="1.0"?>
<svg version="1.1" id="topsvg"
xmlns="http://www.w3.org/2000/svg" xmlns:xlink="http://www.w3.org/1999/xlink"
xmlns:cml="http://www.xml-cml.org/schema" x="0" y="0" width="200px" height="200px" viewBox="0 0 100 100">
<title>26 - Open Babel Depiction</title>
<defs>
<radialGradient id='radialffffff0ccff' cx='50%' cy='50%' r='50%' fx='30%' fy='30%'>
  <stop offset=' 0%' stop-color="rgb(255,255,255)"  stop-opacity='0.8'/>
  <stop offset='100%' stop-color="rgb(12,12,255)"  stop-opacity ='1.0'/>
</radialGradient>
<radialGradient id='radialffffff666666' cx='50%' cy='50%' r='50%' fx='30%' fy='30%'>
  <stop offset=' 0%' stop-color="rgb(255,255,255)"  stop-opacity='0.8'/>
  <stop offset='100%' stop-color="rgb(102,102,102)"  stop-opacity ='1.0'/>
</radialGradient>
<radialGradient id='radialffffffbfbfbf' cx='50%' cy='50%' r='50%' fx='30%' fy='30%'>
  <stop offset=' 0%' stop-color="rgb(255,255,255)"  stop-opacity='0.8'/>
  <stop offset='100%' stop-color="rgb(191,191,191)"  stop-opacity ='1.0'/>
</radialGradient>
<radialGradient id='radialffffffffcc' cx='50%' cy='50%' r='50%' fx='30%' fy='30%'>
  <stop offset=' 0%' stop-color="rgb(255,255,255)"  stop-opacity='0.8'/>
  <stop offset='100%' stop-color="rgb(255,12,12)"  stop-opacity ='1.0'/>
</radialGradient>
</defs>
<g transform="translate(0,0)">
<svg width="100" height="100" x="0" y="0" viewBox="0 0 346.691 293.971"
font-family="sans-serif" stroke="rgb(76,76,76)" stroke-width="2"  stroke-linecap="round">
<line x1="105.8" y1="163.6" x2="112.8" y2="174.4" stroke="rgb(76,76,76)"  stroke-width="2.0"/>
<line x1="177.8" y1="152.2" x2="159.1" y2="175.1" stroke="rgb(76,76,76)"  stroke-width="2.0"/>
<line x1="112.8" y1="174.4" x2="100.1" y2="207.3" stroke="rgb(76,76,76)"  stroke-width="2.0"/>
<line x1="112.8" y1="174.4" x2="159.1" y2="175.1" stroke="rgb(76,76,76)"  stroke-width="2.0"/>
<line x1="112.8" y1="174.4" x2="89.8" y2="145.2" stroke="rgb(76,76,76)"  stroke-width="2.0"/>
<line x1="159.1" y1="175.1" x2="177.6" y2="204.6" stroke="rgb(76,76,76)"  stroke-width="2.0"/>
<line x1="249.8" y1="174.2" x2="229.4" y2="201.9" stroke="rgb(76,76,76)"  stroke-width="2.0"/>
<line x1="245.0" y1="170.7" x2="224.5" y2="198.3" stroke="rgb(76,76,76)"  stroke-width="2.0"/>
<line x1="95.3" y1="104.0" x2="89.8" y2="145.2" stroke="rgb(76,76,76)"  stroke-width="2.0"/>
<line x1="95.3" y1="104.0" x2="74.8" y2="72.7" stroke="rgb(76,76,76)"  stroke-width="2.0"/>
<line x1="91.4" y1="147.8" x2="70.7" y2="159.9" stroke="rgb(76,76,76)"  stroke-width="2.0"/>
<line x1="88.3" y1="142.6" x2="67.7" y2="154.8" stroke="rgb(76,76,76)"  stroke-width="2.0"/>
<line x1="177.6" y1="204.6" x2="227.0" y2="200.1" stroke="rgb(76,76,76)"  stroke-width="2.0"/>
<line x1="180.1" y1="206.3" x2="160.0" y2="234.8" stroke="rgb(76,76,76)"  stroke-width="2.0"/>
<line x1="175.2" y1="202.9" x2="155.1" y2="231.3" stroke="rgb(76,76,76)"  stroke-width="2.0"/>
<line x1="306.7" y1="232.1" x2="290.6" y2="228.4" stroke="rgb(76,76,76)"  stroke-width="2.0"/>
<line x1="227.0" y1="200.1" x2="244.2" y2="230.1" stroke="rgb(76,76,76)"  stroke-width="2.0"/>
<line x1="81.0" y1="40.0" x2="74.8" y2="72.7" stroke="rgb(76,76,76)"  stroke-width="2.0"/>
<line x1="74.8" y1="72.7" x2="40.0" y2="77.6" stroke="rgb(76,76,76)"  stroke-width="2.0"/>
<line x1="74.8" y1="72.7" x2="86.9" y2="75.5" stroke="rgb(76,76,76)"  stroke-width="2.0"/>
<line x1="244.2" y1="230.1" x2="290.6" y2="228.4" stroke="rgb(76,76,76)"  stroke-width="2.0"/>
<line x1="290.6" y1="228.4" x2="300.5" y2="197.6" stroke="rgb(76,76,76)"  stroke-width="2.0"/>
<line x1="290.6" y1="228.4" x2="301.7" y2="254.0" stroke="rgb(76,76,76)"  stroke-width="2.0"/>
<circle cx="105.813010" cy="163.553973" r="2.066667" opacity="1.000000" style="stroke:black;fill:url(#radialffffffbfbfbf)"/>
<circle cx="177.760774" cy="152.207904" r="2.066667" opacity="1.000000" style="stroke:black;fill:url(#radialffffffbfbfbf)"/>
<circle cx="112.800173" cy="174.380201" r="5.066667" opacity="1.000000" style="stroke:black;fill:url(#radialffffff666666)"/>
<circle cx="100.136746" cy="207.285092" r="2.066667" opacity="1.000000" style="stroke:black;fill:url(#radialffffffbfbfbf)"/>
<circle cx="159.078830" cy="175.138974" r="4.733333" opacity="1.000000" style="stroke:black;fill:url(#radialffffff0ccff)"/>
<circle cx="247.370875" cy="172.449368" r="4.400000" opacity="1.000000" style="stroke:black;fill:url(#radialffffffffcc)"/>
<circle cx="95.322578" cy="103.991956" r="4.400000" opacity="1.000000" style="stroke:black;fill:url(#radialffffffffcc)"/>
<circle cx="89.846502" cy="145.211054" r="5.443763" opacity="1.000000" style="stroke:black;fill:url(#radialffffff666666)"/>
<circle cx="177.634850" cy="204.585799" r="5.455760" opacity="1.000000" style="stroke:black;fill:url(#radialffffff666666)"/>
<circle cx="306.690730" cy="232.146995" r="2.331590" opacity="1.000000" style="stroke:black;fill:url(#radialffffffbfbfbf)"/>
<circle cx="226.951826" cy="200.107428" r="5.743422" opacity="1.000000" style="stroke:black;fill:url(#radialffffff666666)"/>
<circle cx="81.041513" cy="40.000000" r="2.432688" opacity="1.000000" style="stroke:black;fill:url(#radialffffffbfbfbf)"/>
<circle cx="74.784063" cy="72.704704" r="6.909066" opacity="1.000000" style="stroke:black;fill:url(#radialffffff666666)"/>
<circle cx="40.000000" cy="77.567304" r="2.842306" opacity="1.000000" style="stroke:black;fill:url(#radialffffffbfbfbf)"/>
<circle cx="157.545141" cy="233.022005" r="6.141341" opacity="1.000000" style="stroke:black;fill:url(#radialffffffffcc)"/>
<circle cx="244.174344" cy="230.112839" r="6.861888" opacity="1.000000" style="stroke:black;fill:url(#radialffffffffcc)"/>
<circle cx="69.207893" cy="157.351412" r="7.007986" opacity="1.000000" style="stroke:black;fill:url(#radialffffffffcc)"/>
<circle cx="290.588611" cy="228.369277" r="8.333470" opacity="1.000000" style="stroke:black;fill:url(#radialffffff666666)"/>
<circle cx="300.455881" cy="197.595407" r="3.873638" opacity="1.000000" style="stroke:black;fill:url(#radialffffffbfbfbf)"/>
<circle cx="86.888904" cy="75.533149" r="3.949934" opacity="1.000000" style="stroke:black;fill:url(#radialffffffbfbfbf)"/>
<circle cx="301.734493" cy="253.970580" r="4.133333" opacity="1.000000" style="stroke:black;fill:url(#radialffffffbfbfbf)"/>
</svg>
</g>
</svg>
