<?xml version="1.0"?>
<svg version="1.1" id="topsvg"
xmlns="http://www.w3.org/2000/svg" xmlns:xlink="http://www.w3.org/1999/xlink"
xmlns:cml="http://www.xml-cml.org/schema" x="0" y="0" width="200px" height="200px" viewBox="0 0 100 100">
<title>19 - Open Babel Depiction</title>
<defs>
<radialGradient id='radialffffff0ccff' cx='50%' cy='50%' r='50%' fx='30%' fy='30%'>
  <stop offset=' 0%' stop-color="rgb(255,255,255)"  stop-opacity='0.8'/>
  <stop offset='100%' stop-color="rgb(12,12,255)"  stop-opacity ='1.0'/>
</radialGradient>
<radialGradient id='radialffffff666666' cx='50%' cy='50%' r='50%' fx='30%' fy='30%'>
  <stop offset=' 0%' stop-color="rgb(255,255,255)"  stop-opacity='0.8'/>
  <stop offset='100%' stop-color="rgb(102,102,102)"  stop-opacity ='1.0'/>
</radialGradient>
<radialGradient id='radialffffffbfbfbf' cx='50%' cy='50%' r='50%' fx='30%' fy='30%'>
  <stop offset=' 0%' stop-color="rgb(255,255,255)"  stop-opacity='0.8'/>
  <stop offset='100%' stop-color="rgb(191,191,191)"  stop-opacity ='1.0'/>
</radialGradient>
<radialGradient id='radialffffffffcc' cx='50%' cy='50%' r='50%' fx='30%' fy='30%'>
  <stop offset=' 0%' stop-color="rgb(255,255,255)"  stop-opacity='0.8'/>
  <stop offset='100%' stop-color="rgb(255,12,12)"  stop-opacity ='1.0'/>
</radialGradient>
</defs>
<g transform="translate(0,0)">
<svg width="100" height="100" x="0" y="0" viewBox="0 0 402.476 266.774"
font-family="sans-serif" stroke="rgb(76,76,76)" stroke-width="2"  stroke-linecap="round">
<line x1="150.3" y1="127.1" x2="160.9" y2="132.9" stroke="rgb(76,76,76)"  stroke-width="2.0"/>
<line x1="359.3" y1="173.6" x2="347.7" y2="195.3" stroke="rgb(76,76,76)"  stroke-width="2.0"/>
<line x1="362.5" y1="226.8" x2="347.7" y2="195.3" stroke="rgb(76,76,76)"  stroke-width="2.0"/>
<line x1="211.4" y1="202.9" x2="227.7" y2="167.2" stroke="rgb(76,76,76)"  stroke-width="2.0"/>
<line x1="216.8" y1="205.4" x2="233.1" y2="169.7" stroke="rgb(76,76,76)"  stroke-width="2.0"/>
<line x1="301.1" y1="198.5" x2="347.7" y2="195.3" stroke="rgb(76,76,76)"  stroke-width="2.0"/>
<line x1="301.1" y1="198.5" x2="279.6" y2="161.7" stroke="rgb(76,76,76)"  stroke-width="2.0"/>
<line x1="347.7" y1="195.3" x2="358.4" y2="183.0" stroke="rgb(76,76,76)"  stroke-width="2.0"/>
<line x1="230.4" y1="168.4" x2="279.6" y2="161.7" stroke="rgb(76,76,76)"  stroke-width="2.0"/>
<line x1="230.4" y1="168.4" x2="207.6" y2="132.4" stroke="rgb(76,76,76)"  stroke-width="2.0"/>
<line x1="276.9" y1="160.4" x2="293.7" y2="125.7" stroke="rgb(76,76,76)"  stroke-width="2.0"/>
<line x1="282.3" y1="163.1" x2="299.1" y2="128.3" stroke="rgb(76,76,76)"  stroke-width="2.0"/>
<line x1="160.9" y1="132.9" x2="207.6" y2="132.4" stroke="rgb(76,76,76)"  stroke-width="2.0"/>
<line x1="160.9" y1="132.9" x2="149.4" y2="165.0" stroke="rgb(76,76,76)"  stroke-width="2.0"/>
<line x1="160.9" y1="132.9" x2="140.6" y2="99.5" stroke="rgb(76,76,76)"  stroke-width="2.0"/>
<line x1="207.6" y1="132.4" x2="223.3" y2="103.8" stroke="rgb(76,76,76)"  stroke-width="2.0"/>
<line x1="140.6" y1="99.5" x2="97.9" y2="103.4" stroke="rgb(76,76,76)"  stroke-width="2.0"/>
<line x1="138.2" y1="97.7" x2="157.9" y2="70.7" stroke="rgb(76,76,76)"  stroke-width="2.0"/>
<line x1="143.1" y1="101.2" x2="162.8" y2="74.2" stroke="rgb(76,76,76)"  stroke-width="2.0"/>
<line x1="97.9" y1="103.4" x2="74.6" y2="73.0" stroke="rgb(76,76,76)"  stroke-width="2.0"/>
<line x1="80.8" y1="40.0" x2="74.6" y2="73.0" stroke="rgb(76,76,76)"  stroke-width="2.0"/>
<line x1="40.0" y1="78.7" x2="74.6" y2="73.0" stroke="rgb(76,76,76)"  stroke-width="2.0"/>
<line x1="74.6" y1="73.0" x2="84.4" y2="75.9" stroke="rgb(76,76,76)"  stroke-width="2.0"/>
<circle cx="150.346356" cy="127.146983" r="2.066667" opacity="1.000000" style="stroke:black;fill:url(#radialffffffbfbfbf)"/>
<circle cx="359.344131" cy="173.581247" r="2.066667" opacity="1.000000" style="stroke:black;fill:url(#radialffffffbfbfbf)"/>
<circle cx="362.476127" cy="226.773518" r="2.066667" opacity="1.000000" style="stroke:black;fill:url(#radialffffffbfbfbf)"/>
<circle cx="214.084091" cy="204.116594" r="4.400000" opacity="1.000000" style="stroke:black;fill:url(#radialffffffffcc)"/>
<circle cx="301.072860" cy="198.543578" r="4.400000" opacity="1.000000" style="stroke:black;fill:url(#radialffffffffcc)"/>
<circle cx="347.665338" cy="195.317945" r="5.066667" opacity="1.000000" style="stroke:black;fill:url(#radialffffff666666)"/>
<circle cx="230.409217" cy="168.411839" r="5.066667" opacity="1.000000" style="stroke:black;fill:url(#radialffffff666666)"/>
<circle cx="279.558953" cy="161.747468" r="5.066667" opacity="1.000000" style="stroke:black;fill:url(#radialffffff666666)"/>
<circle cx="160.901506" cy="132.858840" r="5.066667" opacity="1.000000" style="stroke:black;fill:url(#radialffffff666666)"/>
<circle cx="207.584392" cy="132.351909" r="4.733333" opacity="1.000000" style="stroke:black;fill:url(#radialffffff0ccff)"/>
<circle cx="296.361950" cy="127.021058" r="4.400000" opacity="1.000000" style="stroke:black;fill:url(#radialffffffffcc)"/>
<circle cx="223.321865" cy="103.763565" r="2.066667" opacity="1.000000" style="stroke:black;fill:url(#radialffffffbfbfbf)"/>
<circle cx="149.393842" cy="164.969872" r="2.066667" opacity="1.000000" style="stroke:black;fill:url(#radialffffffbfbfbf)"/>
<circle cx="358.423906" cy="183.012752" r="2.066667" opacity="1.000000" style="stroke:black;fill:url(#radialffffffbfbfbf)"/>
<circle cx="140.643626" cy="99.462721" r="5.138643" opacity="1.000000" style="stroke:black;fill:url(#radialffffff666666)"/>
<circle cx="97.906410" cy="103.401933" r="4.479605" opacity="1.000000" style="stroke:black;fill:url(#radialffffffffcc)"/>
<circle cx="80.819272" cy="40.000000" r="2.655088" opacity="1.000000" style="stroke:black;fill:url(#radialffffffbfbfbf)"/>
<circle cx="160.362286" cy="72.417774" r="5.928903" opacity="1.000000" style="stroke:black;fill:url(#radialffffffffcc)"/>
<circle cx="40.000000" cy="78.723741" r="2.939341" opacity="1.000000" style="stroke:black;fill:url(#radialffffffbfbfbf)"/>
<circle cx="74.606942" cy="72.989282" r="7.362585" opacity="1.000000" style="stroke:black;fill:url(#radialffffff666666)"/>
<circle cx="84.358105" cy="75.937233" r="4.133333" opacity="1.000000" style="stroke:black;fill:url(#radialffffffbfbfbf)"/>
</svg>
</g>
</svg>
