<?xml version="1.0"?>
<svg version="1.1" id="topsvg"
xmlns="http://www.w3.org/2000/svg" xmlns:xlink="http://www.w3.org/1999/xlink"
xmlns:cml="http://www.xml-cml.org/schema" x="0" y="0" width="200px" height="200px" viewBox="0 0 100 100">
<title>43 - Open Babel Depiction</title>
<defs>
<radialGradient id='radialffffff0ccff' cx='50%' cy='50%' r='50%' fx='30%' fy='30%'>
  <stop offset=' 0%' stop-color="rgb(255,255,255)"  stop-opacity='0.8'/>
  <stop offset='100%' stop-color="rgb(12,12,255)"  stop-opacity ='1.0'/>
</radialGradient>
<radialGradient id='radialffffff666666' cx='50%' cy='50%' r='50%' fx='30%' fy='30%'>
  <stop offset=' 0%' stop-color="rgb(255,255,255)"  stop-opacity='0.8'/>
  <stop offset='100%' stop-color="rgb(102,102,102)"  stop-opacity ='1.0'/>
</radialGradient>
<radialGradient id='radialffffffbfbfbf' cx='50%' cy='50%' r='50%' fx='30%' fy='30%'>
  <stop offset=' 0%' stop-color="rgb(255,255,255)"  stop-opacity='0.8'/>
  <stop offset='100%' stop-color="rgb(191,191,191)"  stop-opacity ='1.0'/>
</radialGradient>
<radialGradient id='radialffffffffcc' cx='50%' cy='50%' r='50%' fx='30%' fy='30%'>
  <stop offset=' 0%' stop-color="rgb(255,255,255)"  stop-opacity='0.8'/>
  <stop offset='100%' stop-color="rgb(255,12,12)"  stop-opacity ='1.0'/>
</radialGradient>
</defs>
<g transform="translate(0,0)">
<svg width="100" height="100" x="0" y="0" viewBox="0 0 385.984 292.509"
font-family="sans-serif" stroke="rgb(76,76,76)" stroke-width="2"  stroke-linecap="round">
<line x1="141.2" y1="166.0" x2="150.1" y2="154.8" stroke="rgb(76,76,76)"  stroke-width="2.0"/>
<line x1="40.0" y1="65.9" x2="71.5" y2="65.6" stroke="rgb(76,76,76)"  stroke-width="2.0"/>
<line x1="90.7" y1="40.0" x2="71.5" y2="65.6" stroke="rgb(76,76,76)"  stroke-width="2.0"/>
<line x1="92.7" y1="107.0" x2="71.5" y2="65.6" stroke="rgb(76,76,76)"  stroke-width="2.0"/>
<line x1="92.7" y1="107.0" x2="131.5" y2="110.4" stroke="rgb(76,76,76)"  stroke-width="2.0"/>
<line x1="71.5" y1="65.6" x2="66.8" y2="58.0" stroke="rgb(76,76,76)"  stroke-width="2.0"/>
<line x1="214.3" y1="129.6" x2="196.6" y2="156.0" stroke="rgb(76,76,76)"  stroke-width="2.0"/>
<line x1="150.1" y1="154.8" x2="196.6" y2="156.0" stroke="rgb(76,76,76)"  stroke-width="2.0"/>
<line x1="150.1" y1="154.8" x2="131.5" y2="110.4" stroke="rgb(76,76,76)"  stroke-width="2.0"/>
<line x1="150.1" y1="154.8" x2="135.8" y2="177.3" stroke="rgb(76,76,76)"  stroke-width="2.0"/>
<line x1="196.6" y1="156.0" x2="216.8" y2="191.4" stroke="rgb(76,76,76)"  stroke-width="2.0"/>
<line x1="346.0" y1="215.4" x2="331.8" y2="221.8" stroke="rgb(76,76,76)"  stroke-width="2.0"/>
<line x1="129.0" y1="108.9" x2="146.7" y2="80.0" stroke="rgb(76,76,76)"  stroke-width="2.0"/>
<line x1="134.1" y1="112.0" x2="151.9" y2="83.1" stroke="rgb(76,76,76)"  stroke-width="2.0"/>
<line x1="287.9" y1="156.0" x2="268.8" y2="188.5" stroke="rgb(76,76,76)"  stroke-width="2.0"/>
<line x1="282.7" y1="152.9" x2="263.6" y2="185.5" stroke="rgb(76,76,76)"  stroke-width="2.0"/>
<line x1="216.8" y1="191.4" x2="266.2" y2="187.0" stroke="rgb(76,76,76)"  stroke-width="2.0"/>
<line x1="219.4" y1="192.9" x2="200.7" y2="226.3" stroke="rgb(76,76,76)"  stroke-width="2.0"/>
<line x1="214.2" y1="189.9" x2="195.5" y2="223.4" stroke="rgb(76,76,76)"  stroke-width="2.0"/>
<line x1="266.2" y1="187.0" x2="285.1" y2="223.0" stroke="rgb(76,76,76)"  stroke-width="2.0"/>
<line x1="285.1" y1="223.0" x2="331.8" y2="221.8" stroke="rgb(76,76,76)"  stroke-width="2.0"/>
<line x1="331.8" y1="221.8" x2="344.3" y2="252.5" stroke="rgb(76,76,76)"  stroke-width="2.0"/>
<line x1="331.8" y1="221.8" x2="342.3" y2="196.6" stroke="rgb(76,76,76)"  stroke-width="2.0"/>
<circle cx="141.172464" cy="165.953808" r="2.066667" opacity="1.000000" style="stroke:black;fill:url(#radialffffffbfbfbf)"/>
<circle cx="40.000000" cy="65.863006" r="2.066667" opacity="1.000000" style="stroke:black;fill:url(#radialffffffbfbfbf)"/>
<circle cx="90.657266" cy="40.000000" r="2.066667" opacity="1.000000" style="stroke:black;fill:url(#radialffffffbfbfbf)"/>
<circle cx="92.691435" cy="106.979051" r="4.400000" opacity="1.000000" style="stroke:black;fill:url(#radialffffffffcc)"/>
<circle cx="71.461814" cy="65.640216" r="5.066667" opacity="1.000000" style="stroke:black;fill:url(#radialffffff666666)"/>
<circle cx="214.266937" cy="129.564785" r="2.066667" opacity="1.000000" style="stroke:black;fill:url(#radialffffffbfbfbf)"/>
<circle cx="150.077603" cy="154.849829" r="5.066667" opacity="1.000000" style="stroke:black;fill:url(#radialffffff666666)"/>
<circle cx="196.579353" cy="156.015440" r="4.733333" opacity="1.000000" style="stroke:black;fill:url(#radialffffff0ccff)"/>
<circle cx="345.984224" cy="215.387344" r="2.066667" opacity="1.000000" style="stroke:black;fill:url(#radialffffffbfbfbf)"/>
<circle cx="131.540835" cy="110.440367" r="5.066667" opacity="1.000000" style="stroke:black;fill:url(#radialffffff666666)"/>
<circle cx="285.320784" cy="154.452681" r="4.400000" opacity="1.000000" style="stroke:black;fill:url(#radialffffffffcc)"/>
<circle cx="216.820949" cy="191.409981" r="5.607460" opacity="1.000000" style="stroke:black;fill:url(#radialffffff666666)"/>
<circle cx="266.225426" cy="186.992928" r="5.815596" opacity="1.000000" style="stroke:black;fill:url(#radialffffff666666)"/>
<circle cx="135.757699" cy="177.316095" r="2.528772" opacity="1.000000" style="stroke:black;fill:url(#radialffffffbfbfbf)"/>
<circle cx="149.302682" cy="81.526108" r="5.733494" opacity="1.000000" style="stroke:black;fill:url(#radialffffffffcc)"/>
<circle cx="66.760624" cy="58.004010" r="2.749652" opacity="1.000000" style="stroke:black;fill:url(#radialffffffbfbfbf)"/>
<circle cx="198.116281" cy="224.880133" r="5.872796" opacity="1.000000" style="stroke:black;fill:url(#radialffffffffcc)"/>
<circle cx="285.139969" cy="223.030008" r="6.393852" opacity="1.000000" style="stroke:black;fill:url(#radialffffffffcc)"/>
<circle cx="331.764414" cy="221.828880" r="7.675539" opacity="1.000000" style="stroke:black;fill:url(#radialffffff666666)"/>
<circle cx="344.327829" cy="252.509315" r="3.657322" opacity="1.000000" style="stroke:black;fill:url(#radialffffffbfbfbf)"/>
<circle cx="342.261372" cy="196.631014" r="4.133333" opacity="1.000000" style="stroke:black;fill:url(#radialffffffbfbfbf)"/>
</svg>
</g>
</svg>
