<?xml version="1.0"?>
<svg version="1.1" id="topsvg"
xmlns="http://www.w3.org/2000/svg" xmlns:xlink="http://www.w3.org/1999/xlink"
xmlns:cml="http://www.xml-cml.org/schema" x="0" y="0" width="200px" height="200px" viewBox="0 0 100 100">
<title>17 - Open Babel Depiction</title>
<defs>
<radialGradient id='radialffffff0ccff' cx='50%' cy='50%' r='50%' fx='30%' fy='30%'>
  <stop offset=' 0%' stop-color="rgb(255,255,255)"  stop-opacity='0.8'/>
  <stop offset='100%' stop-color="rgb(12,12,255)"  stop-opacity ='1.0'/>
</radialGradient>
<radialGradient id='radialffffff666666' cx='50%' cy='50%' r='50%' fx='30%' fy='30%'>
  <stop offset=' 0%' stop-color="rgb(255,255,255)"  stop-opacity='0.8'/>
  <stop offset='100%' stop-color="rgb(102,102,102)"  stop-opacity ='1.0'/>
</radialGradient>
<radialGradient id='radialffffffbfbfbf' cx='50%' cy='50%' r='50%' fx='30%' fy='30%'>
  <stop offset=' 0%' stop-color="rgb(255,255,255)"  stop-opacity='0.8'/>
  <stop offset='100%' stop-color="rgb(191,191,191)"  stop-opacity ='1.0'/>
</radialGradient>
<radialGradient id='radialffffffffcc' cx='50%' cy='50%' r='50%' fx='30%' fy='30%'>
  <stop offset=' 0%' stop-color="rgb(255,255,255)"  stop-opacity='0.8'/>
  <stop offset='100%' stop-color="rgb(255,12,12)"  stop-opacity ='1.0'/>
</radialGradient>
</defs>
<g transform="translate(0,0)">
<svg width="100" height="100" x="0" y="0" viewBox="0 0 341.258 195.457"
font-family="sans-serif" stroke="rgb(76,76,76)" stroke-width="2"  stroke-linecap="round">
<line x1="86.5" y1="105.4" x2="75.0" y2="121.3" stroke="rgb(76,76,76)"  stroke-width="2.0"/>
<line x1="82.8" y1="155.5" x2="75.0" y2="121.3" stroke="rgb(76,76,76)"  stroke-width="2.0"/>
<line x1="75.0" y1="121.3" x2="40.0" y2="118.1" stroke="rgb(76,76,76)"  stroke-width="2.0"/>
<line x1="75.0" y1="121.3" x2="94.5" y2="102.5" stroke="rgb(76,76,76)"  stroke-width="2.0"/>
<line x1="94.5" y1="102.5" x2="82.7" y2="119.5" stroke="rgb(76,76,76)"  stroke-width="2.0"/>
<line x1="247.4" y1="51.9" x2="225.0" y2="76.7" stroke="rgb(76,76,76)"  stroke-width="2.0"/>
<line x1="242.9" y1="47.9" x2="220.6" y2="72.7" stroke="rgb(76,76,76)"  stroke-width="2.0"/>
<line x1="157.4" y1="38.4" x2="175.9" y2="68.3" stroke="rgb(76,76,76)"  stroke-width="2.0"/>
<line x1="152.3" y1="41.6" x2="170.8" y2="71.4" stroke="rgb(76,76,76)"  stroke-width="2.0"/>
<line x1="295.5" y1="118.5" x2="284.8" y2="113.9" stroke="rgb(76,76,76)"  stroke-width="2.0"/>
<line x1="85.0" y1="121.4" x2="59.4" y2="151.0" stroke="rgb(76,76,76)"  stroke-width="2.0"/>
<line x1="80.5" y1="117.5" x2="54.9" y2="147.0" stroke="rgb(76,76,76)"  stroke-width="2.0"/>
<line x1="82.7" y1="119.5" x2="105.3" y2="97.2" stroke="rgb(76,76,76)"  stroke-width="2.0"/>
<line x1="222.8" y1="74.7" x2="173.3" y2="69.8" stroke="rgb(76,76,76)"  stroke-width="2.0"/>
<line x1="222.8" y1="74.7" x2="238.5" y2="108.3" stroke="rgb(76,76,76)"  stroke-width="2.0"/>
<line x1="173.3" y1="69.8" x2="151.9" y2="99.2" stroke="rgb(76,76,76)"  stroke-width="2.0"/>
<line x1="284.8" y1="113.9" x2="238.5" y2="108.3" stroke="rgb(76,76,76)"  stroke-width="2.0"/>
<line x1="284.8" y1="113.9" x2="301.3" y2="85.8" stroke="rgb(76,76,76)"  stroke-width="2.0"/>
<line x1="284.8" y1="113.9" x2="294.7" y2="142.0" stroke="rgb(76,76,76)"  stroke-width="2.0"/>
<line x1="151.9" y1="99.2" x2="105.3" y2="97.2" stroke="rgb(76,76,76)"  stroke-width="2.0"/>
<line x1="151.9" y1="99.2" x2="167.6" y2="123.9" stroke="rgb(76,76,76)"  stroke-width="2.0"/>
<line x1="105.3" y1="97.2" x2="95.3" y2="63.2" stroke="rgb(76,76,76)"  stroke-width="2.0"/>
<line x1="105.3" y1="97.2" x2="95.3" y2="112.1" stroke="rgb(76,76,76)"  stroke-width="2.0"/>
<circle cx="86.480946" cy="105.370285" r="2.066667" opacity="1.000000" style="stroke:black;fill:url(#radialffffffbfbfbf)"/>
<circle cx="82.768926" cy="155.456732" r="2.066667" opacity="1.000000" style="stroke:black;fill:url(#radialffffffbfbfbf)"/>
<circle cx="74.957544" cy="121.302921" r="5.066667" opacity="1.000000" style="stroke:black;fill:url(#radialffffff666666)"/>
<circle cx="40.000000" cy="118.129950" r="2.066667" opacity="1.000000" style="stroke:black;fill:url(#radialffffffbfbfbf)"/>
<circle cx="94.505364" cy="102.491049" r="4.400000" opacity="1.000000" style="stroke:black;fill:url(#radialffffffffcc)"/>
<circle cx="245.168185" cy="49.873973" r="4.718448" opacity="1.000000" style="stroke:black;fill:url(#radialffffffffcc)"/>
<circle cx="154.895087" cy="40.000000" r="4.931407" opacity="1.000000" style="stroke:black;fill:url(#radialffffffffcc)"/>
<circle cx="295.528998" cy="118.462418" r="2.385743" opacity="1.000000" style="stroke:black;fill:url(#radialffffffbfbfbf)"/>
<circle cx="82.733419" cy="119.469505" r="6.167521" opacity="1.000000" style="stroke:black;fill:url(#radialffffff666666)"/>
<circle cx="57.159216" cy="148.988134" r="5.547668" opacity="1.000000" style="stroke:black;fill:url(#radialffffffffcc)"/>
<circle cx="222.802458" cy="74.683178" r="6.622804" opacity="1.000000" style="stroke:black;fill:url(#radialffffff666666)"/>
<circle cx="173.338985" cy="69.828501" r="6.776403" opacity="1.000000" style="stroke:black;fill:url(#radialffffff666666)"/>
<circle cx="284.799646" cy="113.924070" r="7.800268" opacity="1.000000" style="stroke:black;fill:url(#radialffffff666666)"/>
<circle cx="238.460726" cy="108.307623" r="6.864548" opacity="1.000000" style="stroke:black;fill:url(#radialffffffffcc)"/>
<circle cx="151.854459" cy="99.198649" r="7.604447" opacity="1.000000" style="stroke:black;fill:url(#radialffffff0ccff)"/>
<circle cx="105.321868" cy="97.155424" r="8.338433" opacity="1.000000" style="stroke:black;fill:url(#radialffffff666666)"/>
<circle cx="95.267135" cy="63.214650" r="3.422139" opacity="1.000000" style="stroke:black;fill:url(#radialffffffbfbfbf)"/>
<circle cx="301.258420" cy="85.790187" r="3.495724" opacity="1.000000" style="stroke:black;fill:url(#radialffffffbfbfbf)"/>
<circle cx="294.660708" cy="142.012764" r="3.629325" opacity="1.000000" style="stroke:black;fill:url(#radialffffffbfbfbf)"/>
<circle cx="167.632157" cy="123.936841" r="3.677555" opacity="1.000000" style="stroke:black;fill:url(#radialffffffbfbfbf)"/>
<circle cx="95.267135" cy="112.116478" r="4.133333" opacity="1.000000" style="stroke:black;fill:url(#radialffffffbfbfbf)"/>
</svg>
</g>
</svg>
