<?xml version="1.0"?>
<svg version="1.1" id="topsvg"
xmlns="http://www.w3.org/2000/svg" xmlns:xlink="http://www.w3.org/1999/xlink"
xmlns:cml="http://www.xml-cml.org/schema" x="0" y="0" width="200px" height="200px" viewBox="0 0 100 100">
<title>10 - Open Babel Depiction</title>
<defs>
<radialGradient id='radialffffff0ccff' cx='50%' cy='50%' r='50%' fx='30%' fy='30%'>
  <stop offset=' 0%' stop-color="rgb(255,255,255)"  stop-opacity='0.8'/>
  <stop offset='100%' stop-color="rgb(12,12,255)"  stop-opacity ='1.0'/>
</radialGradient>
<radialGradient id='radialffffff666666' cx='50%' cy='50%' r='50%' fx='30%' fy='30%'>
  <stop offset=' 0%' stop-color="rgb(255,255,255)"  stop-opacity='0.8'/>
  <stop offset='100%' stop-color="rgb(102,102,102)"  stop-opacity ='1.0'/>
</radialGradient>
<radialGradient id='radialffffffbfbfbf' cx='50%' cy='50%' r='50%' fx='30%' fy='30%'>
  <stop offset=' 0%' stop-color="rgb(255,255,255)"  stop-opacity='0.8'/>
  <stop offset='100%' stop-color="rgb(191,191,191)"  stop-opacity ='1.0'/>
</radialGradient>
<radialGradient id='radialffffffffcc' cx='50%' cy='50%' r='50%' fx='30%' fy='30%'>
  <stop offset=' 0%' stop-color="rgb(255,255,255)"  stop-opacity='0.8'/>
  <stop offset='100%' stop-color="rgb(255,12,12)"  stop-opacity ='1.0'/>
</radialGradient>
</defs>
<g transform="translate(0,0)">
<svg width="100" height="100" x="0" y="0" viewBox="0 0 337.009 236.184"
font-family="sans-serif" stroke="rgb(76,76,76)" stroke-width="2"  stroke-linecap="round">
<line x1="67.2" y1="156.3" x2="89.4" y2="171.4" stroke="rgb(76,76,76)"  stroke-width="2.0"/>
<line x1="114.9" y1="187.1" x2="89.4" y2="171.4" stroke="rgb(76,76,76)"  stroke-width="2.0"/>
<line x1="89.4" y1="171.4" x2="71.8" y2="196.2" stroke="rgb(76,76,76)"  stroke-width="2.0"/>
<line x1="89.4" y1="171.4" x2="107.1" y2="139.7" stroke="rgb(76,76,76)"  stroke-width="2.0"/>
<line x1="241.4" y1="51.0" x2="219.9" y2="71.2" stroke="rgb(76,76,76)"  stroke-width="2.0"/>
<line x1="237.2" y1="46.7" x2="215.8" y2="66.9" stroke="rgb(76,76,76)"  stroke-width="2.0"/>
<line x1="151.2" y1="38.1" x2="170.7" y2="62.7" stroke="rgb(76,76,76)"  stroke-width="2.0"/>
<line x1="146.5" y1="41.9" x2="166.0" y2="66.4" stroke="rgb(76,76,76)"  stroke-width="2.0"/>
<line x1="107.1" y1="139.7" x2="78.8" y2="118.4" stroke="rgb(76,76,76)"  stroke-width="2.0"/>
<line x1="291.3" y1="113.3" x2="280.9" y2="101.9" stroke="rgb(76,76,76)"  stroke-width="2.0"/>
<line x1="217.8" y1="69.0" x2="168.3" y2="64.6" stroke="rgb(76,76,76)"  stroke-width="2.0"/>
<line x1="217.8" y1="69.0" x2="234.5" y2="96.9" stroke="rgb(76,76,76)"  stroke-width="2.0"/>
<line x1="168.3" y1="64.6" x2="147.9" y2="88.4" stroke="rgb(76,76,76)"  stroke-width="2.0"/>
<line x1="39.6" y1="121.3" x2="78.3" y2="115.5" stroke="rgb(76,76,76)"  stroke-width="2.0"/>
<line x1="40.4" y1="127.2" x2="79.2" y2="121.4" stroke="rgb(76,76,76)"  stroke-width="2.0"/>
<line x1="78.8" y1="118.4" x2="101.4" y2="86.5" stroke="rgb(76,76,76)"  stroke-width="2.0"/>
<line x1="280.9" y1="101.9" x2="234.5" y2="96.9" stroke="rgb(76,76,76)"  stroke-width="2.0"/>
<line x1="280.9" y1="101.9" x2="297.0" y2="71.4" stroke="rgb(76,76,76)"  stroke-width="2.0"/>
<line x1="280.9" y1="101.9" x2="291.7" y2="125.2" stroke="rgb(76,76,76)"  stroke-width="2.0"/>
<line x1="90.4" y1="53.8" x2="101.4" y2="86.5" stroke="rgb(76,76,76)"  stroke-width="2.0"/>
<line x1="147.9" y1="88.4" x2="101.4" y2="86.5" stroke="rgb(76,76,76)"  stroke-width="2.0"/>
<line x1="147.9" y1="88.4" x2="164.5" y2="108.9" stroke="rgb(76,76,76)"  stroke-width="2.0"/>
<line x1="101.4" y1="86.5" x2="92.3" y2="92.8" stroke="rgb(76,76,76)"  stroke-width="2.0"/>
<circle cx="67.237390" cy="156.335096" r="2.066667" opacity="1.000000" style="stroke:black;fill:url(#radialffffffbfbfbf)"/>
<circle cx="114.904437" cy="187.058665" r="2.066667" opacity="1.000000" style="stroke:black;fill:url(#radialffffffbfbfbf)"/>
<circle cx="89.364945" cy="171.406366" r="5.066667" opacity="1.000000" style="stroke:black;fill:url(#radialffffff666666)"/>
<circle cx="71.775879" cy="196.184062" r="2.066667" opacity="1.000000" style="stroke:black;fill:url(#radialffffffbfbfbf)"/>
<circle cx="239.296480" cy="48.838110" r="4.400000" opacity="1.000000" style="stroke:black;fill:url(#radialffffffffcc)"/>
<circle cx="148.881773" cy="40.000000" r="4.400000" opacity="1.000000" style="stroke:black;fill:url(#radialffffffffcc)"/>
<circle cx="107.112180" cy="139.682134" r="4.400000" opacity="1.000000" style="stroke:black;fill:url(#radialffffffffcc)"/>
<circle cx="291.259920" cy="113.267869" r="2.066667" opacity="1.000000" style="stroke:black;fill:url(#radialffffffbfbfbf)"/>
<circle cx="217.804830" cy="69.038583" r="5.066667" opacity="1.000000" style="stroke:black;fill:url(#radialffffff666666)"/>
<circle cx="168.304312" cy="64.577564" r="5.236934" opacity="1.000000" style="stroke:black;fill:url(#radialffffff666666)"/>
<circle cx="40.000000" cy="124.233194" r="4.754771" opacity="1.000000" style="stroke:black;fill:url(#radialffffffffcc)"/>
<circle cx="78.786973" cy="118.435807" r="5.569221" opacity="1.000000" style="stroke:black;fill:url(#radialffffff666666)"/>
<circle cx="280.946640" cy="101.934558" r="7.003946" opacity="1.000000" style="stroke:black;fill:url(#radialffffff666666)"/>
<circle cx="90.439850" cy="53.789776" r="2.889652" opacity="1.000000" style="stroke:black;fill:url(#radialffffffbfbfbf)"/>
<circle cx="234.532035" cy="96.873142" r="6.173651" opacity="1.000000" style="stroke:black;fill:url(#radialffffffffcc)"/>
<circle cx="147.881111" cy="88.390106" r="6.911708" opacity="1.000000" style="stroke:black;fill:url(#radialffffff0ccff)"/>
<circle cx="297.008888" cy="71.375614" r="3.048741" opacity="1.000000" style="stroke:black;fill:url(#radialffffffbfbfbf)"/>
<circle cx="101.379352" cy="86.469479" r="7.678182" opacity="1.000000" style="stroke:black;fill:url(#radialffffff666666)"/>
<circle cx="291.676325" cy="125.214489" r="3.571764" opacity="1.000000" style="stroke:black;fill:url(#radialffffffbfbfbf)"/>
<circle cx="164.450147" cy="108.900461" r="3.603485" opacity="1.000000" style="stroke:black;fill:url(#radialffffffbfbfbf)"/>
<circle cx="92.266867" cy="92.793021" r="4.133333" opacity="1.000000" style="stroke:black;fill:url(#radialffffffbfbfbf)"/>
</svg>
</g>
</svg>
