<?xml version="1.0"?>
<svg version="1.1" id="topsvg"
xmlns="http://www.w3.org/2000/svg" xmlns:xlink="http://www.w3.org/1999/xlink"
xmlns:cml="http://www.xml-cml.org/schema" x="0" y="0" width="200px" height="200px" viewBox="0 0 100 100">
<title>11 - Open Babel Depiction</title>
<defs>
<radialGradient id='radialffffff0ccff' cx='50%' cy='50%' r='50%' fx='30%' fy='30%'>
  <stop offset=' 0%' stop-color="rgb(255,255,255)"  stop-opacity='0.8'/>
  <stop offset='100%' stop-color="rgb(12,12,255)"  stop-opacity ='1.0'/>
</radialGradient>
<radialGradient id='radialffffff666666' cx='50%' cy='50%' r='50%' fx='30%' fy='30%'>
  <stop offset=' 0%' stop-color="rgb(255,255,255)"  stop-opacity='0.8'/>
  <stop offset='100%' stop-color="rgb(102,102,102)"  stop-opacity ='1.0'/>
</radialGradient>
<radialGradient id='radialffffffbfbfbf' cx='50%' cy='50%' r='50%' fx='30%' fy='30%'>
  <stop offset=' 0%' stop-color="rgb(255,255,255)"  stop-opacity='0.8'/>
  <stop offset='100%' stop-color="rgb(191,191,191)"  stop-opacity ='1.0'/>
</radialGradient>
<radialGradient id='radialffffffffcc' cx='50%' cy='50%' r='50%' fx='30%' fy='30%'>
  <stop offset=' 0%' stop-color="rgb(255,255,255)"  stop-opacity='0.8'/>
  <stop offset='100%' stop-color="rgb(255,12,12)"  stop-opacity ='1.0'/>
</radialGradient>
</defs>
<g transform="translate(0,0)">
<svg width="100" height="100" x="0" y="0" viewBox="0 0 336.208 237.311"
font-family="sans-serif" stroke="rgb(76,76,76)" stroke-width="2"  stroke-linecap="round">
<line x1="155.0" y1="38.2" x2="173.2" y2="63.1" stroke="rgb(76,76,76)"  stroke-width="2.0"/>
<line x1="150.2" y1="41.8" x2="168.4" y2="66.7" stroke="rgb(76,76,76)"  stroke-width="2.0"/>
<line x1="245.3" y1="46.7" x2="222.6" y2="69.1" stroke="rgb(76,76,76)"  stroke-width="2.0"/>
<line x1="241.1" y1="42.4" x2="218.3" y2="64.8" stroke="rgb(76,76,76)"  stroke-width="2.0"/>
<line x1="91.3" y1="97.7" x2="101.9" y2="90.3" stroke="rgb(76,76,76)"  stroke-width="2.0"/>
<line x1="170.8" y1="64.9" x2="220.5" y2="66.9" stroke="rgb(76,76,76)"  stroke-width="2.0"/>
<line x1="170.8" y1="64.9" x2="148.7" y2="91.0" stroke="rgb(76,76,76)"  stroke-width="2.0"/>
<line x1="220.5" y1="66.9" x2="235.9" y2="95.2" stroke="rgb(76,76,76)"  stroke-width="2.0"/>
<line x1="296.2" y1="107.3" x2="282.4" y2="98.0" stroke="rgb(76,76,76)"  stroke-width="2.0"/>
<line x1="101.9" y1="90.3" x2="148.7" y2="91.0" stroke="rgb(76,76,76)"  stroke-width="2.0"/>
<line x1="101.9" y1="90.3" x2="91.3" y2="57.4" stroke="rgb(76,76,76)"  stroke-width="2.0"/>
<line x1="101.9" y1="90.3" x2="79.0" y2="120.7" stroke="rgb(76,76,76)"  stroke-width="2.0"/>
<line x1="148.7" y1="91.0" x2="164.6" y2="111.3" stroke="rgb(76,76,76)"  stroke-width="2.0"/>
<line x1="235.9" y1="95.2" x2="282.4" y2="98.0" stroke="rgb(76,76,76)"  stroke-width="2.0"/>
<line x1="282.4" y1="98.0" x2="296.2" y2="67.0" stroke="rgb(76,76,76)"  stroke-width="2.0"/>
<line x1="282.4" y1="98.0" x2="292.1" y2="121.8" stroke="rgb(76,76,76)"  stroke-width="2.0"/>
<line x1="79.2" y1="123.7" x2="40.2" y2="126.6" stroke="rgb(76,76,76)"  stroke-width="2.0"/>
<line x1="78.8" y1="117.7" x2="39.8" y2="120.6" stroke="rgb(76,76,76)"  stroke-width="2.0"/>
<line x1="79.0" y1="120.7" x2="106.0" y2="144.2" stroke="rgb(76,76,76)"  stroke-width="2.0"/>
<line x1="106.0" y1="144.2" x2="86.2" y2="174.1" stroke="rgb(76,76,76)"  stroke-width="2.0"/>
<line x1="66.1" y1="197.3" x2="86.2" y2="174.1" stroke="rgb(76,76,76)"  stroke-width="2.0"/>
<line x1="86.2" y1="174.1" x2="110.7" y2="191.8" stroke="rgb(76,76,76)"  stroke-width="2.0"/>
<line x1="86.2" y1="174.1" x2="66.1" y2="157.0" stroke="rgb(76,76,76)"  stroke-width="2.0"/>
<circle cx="152.624824" cy="40.000000" r="4.400000" opacity="1.000000" style="stroke:black;fill:url(#radialffffffffcc)"/>
<circle cx="243.193872" cy="44.575726" r="4.400000" opacity="1.000000" style="stroke:black;fill:url(#radialffffffffcc)"/>
<circle cx="91.307510" cy="97.654797" r="2.066667" opacity="1.000000" style="stroke:black;fill:url(#radialffffffbfbfbf)"/>
<circle cx="170.776065" cy="64.892209" r="5.066667" opacity="1.000000" style="stroke:black;fill:url(#radialffffff666666)"/>
<circle cx="220.450770" cy="66.944510" r="5.066667" opacity="1.000000" style="stroke:black;fill:url(#radialffffff666666)"/>
<circle cx="296.208405" cy="107.322552" r="2.066667" opacity="1.000000" style="stroke:black;fill:url(#radialffffffbfbfbf)"/>
<circle cx="101.940104" cy="90.332990" r="5.066667" opacity="1.000000" style="stroke:black;fill:url(#radialffffff666666)"/>
<circle cx="148.736425" cy="91.039678" r="4.733333" opacity="1.000000" style="stroke:black;fill:url(#radialffffff0ccff)"/>
<circle cx="235.881746" cy="95.234632" r="4.400000" opacity="1.000000" style="stroke:black;fill:url(#radialffffffffcc)"/>
<circle cx="91.268787" cy="57.350974" r="2.066667" opacity="1.000000" style="stroke:black;fill:url(#radialffffffbfbfbf)"/>
<circle cx="282.416689" cy="97.967805" r="5.066667" opacity="1.000000" style="stroke:black;fill:url(#radialffffff666666)"/>
<circle cx="296.166456" cy="66.999367" r="2.066667" opacity="1.000000" style="stroke:black;fill:url(#radialffffffbfbfbf)"/>
<circle cx="164.635299" cy="111.304531" r="2.066667" opacity="1.000000" style="stroke:black;fill:url(#radialffffffbfbfbf)"/>
<circle cx="79.013069" cy="120.714134" r="5.204858" opacity="1.000000" style="stroke:black;fill:url(#radialffffff666666)"/>
<circle cx="292.074763" cy="121.762873" r="2.156753" opacity="1.000000" style="stroke:black;fill:url(#radialffffffbfbfbf)"/>
<circle cx="40.000000" cy="123.624787" r="4.679779" opacity="1.000000" style="stroke:black;fill:url(#radialffffffffcc)"/>
<circle cx="105.976940" cy="144.215555" r="5.839199" opacity="1.000000" style="stroke:black;fill:url(#radialffffffffcc)"/>
<circle cx="66.141015" cy="197.310760" r="3.082887" opacity="1.000000" style="stroke:black;fill:url(#radialffffffbfbfbf)"/>
<circle cx="86.244523" cy="174.080398" r="8.649280" opacity="1.000000" style="stroke:black;fill:url(#radialffffff666666)"/>
<circle cx="110.743052" cy="191.799237" r="3.995415" opacity="1.000000" style="stroke:black;fill:url(#radialffffffbfbfbf)"/>
<circle cx="66.079704" cy="157.000483" r="4.133333" opacity="1.000000" style="stroke:black;fill:url(#radialffffffbfbfbf)"/>
</svg>
</g>
</svg>
