<?xml version="1.0"?>
<svg version="1.1" id="topsvg"
xmlns="http://www.w3.org/2000/svg" xmlns:xlink="http://www.w3.org/1999/xlink"
xmlns:cml="http://www.xml-cml.org/schema" x="0" y="0" width="200px" height="200px" viewBox="0 0 100 100">
<title>24 - Open Babel Depiction</title>
<defs>
<radialGradient id='radialffffff0ccff' cx='50%' cy='50%' r='50%' fx='30%' fy='30%'>
  <stop offset=' 0%' stop-color="rgb(255,255,255)"  stop-opacity='0.8'/>
  <stop offset='100%' stop-color="rgb(12,12,255)"  stop-opacity ='1.0'/>
</radialGradient>
<radialGradient id='radialffffff666666' cx='50%' cy='50%' r='50%' fx='30%' fy='30%'>
  <stop offset=' 0%' stop-color="rgb(255,255,255)"  stop-opacity='0.8'/>
  <stop offset='100%' stop-color="rgb(102,102,102)"  stop-opacity ='1.0'/>
</radialGradient>
<radialGradient id='radialffffffbfbfbf' cx='50%' cy='50%' r='50%' fx='30%' fy='30%'>
  <stop offset=' 0%' stop-color="rgb(255,255,255)"  stop-opacity='0.8'/>
  <stop offset='100%' stop-color="rgb(191,191,191)"  stop-opacity ='1.0'/>
</radialGradient>
<radialGradient id='radialffffffffcc' cx='50%' cy='50%' r='50%' fx='30%' fy='30%'>
  <stop offset=' 0%' stop-color="rgb(255,255,255)"  stop-opacity='0.8'/>
  <stop offset='100%' stop-color="rgb(255,12,12)"  stop-opacity ='1.0'/>
</radialGradient>
</defs>
<g transform="translate(0,0)">
<svg width="100" height="100" x="0" y="0" viewBox="0 0 348.895 243.703"
font-family="sans-serif" stroke="rgb(76,76,76)" stroke-width="2"  stroke-linecap="round">
<line x1="91.4" y1="171.2" x2="72.8" y2="170.9" stroke="rgb(76,76,76)"  stroke-width="2.0"/>
<line x1="85.3" y1="85.1" x2="97.4" y2="98.8" stroke="rgb(76,76,76)"  stroke-width="2.0"/>
<line x1="80.8" y1="89.0" x2="92.9" y2="102.8" stroke="rgb(76,76,76)"  stroke-width="2.0"/>
<line x1="40.0" y1="160.9" x2="72.8" y2="170.9" stroke="rgb(76,76,76)"  stroke-width="2.0"/>
<line x1="72.8" y1="170.9" x2="71.6" y2="203.7" stroke="rgb(76,76,76)"  stroke-width="2.0"/>
<line x1="72.8" y1="170.9" x2="92.0" y2="141.9" stroke="rgb(76,76,76)"  stroke-width="2.0"/>
<line x1="95.1" y1="100.8" x2="92.0" y2="141.9" stroke="rgb(76,76,76)"  stroke-width="2.0"/>
<line x1="95.1" y1="100.8" x2="115.7" y2="74.1" stroke="rgb(76,76,76)"  stroke-width="2.0"/>
<line x1="180.9" y1="60.9" x2="162.1" y2="78.9" stroke="rgb(76,76,76)"  stroke-width="2.0"/>
<line x1="107.8" y1="40.0" x2="115.7" y2="74.1" stroke="rgb(76,76,76)"  stroke-width="2.0"/>
<line x1="115.7" y1="74.1" x2="162.1" y2="78.9" stroke="rgb(76,76,76)"  stroke-width="2.0"/>
<line x1="115.7" y1="74.1" x2="102.0" y2="83.6" stroke="rgb(76,76,76)"  stroke-width="2.0"/>
<line x1="253.0" y1="87.8" x2="232.5" y2="110.4" stroke="rgb(76,76,76)"  stroke-width="2.0"/>
<line x1="248.6" y1="83.7" x2="228.0" y2="106.4" stroke="rgb(76,76,76)"  stroke-width="2.0"/>
<line x1="162.1" y1="78.9" x2="180.7" y2="107.2" stroke="rgb(76,76,76)"  stroke-width="2.0"/>
<line x1="305.4" y1="149.7" x2="294.1" y2="140.4" stroke="rgb(76,76,76)"  stroke-width="2.0"/>
<line x1="230.2" y1="108.4" x2="180.7" y2="107.2" stroke="rgb(76,76,76)"  stroke-width="2.0"/>
<line x1="230.2" y1="108.4" x2="247.5" y2="137.1" stroke="rgb(76,76,76)"  stroke-width="2.0"/>
<line x1="183.0" y1="109.2" x2="162.8" y2="132.5" stroke="rgb(76,76,76)"  stroke-width="2.0"/>
<line x1="178.5" y1="105.3" x2="158.3" y2="128.6" stroke="rgb(76,76,76)"  stroke-width="2.0"/>
<line x1="294.1" y1="140.4" x2="247.5" y2="137.1" stroke="rgb(76,76,76)"  stroke-width="2.0"/>
<line x1="294.1" y1="140.4" x2="308.9" y2="109.7" stroke="rgb(76,76,76)"  stroke-width="2.0"/>
<line x1="294.1" y1="140.4" x2="305.2" y2="164.5" stroke="rgb(76,76,76)"  stroke-width="2.0"/>
<circle cx="91.416168" cy="171.223593" r="2.066667" opacity="1.000000" style="stroke:black;fill:url(#radialffffffbfbfbf)"/>
<circle cx="83.079284" cy="87.031393" r="4.400000" opacity="1.000000" style="stroke:black;fill:url(#radialffffffffcc)"/>
<circle cx="40.000000" cy="160.930027" r="2.066667" opacity="1.000000" style="stroke:black;fill:url(#radialffffffbfbfbf)"/>
<circle cx="72.792176" cy="170.900709" r="5.066667" opacity="1.000000" style="stroke:black;fill:url(#radialffffff666666)"/>
<circle cx="71.607189" cy="203.702571" r="2.066667" opacity="1.000000" style="stroke:black;fill:url(#radialffffffbfbfbf)"/>
<circle cx="95.113199" cy="100.815344" r="5.066667" opacity="1.000000" style="stroke:black;fill:url(#radialffffff666666)"/>
<circle cx="92.000590" cy="141.925031" r="4.400000" opacity="1.000000" style="stroke:black;fill:url(#radialffffffffcc)"/>
<circle cx="180.948882" cy="60.919703" r="2.066667" opacity="1.000000" style="stroke:black;fill:url(#radialffffffbfbfbf)"/>
<circle cx="107.776739" cy="40.000000" r="2.066667" opacity="1.000000" style="stroke:black;fill:url(#radialffffffbfbfbf)"/>
<circle cx="115.697102" cy="74.112774" r="5.387459" opacity="1.000000" style="stroke:black;fill:url(#radialffffff666666)"/>
<circle cx="250.795312" cy="85.752770" r="4.715369" opacity="1.000000" style="stroke:black;fill:url(#radialffffffffcc)"/>
<circle cx="162.134387" cy="78.914071" r="5.128574" opacity="1.000000" style="stroke:black;fill:url(#radialffffff0ccff)"/>
<circle cx="305.382209" cy="149.664578" r="2.699760" opacity="1.000000" style="stroke:black;fill:url(#radialffffffbfbfbf)"/>
<circle cx="230.246927" cy="108.383762" r="6.984708" opacity="1.000000" style="stroke:black;fill:url(#radialffffff666666)"/>
<circle cx="180.726092" cy="107.218148" r="7.188652" opacity="1.000000" style="stroke:black;fill:url(#radialffffff666666)"/>
<circle cx="102.010017" cy="83.582984" r="3.013715" opacity="1.000000" style="stroke:black;fill:url(#radialffffffbfbfbf)"/>
<circle cx="294.084472" cy="140.394557" r="8.663162" opacity="1.000000" style="stroke:black;fill:url(#radialffffff666666)"/>
<circle cx="247.485744" cy="137.081759" r="7.566518" opacity="1.000000" style="stroke:black;fill:url(#radialffffffffcc)"/>
<circle cx="160.529650" cy="130.559487" r="7.632911" opacity="1.000000" style="stroke:black;fill:url(#radialffffffffcc)"/>
<circle cx="308.895195" cy="109.655928" r="3.751699" opacity="1.000000" style="stroke:black;fill:url(#radialffffffbfbfbf)"/>
<circle cx="305.240140" cy="164.517277" r="4.133333" opacity="1.000000" style="stroke:black;fill:url(#radialffffffbfbfbf)"/>
</svg>
</g>
</svg>
